<svg xmlns="http://www.w3.org/2000/svg" xmlns:xlink="http://www.w3.org/1999/xlink" width="400" height="400" viewBox="0 0 400 400"><defs><clipPath id="b"><rect width="400" height="400"/></clipPath></defs><g id="a" clip-path="url(#b)"><g transform="translate(0)"><path d="M422.675,451.174l-.341.341-.33.33Z" transform="translate(-92.312 -98.693)" fill="#f2726f"/><path d="M425.985,447.9l-.261.261-.287.287Z" transform="translate(-93.063 -97.976)" fill="#f2726f"/><path d="M427.088,446.927l-.063.063Z" transform="translate(-93.41 -97.761)" fill="#f2726f"/><path d="M420.746,453.164l-.243.243-.21.21Z" transform="translate(-91.938 -99.128)" fill="#f2726f"/><path d="M368.391,177.748v6.446H330.279a130.617,130.617,0,0,0-27.02-65.1l26.988-26.988,4.559,4.559c14.746,14.746,37.108-7.6,22.352-22.352l-2.251-2.251-.259-.259-.306-.306.148.148-.355-.355-.1-.1-.273-.273-4.141-4.141-.466-.466L325.689,42.843c-14.766-14.766-37.139,7.566-22.352,22.352l4.559,4.559L280.908,96.743a130.606,130.606,0,0,0-65.1-27.02V31.61h6.446c20.885,0,20.907-31.61,0-31.61h-44.5c-20.885,0-20.907,31.61,0,31.61H184.2V69.722a130.617,130.617,0,0,0-65.1,27.02L92.106,69.754l4.559-4.559c14.77-14.766-7.567-37.135-22.352-22.352l-4.263,4.263L42.844,74.313C28.074,89.08,50.471,111.39,65.2,96.664l4.559-4.559,26.988,26.988a130.606,130.606,0,0,0-27.02,65.1H31.61v-6.446c0-20.885-31.61-20.907-31.61,0v44.5c0,20.885,31.61,20.907,31.61,0v-6.446H69.722a130.617,130.617,0,0,0,27.02,65.1L69.754,307.895l-4.559-4.559c-14.766-14.765-37.14,7.566-22.352,22.352l2.251,2.251,5.75,5.75,23.469,23.469c14.766,14.766,37.142-7.564,22.352-22.352l-4.559-4.559,26.988-26.988a130.6,130.6,0,0,0,65.1,27.02V368.39h-6.446c-20.885,0-20.907,31.61,0,31.61h44.5c20.885,0,20.907-31.61,0-31.61h-6.446V330.278a130.617,130.617,0,0,0,65.1-27.02l26.988,26.988-4.559,4.559c-14.77,14.767,7.627,37.076,22.352,22.352l2.282-2.282.6-.6.811-.811.646-.646,2.639-2.639,1.017-1.017,23.478-23.478c14.77-14.766-7.567-37.135-22.352-22.352l-4.559,4.559-26.988-26.988a130.6,130.6,0,0,0,27.02-65.1h38.112v6.446c0,20.885,31.61,20.907,31.61,0v-44.5C400,156.863,368.391,156.842,368.391,177.748Zm-196.85,32.377a34.849,34.849,0,1,1,34.849-34.849A34.85,34.85,0,0,1,171.541,210.126ZM228.46,249.95a21.49,21.49,0,1,1,21.49-21.49A21.49,21.49,0,0,1,228.46,249.95Z" fill="#f2726f"/><path d="M421.221,452.645l.612-.612-.316.316Z" transform="translate(-92.141 -98.881)" fill="#f2726f"/></g></g></svg>