<svg xmlns="http://www.w3.org/2000/svg" xmlns:xlink="http://www.w3.org/1999/xlink" width="300" height="300" viewBox="0 0 300 300"><defs><clipPath id="b"><rect width="300" height="300"/></clipPath></defs><g id="a" clip-path="url(#b)"><rect width="300" height="300" fill="#fce21e"/><circle cx="150" cy="150" r="150" fill="#fff" opacity="0"/><g transform="translate(1941.76 -979.773)"><g transform="translate(-1895.373 1008.773)"><g transform="translate(0 103.602)"><path d="M12.492,195.586c34.239,5.2,69.1,5.464,103.623,3.575a241,241,0,0,1,41.02.1c8.067.6,43.437,3.3,46.327-3.923-1.819-38.489-5.5-77.306-16.8-114.323-4.647-13.144-8.639-24.053-17.71-34.93-2.859-2.97-9.024-9.2-12.556-11.229-3.061-1.759-4.34-1.132-6.1-4.1-1.746-3.283-3.034-8.766-5.514-11.083-2.525-2.359-6.266-1.515-10.9-.755C134.73,7.4,129.416,4.462,122.094,2.272,109.225-2.642,96.515-.173,93.276,15.5c-6.006,0-9.379,2.586-13.026,5.07-1.491,1.016-.454,3.6-2.235,4.4-3.295,1.174-9.117.886-12.289,2.33C51.3,33.868,38.452,43.392,30.014,57.3,11.1,87-1.9,149.552.352,184.748c-.985,1.546.377,3.762.723,5.424a3.163,3.163,0,0,0,3.33,2.243C6.466,194.633,9.655,195.127,12.492,195.586Z" transform="translate(1.572 0)" fill="#ffdbb4"/><path d="M83.724,3.445A11.825,11.825,0,0,1,92.275,0l.147,0,1.063.048-.711,3.488-.036.165-.145.606-.193.793-.069.291-.072.323-.033.155-.032.153-.3,1.482.057.132-.016.337c-.047,1.217.215,1.886.793,2.1l.046.016.329.106.269.584c.619,1.335,1.2,2.5,1.788,3.6A80.889,80.889,0,0,0,101.323,24q3.388,4.585,7.057,8.744c1.1,1.246,2.262,2.5,3.5,3.769l1.064,1.09.338.343.228.227.284.278.409.39.3.292.1.091a2.195,2.195,0,0,0,.3.243l.031.019.094.056,4.935,5.192,1.743.959.828.459.168-.334.034-.107,1.834-4.029,1.12-2.468c2.3-5.077,4.087-9.116,5.723-12.962l.2-.48.6-1.431.319-.763c1.462-3.5,2.542-6.209,3.508-8.837l.137-.375.2-.561.3-.847.055-.145c.262-.672-.382-3.116-1.017-4.454l-.036-.075-.165-.332-.179-.35a12.112,12.112,0,0,1-.98-2.832q-.062-.267-.117-.539l-.053-.273-.034-.179-.047-.251-.067-.359,1.421-.238.78-.127.34-.053c.441-.068.833-.124,1.2-.171l.137-.017.247-.029.009.049.507.05.377.039a36.683,36.683,0,0,1,4.3.652l.1.024.181.046.083.022A3.869,3.869,0,0,1,145.925,5a9.132,9.132,0,0,1,1.034,2.052l.142.356.472,1.168q.083.213.256.682l.4,1.092L150.24,15.9l2.056,1.082c.956.5,1.655.861,2,1.032l.122.06.088.04.709.281-.076.221.086.049c8.466,4.872,14.994,12.366,20.077,22.315l.154.3.157.313c4.051,8.1,6.953,17.148,9.787,29.223l.175.751.138.6.739,3.222c2.776,12.166,4.683,21.238,6.262,30.14l.1.58.263,1.512q2.974,17.283,4.97,34.245l.22,1.9c.554,4.858,1.055,9.879,1.6,15.909l.073.81.239,2.708q.382,4.378.7,8.738l.1,1.453.213,3.159.125,1.8.015.244.051.938.014.22c.019.282.041.52.068.74l.022.162.024.157a3.888,3.888,0,0,0,.438,1.245l.059.108.393.7-.713.376c-3.718,1.96-11.04,2.822-21.083,2.867h-.933c-4.88,0-10.053-.191-15.45-.513L163,185.521l-1.019-.065-1.309-.088L160,185.32l-2.838-.208a239.2,239.2,0,0,0-40.9-.1c-38.456,2.1-71.649,1.217-102.847-3.442l-.945-.142-.7-.113-.415-.07c-3.309-.565-5.387-1.29-7.008-2.81l-.085-.081-.071-.069H4.158a3.962,3.962,0,0,1-3.682-2.651l-.029-.085-.037-.118-.025-.117c-.026-.113-.058-.235-.1-.369l-.031-.1L0,174l.868-.159a.371.371,0,0,0,.228-.175l.072-.1.125-.174.3-.415a3.313,3.313,0,0,0,.559-1.02,3.718,3.718,0,0,0,.088-1.026l-.006-.22-.034-.8c0-.064,0-.12,0-.174v-1.2l0-1.233c0-.538.005-1.063.009-1.578l.007-.766.007-.618q.063-5.123.3-10.235.465-9.978,1.594-19.912a300.412,300.412,0,0,1,7.17-39.714l.325-1.279c3.5-13.683,6.874-24.233,11.163-33.988C28.231,46.808,34.882,36.6,43.257,28.433A67.429,67.429,0,0,1,58.379,17.25a65.738,65.738,0,0,1,7.981-3.589l.407-.152.657-.24.5-.186,1.624-.607c.341-.128.713-.271,1.152-.444l.272-.107,2.909-1.161.483-.19.537-.209.395-.152c.645-.246,1.23-.461,1.772-.651l.321-.111.291-.1,1.241-.43-.024,1.13a2.179,2.179,0,0,0,.607,1.726l.014.013.015.012.013.009.075,0h.293A.511.511,0,0,0,80,11.752c.417-.355.612-.83.8-1.921l.05-.3.087-.569.035-.215a6.183,6.183,0,0,1,.448-1.653,9.735,9.735,0,0,1,1.192-1.983l.112-.142.447-.537.069-.085a1.354,1.354,0,0,0,.27-.472l.008-.035.045-.226Z" transform="translate(1.572 14.407)"/><path d="M205.084,189.765a2.036,2.036,0,0,1-1.671-.886l-.2-.312a5.807,5.807,0,0,1-1-2.285,17.128,17.128,0,0,1-.163-1.851c-.014-.264-.028-.537-.047-.8-.065-.9-.125-1.8-.183-2.679v-.021c-.047-.7-.095-1.425-.145-2.138-.236-3.367-.5-6.791-.8-10.177-.917-10.5-1.541-16.231-1.982-20.053-1.338-11.595-3.057-23.524-5.111-35.457-2.032-11.807-4.607-23.432-7.088-34.236l-.27-1.176c-1.379-5.989-2.662-10.82-4.038-15.206a102.7,102.7,0,0,0-5.857-14.9,70.317,70.317,0,0,0-3.89-6.892,56.262,56.262,0,0,0-4.679-6.28,47.5,47.5,0,0,0-5.58-5.49,43.548,43.548,0,0,0-6.592-4.52.162.162,0,0,1-.087-.189.193.193,0,0,1,.273-.13,47.933,47.933,0,0,1,13.465,9.557,61.522,61.522,0,0,1,9.96,13.228,91.8,91.8,0,0,1,6.932,15.818c1.965,5.764,3.512,11.647,4.767,16.641l.1.4c2.711,10.826,5.256,22.568,7.779,35.9,1.126,5.95,2.179,12.114,3.129,18.321.913,5.97,1.76,12.166,2.516,18.416.814,6.728,1.438,12.709,1.905,18.285.256,3.051.49,6.133.7,9.161.1,1.412.169,2.577.23,3.667l.048.917c.007.132.015.265.023.395a6.852,6.852,0,0,1-.088,2.093,7.75,7.75,0,0,1-.7,1.656c-.055.106-.117.225-.177.342A1.591,1.591,0,0,1,205.084,189.765ZM44.6,189.155a1.377,1.377,0,0,1-.865-.34l-.164-.13-.116-.09-.006,0a3.861,3.861,0,0,1-1.23-1.326,7.439,7.439,0,0,1-.636-2.937l0-.025c-.094-1.176-.069-2.383-.045-3.55.008-.371.016-.754.019-1.134.032-3.1.075-6.25.13-9.367.22-12.525.652-23.755,1.323-34.331.357-5.63.836-11.063,1.424-16.146l.118-1c.091-.763.179-1.538.263-2.287.093-.82.189-1.667.29-2.507a35.312,35.312,0,0,1-7.59-7.293.224.224,0,0,1-.025-.24.207.207,0,0,1,.179-.122.2.2,0,0,1,.142.067,27.584,27.584,0,0,0,3.554,3.1,29.731,29.731,0,0,0,4,2.456,45.82,45.82,0,0,1,2.27-9.851.267.267,0,0,1,.248-.166.2.2,0,0,1,.2.166,48.185,48.185,0,0,1,.838,8.863q.009.273.018.546c.09,2.719.107,5.691.053,9.351-.13,8.871-.351,17.882-.565,26.6l0,.115c-.061,2.492-.125,5.07-.185,7.6-.119,5.039-.256,11.02-.361,17.17-.036,2.11-.068,4.277-.094,6.44l-.032,2.831a34.547,34.547,0,0,1-.2,3.739,5.322,5.322,0,0,1-.769,2.312,3.274,3.274,0,0,1-.94.883c-.095.068-.193.138-.289.211l-.084.065A1.406,1.406,0,0,1,44.6,189.155Zm74.828-1.845a.532.532,0,0,1-.559-.422A92.571,92.571,0,0,1,118,174.8v-.028c-.016-.57-.032-1.16-.05-1.739l-.03-.924c-.172-5.014-.25-10.024-.234-14.889.052-14.594.38-29.426.7-43.769v0l0-.089c.066-3,.135-6.109.2-9.164.051-2.383.1-4.806.143-7.15v-.064c.123-6.368.251-12.952.465-19.429.159-4.829.326-9.186.51-13.322l.017-.38v0c.081-1.823.164-3.707.287-5.559l.059-.848c.02-.274.039-.549.057-.816v-.005c.018-.268.037-.546.057-.82a3.057,3.057,0,0,1-1.052.186,7.013,7.013,0,0,1-3.212-1.157c-.253-.139-.513-.283-.768-.414l-1.524-.785-.113-.058c-1.281-.66-2.6-1.341-3.925-2.019l-1.856-.951-3.715-1.9-.416-.215,0,0a6.077,6.077,0,0,0-2.726-.939,3.22,3.22,0,0,0-1.6.453A91.558,91.558,0,0,0,81.583,61.442a2.231,2.231,0,0,1-1.523.563,2.184,2.184,0,0,1-1.241-.365,1.637,1.637,0,0,1-.691-1.11,46.374,46.374,0,0,1-.513-4.92c-.083-1.548-.1-3.164-.064-4.939.073-3.3.35-6.642.617-9.879l0-.052q.044-.538.089-1.076l.209-2.575c.226-2.748.51-5.991.9-9.214l.017-.14v0c.156-1.3.317-2.643.492-3.963l.139-1.025c.041-.3.081-.6.119-.886v-.008a23.282,23.282,0,0,1,.737-3.893,1.122,1.122,0,0,1-.43-.254,3.079,3.079,0,0,1-.837-2.605,9.643,9.643,0,0,1,.748-2.8,12.414,12.414,0,0,1,2.9-4.244A1.585,1.585,0,0,1,84.294,7.6a15.635,15.635,0,0,1,3.368-1.722,10.6,10.6,0,0,1,3.551-.642,9.55,9.55,0,0,1,2.887.451c.118-.563.211-.992.3-1.391l.106-.462c.058-.249.109-.532.162-.832a12.018,12.018,0,0,1,.38-1.671A2.653,2.653,0,0,1,95.865.028.129.129,0,0,1,95.942,0,.08.08,0,0,1,96,.028a3.43,3.43,0,0,1,.513,2.286c0,.16,0,.311,0,.462l0,.085c.039,1.168.054,2.408.048,4.02l-.014,4.271c0,.217-.008.442-.014.659-.012.373-.024.757,0,1.13l.016.229a1.408,1.408,0,0,1,.367,1.3,1.844,1.844,0,0,1-.819,1.467l1.016,1.442,1.017,1.441c2.539,3.6,4.52,6.321,6.425,8.815,2.177,2.851,4.589,5.716,7.169,8.516,1.32,1.433,2.549,2.72,3.756,3.934.36.362.731.723,1.09,1.071l.488.476.524.518c.071.071.145.141.224.215h0a3.2,3.2,0,0,1,.679.792,2.394,2.394,0,0,1,.145.639,1.453,1.453,0,0,0,.047.257,1.492,1.492,0,0,1-.127,1.37.993.993,0,0,1-.841.5,1.124,1.124,0,0,1-.405-.081l.05-.033c.065-.045.1-.077.091-.093s-.016-.013-.04-.013a2.109,2.109,0,0,0-.436.1,1.752,1.752,0,0,1-.811-.2l-.075-.041a3.565,3.565,0,0,1-.814-.665l-.148-.146-.071-.068c-.56-.525-1.105-1.084-1.632-1.625l-.291-.3c-1.4-1.428-2.661-2.784-3.864-4.146-2.44-2.763-4.829-5.723-7.1-8.8a82.1,82.1,0,0,1-6.226-9.714c-.626-1.16-1.241-2.4-1.935-3.912a1.8,1.8,0,0,1-1.163-1.14,4.71,4.71,0,0,1-.213-1.919,17.715,17.715,0,0,1-1.063-3.118.175.175,0,0,1,.163-.206.137.137,0,0,1,.1.05A17.16,17.16,0,0,1,92.9,11.219c.117-.572.25-1.112.368-1.588v0c.087-.352.162-.655.213-.9L94,6.148c-.165-.009-.335-.013-.506-.013a11.189,11.189,0,0,0-4.2.849,10.333,10.333,0,0,0-3.531,2.354,2.677,2.677,0,0,1-.7,1.169v0c-.081.1-.165.195-.248.3a9.054,9.054,0,0,0-1.2,1.952,7.891,7.891,0,0,0-.474,2A4.539,4.539,0,0,1,81.987,17.7a1.307,1.307,0,0,1-.453.25,33.978,33.978,0,0,1,.368,7.479v0c-.017.715-.034,1.454-.037,2.164v.277c0,3.673-.127,7.369-.25,10.545L81.476,41.9a102.694,102.694,0,0,0,.155,13.884c2.052-1.818,4.2-3.573,6.381-5.216,1.437-1.082,2.925-2.142,4.423-3.151l1.22-.816.051-.034a29.877,29.877,0,0,1,4.51-2.658,6.258,6.258,0,0,1,2.56-.549,8.378,8.378,0,0,1,3.547.889c1.38.643,2.753,1.369,4.08,2.07h0c.609.322,1.238.654,1.86.974,1.534.79,3.092,1.585,4.6,2.355l.216.11,1.219.623c.323.165.679.325,1.055.494a8.339,8.339,0,0,1,3.207,2.056c.065-.289.139-.568.22-.829a1.833,1.833,0,0,1,.176-1.307c3.2-5.876,6.121-11.8,9.339-18.389.747-1.529,1.489-3.093,2.206-4.6l0-.007c.747-1.574,1.519-3.2,2.3-4.8l1.487-3.041c.3-.609.53-1.078.748-1.518s.442-.879.66-1.306c.16-.313.325-.636.485-.955.074-.148.159-.3.241-.444l0,0c.094-.167.192-.34.275-.511l.074-.161c0-.008.272-.852.167-1.015a.054.054,0,0,0-.047-.027.1.1,0,0,0-.034.007l-.024.012a.144.144,0,0,1-.071.02.125.125,0,0,1-.112-.075.148.148,0,0,1,.018-.158.509.509,0,0,1,.4-.215,1.013,1.013,0,0,1,.766.61c.493.987-.123,2.417-.618,3.566-.126.292-.244.567-.333.809l-.024.066C137.471,22.6,135.9,26.44,134.409,30c-2.877,6.865-6.01,13.745-9.041,20.4l-.432.949-.038.122c.392-.3.8-.586,1.194-.862h0c.3-.211.586-.41.857-.61,1.619-1.2,3.337-2.374,4.853-3.41,2.752-1.881,5.757-3.774,9.187-5.788l.625-.366a13.813,13.813,0,0,1,2.021-1.007A6.022,6.022,0,0,1,145.792,39a5.367,5.367,0,0,1,.78.058,13.929,13.929,0,0,1,4.073,1.533c.264.132.536.268.8.4l.161.077,4.8,2.284c-.471-1.878-1.01-3.879-1.649-6.117-1.114-3.9-2.368-7.865-3.725-11.781-1.216-3.507-2.545-7.04-4.065-10.8l-.434-1.071-.048-.12-.014-.036a10.236,10.236,0,0,0-1-2.055,3.122,3.122,0,0,0-1.79-1.314,7.245,7.245,0,0,0-1.882-.18h-.5a5.006,5.006,0,0,1-2.753-.56.2.2,0,0,1-.091-.206.182.182,0,0,1,.138-.153l.947-.239a17.227,17.227,0,0,1,4.012-.632,6.209,6.209,0,0,1,1.531.175,5.93,5.93,0,0,1,2.468,1.378,8.641,8.641,0,0,1,1.762,2.223,36.324,36.324,0,0,1,2,4.548c.14.363.285.739.432,1.109l.119.3c.868,2.165,1.7,4.341,2.477,6.468,1.559,4.276,3.014,8.7,4.324,13.153.6,2.03,1.185,4.132,1.8,6.428.086.323.2.682.323,1.061v0c.112.35.229.712.335,1.085a6.219,6.219,0,0,1,.724.844.9.9,0,0,1,.163.7,1.214,1.214,0,0,1-.524.761,2.783,2.783,0,0,1-.423,1.478,2.321,2.321,0,0,1-1.952,1.029,2.067,2.067,0,0,1-1.5-.6,1.9,1.9,0,0,1-.486-1.445,1.8,1.8,0,0,1,.359-.962l-.006-.046-.023-.083c-.295-.141-.585-.289-.892-.446h0c-.218-.111-.444-.226-.673-.34l-5.04-2.492c-.389-.192-.782-.408-1.2-.637a11.775,11.775,0,0,0-3.5-1.475,2.715,2.715,0,0,0-.452-.037,7.21,7.21,0,0,0-3.256,1.2c-.245.137-.476.267-.7.386l-.084.044c-3.438,1.763-6.815,3.575-9.372,4.956-.882.477-1.772.973-2.633,1.453l-.012.006c-.616.344-1.253.7-1.882,1.044-.347.19-.694.4-1.062.621h0a12.54,12.54,0,0,1-2.984,1.459,1.53,1.53,0,0,1-.957.337,1.822,1.822,0,0,1-.95-.285,29.6,29.6,0,0,1,.28,3.708c.014.423.029.86.05,1.292.09,1.854.118,3.741.144,5.567.006.382.011.777.018,1.167l.015.841c.091,4.751.145,9.621.165,14.888.043,11.261-.022,22.71-.085,33.783-.036,6.305-.073,12.825-.089,19.241-.02,7.767-.153,15.984-.43,26.643-.1,3.931-.323,7.88-.523,11.273l-.121,2.048c-.037.614-.071,1.238-.105,1.841a86.784,86.784,0,0,1-1.1,11.114A.554.554,0,0,1,119.424,187.311Zm8.064-.632a2.719,2.719,0,0,1-.706-.1,2.66,2.66,0,0,1-1.856-3.27l.064-.154a2.736,2.736,0,0,1,1.907-1.908,2.7,2.7,0,0,1,.715-.1,2.719,2.719,0,0,1,2.648,2.033,2.728,2.728,0,0,1-1.813,3.3l-.1.029-.154.064A2.722,2.722,0,0,1,127.488,186.679Zm55.193-5.769a4.613,4.613,0,0,1-.693-.06,1.972,1.972,0,0,1-1.3-.89,3.036,3.036,0,0,1-.52-1.506c-.291-6.106-.691-12.551-1.224-19.7-.575-7.722-1.008-15.587-1.427-23.192v-.017c-.212-3.85-.431-7.83-.666-11.743l-.246-4.071c-.24-4.008-.5-8.668-.585-13.244-.024-1.326,0-2.673.014-3.976.023-1.574.046-3.2-.007-4.8-.015-.457-.036-.93-.056-1.388a26.615,26.615,0,0,1,.288-6.9.123.123,0,0,1,.123-.089.108.108,0,0,1,.1.06,18.314,18.314,0,0,1,1.312,4.163c1.528-1.933,3.178-3.993,4.894-5.964a.17.17,0,0,1,.129-.064.207.207,0,0,1,.168.1.2.2,0,0,1,.011.2c-1.482,2.907-3.117,5.758-4.7,8.516.124.753.253,1.532.4,2.295.218,1.115.457,2.24.688,3.329v0c.43,2.029.875,4.126,1.2,6.226,1.87,12.1,2.8,24.413,3.522,35.01.781,11.449.9,23.1,1.015,34.372l.009.874a2.593,2.593,0,0,1-.514,1.508,2.136,2.136,0,0,1-1.31.888A3.412,3.412,0,0,1,182.68,180.91ZM2.3,179.982a1.194,1.194,0,0,1-.95-.519l-.183-.245-.029-.038a4.323,4.323,0,0,1-1.095-2.255c-.056-.685-.046-1.394-.035-2.08,0-.3.009-.607.008-.909-.008-1.791.01-3.69.056-5.978.076-3.8.228-7.649.451-11.449.46-7.839,1.224-15.624,2.271-23.138.943-6.768,2.139-13.617,3.556-20.356,1.407-6.693,3.065-13.445,4.93-20.068,1.985-7.05,3.918-13.145,5.911-18.633a154.62,154.62,0,0,1,7.728-17.941c1.413-2.756,2.918-5.414,4.472-7.9,1.639-2.625,3.38-5.134,5.173-7.458a79.025,79.025,0,0,1,5.929-6.85,69.315,69.315,0,0,1,6.741-6.079,65.617,65.617,0,0,1,6.958-4.791,61,61,0,0,1,7.536-3.815,39.891,39.891,0,0,1,8.2-2.526,40.651,40.651,0,0,1,5.565-.5c.91-.04,1.85-.081,2.781-.154h.016a.143.143,0,0,1,.148.143.188.188,0,0,1-.164.2,33.742,33.742,0,0,0-7.785,2.228l-.008,0c-.431.161-.876.328-1.311.488l-.253.092a65.511,65.511,0,0,0-8.693,3.844A66.527,66.527,0,0,0,45.279,34.345a79.119,79.119,0,0,0-6.216,6.827,89.116,89.116,0,0,0-5.4,7.436C32.043,51.1,30.472,53.769,29,56.547c-1.394,2.624-2.749,5.428-4.027,8.334A171.741,171.741,0,0,0,18.49,82.3c-1.652,5.221-3.23,10.851-4.966,17.718-1.617,6.4-3.044,13.019-4.241,19.684-1.165,6.487-2.144,13.191-2.91,19.926-.747,6.568-1.282,13.249-1.59,19.859-.157,3.38-.258,6.814-.3,10.208-.019,1.576-.028,3.287-.026,5.231,0,.221.011.454.023.7a6.284,6.284,0,0,1-.093,1.881,5.006,5.006,0,0,1-.88,1.547c-.1.139-.2.27-.291.4A1.107,1.107,0,0,1,2.3,179.982Zm125.312-15.233c-.046,0-.095,0-.144,0l-.084-.005.05.007-.088-.01c-.083-.007-.167-.016-.248-.027l-.072-.008-.1-.011c-.037,0-.067,0-.1,0s-.045,0-.066,0c-.046,0-.094.007-.141.007a2.488,2.488,0,0,1-1.6-.727,2.4,2.4,0,0,1-.535-.8,1.99,1.99,0,0,1-.185-.941l.024-.236a2.691,2.691,0,0,1,.247-.956,2.908,2.908,0,0,1,.705-1.024,3.15,3.15,0,0,1,2.149-.875h.023a2.768,2.768,0,0,1,1.452.38l.569.44c.146.187.3.382.46.6a2.539,2.539,0,0,1,.329,1.766,2.072,2.072,0,0,1-.329,1.03l-.433.561a3.7,3.7,0,0,1-1.267.745A2.006,2.006,0,0,1,127.613,164.749Zm-.079-29.888a2.686,2.686,0,0,1-1.08-.22,2.82,2.82,0,0,1-1.3-1.072l-.05-.083c-.021-.033-.041-.069-.06-.1l-.028-.054a2.893,2.893,0,0,1,.434-3.366,2.555,2.555,0,0,1,1.917-.791,3.094,3.094,0,0,1,1.447.356,3.479,3.479,0,0,1,.567.414h0l.15.124a2.809,2.809,0,0,1,.826,2,2.526,2.526,0,0,1-.217,1.078,2.853,2.853,0,0,1-.609.917l-.119.116a2.3,2.3,0,0,1-1.126.61A4.2,4.2,0,0,1,127.534,134.86Zm-1.191-28.347a2.619,2.619,0,0,1-.7-.093,2.67,2.67,0,0,1-1.862-1.863l-.052-.361a3.18,3.18,0,0,1,.059-1.367,3.71,3.71,0,0,1,.326-.813,2.882,2.882,0,0,1,.754-.864,3.211,3.211,0,0,1,1.022-.521,2.24,2.24,0,0,1,.67-.105,2.2,2.2,0,0,1,.48.054,2.827,2.827,0,0,1,1.364.568,1.454,1.454,0,0,1,.518.517,2.181,2.181,0,0,1,.516.981l.1.767-.1.767-.291.689c-.094.122-.17.221-.242.312a3.223,3.223,0,0,1-1,.838A2.7,2.7,0,0,1,126.342,106.514Zm38.548-23.252a11.5,11.5,0,0,1-1.282-.1c-.268-.031-.544-.062-.812-.08-1.357-.091-2.746-.169-4.129-.231-2.871-.128-5.488-.2-8-.207l-1.28,0c-2.039,0-4.235.02-6.713.06-.756.012-1.535.041-2.289.069-1.016.038-2.066.077-3.1.077a27.39,27.39,0,0,1-2.839-.131.347.347,0,0,1-.321-.3.325.325,0,0,1,.233-.348,35.468,35.468,0,0,1,7.2-1.393l.852-.106c2.662-.337,5.438-.589,8.25-.752,3.009-.173,5.8-.266,8.518-.285.423,0,.854,0,1.279,0,.667,0,1.348,0,2.024.011l.826.011c.181,0,.357,0,.528,0a4.2,4.2,0,0,1,3.125.836,1.285,1.285,0,0,1,.446,1.068,1.78,1.78,0,0,1-.753,1.322A2.947,2.947,0,0,1,164.891,83.262Zm-38.822-6.605-.091,0a2.876,2.876,0,0,1-1.451-.393l-.582-.45a2.885,2.885,0,0,1-.739-1.269l-.1-.765a2.975,2.975,0,0,1,2.784-2.877l.091,0a2.862,2.862,0,0,1,1.361.342l.09.05.582.45a2.885,2.885,0,0,1,.739,1.269l.1.765a2.974,2.974,0,0,1-2.784,2.878Zm10.257-59.433h-.068a2.729,2.729,0,0,1-1.828-.775,4.646,4.646,0,0,1-1.068-1.755,16.437,16.437,0,0,1-.752-4.206,11.98,11.98,0,0,1,.3-3.725,10.258,10.258,0,0,1,1.495-3.415.815.815,0,0,1,.684-.4.956.956,0,0,1,.719.367.783.783,0,0,1,.178.654,28.419,28.419,0,0,0,.607,5.978,11.345,11.345,0,0,0,.914,2.651l.179.351c.564,1.115.971,2.134.237,3.316a2.137,2.137,0,0,1-.68.684A1.749,1.749,0,0,1,136.326,17.223Z" transform="translate(0 9.583)"/></g><g transform="translate(30.448 0)"><path d="M103.538,45.9c-.991-16.308-6.27-34.8-21.805-42.8C47.483-10.688,2.453,24.013.069,59.462-.762,71.6,5.958,84.857,18.24,88.231c2.731,3.627,6.86,5.842,10.936,7.764,48.546,25.25,79.9,4.724,74.362-50.1Z" transform="translate(31.644 16.558)" fill="#ffdbb4"/><path d="M146.241,52.309q-2.573-7.165-5.434-14.221a146.949,146.949,0,0,0-5.84-13.615C121.2-1.571,96.152-1.571,83.206,1.832c-6.713-2.9-19.288-2.082-26.278.535C45.612,6.6,31.816,23.266,27.1,30.753c-10.414,16.53-16.913,38.531-10,57.633a43.082,43.082,0,0,0,3.355,7.037,27.425,27.425,0,0,1-2.8,3.2,97.941,97.941,0,0,0-8.874,9.512,47.32,47.32,0,0,0-6.507,11.147c-3.1,7.617-3.244,16.242.848,23.509,3.56,6.324,9.868,11.033,16.973,11.482.365.051.73.1,1.1.135a20.584,20.584,0,0,0,3.4,4.234c4.014,3.828,13.584,5.792,19.042,5.917.28.225.562.451.845.674A60.973,60.973,0,0,0,55.16,172.4c2.6,1.272,6,2.333,8.711,1.416a4.718,4.718,0,0,0,4.464-.024,11.828,11.828,0,0,0,4.624-5.139c2.4-4.953,1.825-10.372,1.208-15.663-.68-5.844-1.334-11.691-2-17.535a72.544,72.544,0,0,0-2.45-13.618,31.329,31.329,0,0,0-2.869-6.534,1.076,1.076,0,0,0-.024-.509,6.227,6.227,0,0,0-2.192-2.855c-.126-.113-.251-.228-.374-.346a11.788,11.788,0,0,0-1.564-1.51c-.214-.218-.426-.438-.638-.658a53.3,53.3,0,0,1-4.9-5.873c-1.433-2.019-2.728-4.127-3.959-6.274-1.253-2.184-2.082-4.593-3.332-6.762a.342.342,0,0,0-.531-.068,1.708,1.708,0,0,0-.588,1.316l-.194.029a1.316,1.316,0,0,0-1.608-1.13,6.357,6.357,0,0,1-3.557-.123c.2-1.34.387-2.682.57-4.027.335-2.475.646-4.958.913-7.441a10.752,10.752,0,0,1,1.914.661,9.224,9.224,0,0,1,2.461,1.6c.711.655,1.2,1.539,2.071,2A1.319,1.319,0,0,0,53.23,81.86c-.594-2.289-3.954-3.6-6.033-4.032a9.6,9.6,0,0,0-2.173-.2q.247-2.391.432-4.785.086-1.133.16-2.268a11.857,11.857,0,0,1,5.029-.406c.554.443,1.109.881,1.645,1.324,1.7,1.411,3.4,2.829,5.071,4.274.152.128.3.257.452.388a1.249,1.249,0,0,0,2.066-1.206C58.513,65,64.591,57.091,71.707,50.962c7.877-6.788,22.2-7.578,31.566-19.336,4.314.88,13.947,3.495,17.922,9.845,5.565,8.9,4.838,16.871,5.262,26.965s1.5,20.639-.787,30.6c-2.111,9.184-7.825,17.031-16.69,20.639-.22.089-.442.176-.664.26a26.773,26.773,0,0,1-14.41,1.311c-5.338-1.012-9.794-3.461-14.235-6.473-.256-.17-.63.181-.437.438,5.853,7.776,17.35,10.374,26.469,8.322q.639-.146,1.271-.317A24.223,24.223,0,0,0,115,150.052c3.272,2.59,7.331,4.683,9.6,8.319,2.079,3.332,1.462,7.076-2.1,9a1.768,1.768,0,0,0-.353,2.756c.34.262.68.53,1.028.792,1.993,1.508,7.467,4.339,8.353,4.444,7.872.936,13.165-4.858,16.557-11.693,3.983-8.023,2.947-17.8-1.441-25.439-3.52-6.13-10.453-12.17-7.7-19.928a22.42,22.42,0,0,1,4.948-7.268c2.228-2.43,4.624-4.706,6.76-7.223a25.719,25.719,0,0,0,5.058-8.353c1.535-4.583.771-9.538-.382-14.113C152.868,71.524,149.659,61.834,146.241,52.309Z" transform="translate(0 0)"/></g><g transform="translate(108.237 54.05)"><path d="M28.313,50.289a9.98,9.98,0,0,1-3.786-.756,10.694,10.694,0,0,1-2.471-1.42,10.528,10.528,0,0,1-2.012-2.03,2.08,2.08,0,0,1-.419-1.609,2.321,2.321,0,0,1,.9-1.454,2.224,2.224,0,0,1,1.324-.461,1.92,1.92,0,0,1,.3.023,2.044,2.044,0,0,1,1.369.905l.081.112a7.065,7.065,0,0,0,2.588,2.173,5.874,5.874,0,0,0,2.567.6,5.686,5.686,0,0,0,.636-.036,6.683,6.683,0,0,0,2.826-.994,13.234,13.234,0,0,0,2.394-2c.171-.175.353-.365.588-.616a.931.931,0,0,1,.488-.376A1,1,0,0,1,36,42.3a1.081,1.081,0,0,1,.886.462.988.988,0,0,1,.167.65,5.97,5.97,0,0,1-.708,2.312,7.717,7.717,0,0,1-1.513,1.944,9.727,9.727,0,0,1-2.292,1.6A9.54,9.54,0,0,1,30,50.136,9.364,9.364,0,0,1,28.313,50.289Zm2.665-15.1h0a9.146,9.146,0,0,1-3.262-.658,16.475,16.475,0,0,1-3.837-2.178,1.475,1.475,0,0,1-.536-.852,1.765,1.765,0,0,1,.076-.957,2.176,2.176,0,0,1,.646-.934,1.572,1.572,0,0,1,1.007-.393,1.428,1.428,0,0,1,.779.239l.26.2,0,0a20.771,20.771,0,0,0,2.4,1.671,5.915,5.915,0,0,0,2.879.918,3.107,3.107,0,0,0,1.216-.239,3.4,3.4,0,0,0,1.133-.8,3.476,3.476,0,0,0,.659-2.8A5.285,5.285,0,0,0,33,25.93a10.223,10.223,0,0,0-2.122-1.714.658.658,0,0,1-.178-.757.988.988,0,0,1,.327-.471,1,1,0,0,1,.627-.207,1.334,1.334,0,0,1,.225.02,7.115,7.115,0,0,1,2.5.9,5.678,5.678,0,0,1,1.683,1.553,6.17,6.17,0,0,1,1.075,4.121,6.792,6.792,0,0,1-.55,2.163A6.311,6.311,0,0,1,35.347,33.4,5.928,5.928,0,0,1,30.978,35.192ZM9.75,20.45a2.139,2.139,0,0,1-1.389-.544,2.164,2.164,0,0,1-.728-1.4,15.762,15.762,0,0,1,.084-4.1c.049-.4.1-.811.136-1.256a2.456,2.456,0,0,1,.931-1.756,2.866,2.866,0,0,1,1.763-.62,2.173,2.173,0,0,1,1.333.42,1.978,1.978,0,0,1,.736,1.311,11.012,11.012,0,0,1-1.149,6.785,2.176,2.176,0,0,1-.767.888A1.77,1.77,0,0,1,9.75,20.45Zm31.161-.931a1.871,1.871,0,0,1-1.467-.629,5.736,5.736,0,0,1-.9-1.52,6.626,6.626,0,0,1-.456-1.832A3.884,3.884,0,0,1,39.149,12.2a2.2,2.2,0,0,1,.17-.259,2.4,2.4,0,0,1,1.845-1.062,2,2,0,0,1,.56.083,2.7,2.7,0,0,1,1.8,1.573,5.565,5.565,0,0,1,.223,3.043,10.189,10.189,0,0,1-.922,2.871,1.863,1.863,0,0,1-.8.788A2.415,2.415,0,0,1,40.91,19.519ZM.345,9.742a.339.339,0,0,1-.284-.174A.38.38,0,0,1,.039,9.2a12.932,12.932,0,0,1,2.9-3.67,17.921,17.921,0,0,1,3.88-2.651,16.679,16.679,0,0,1,4.607-1.608l.492-.086a11.983,11.983,0,0,1,2.01-.218,3.106,3.106,0,0,1,2.481.925,2.109,2.109,0,0,1,.5,1.5,1.372,1.372,0,0,1-.5.979,3.821,3.821,0,0,1-2.62.769c-.206,0-.42-.005-.626-.01h-.007c-.2,0-.424-.011-.647-.011-.206,0-.389,0-.561.015a17.707,17.707,0,0,0-3.9.665A26.493,26.493,0,0,0,.526,9.683.323.323,0,0,1,.345,9.742ZM47.79,7.757h0l-.207-.052a11.733,11.733,0,0,1-2.275-.888l-.739-.364A20.515,20.515,0,0,0,41.93,5.328,31.123,31.123,0,0,0,35.921,4a2.455,2.455,0,0,1-1.206-.458,1.807,1.807,0,0,1-.674-1.027,1.839,1.839,0,0,1,.208-1.54A1.961,1.961,0,0,1,35.2.155,2.139,2.139,0,0,1,36.011,0a2.389,2.389,0,0,1,.468.047l.376.077a26.889,26.889,0,0,1,6.491,2.109A13.124,13.124,0,0,1,46.2,4.111,8.335,8.335,0,0,1,48.22,6.72c.071.545.005.68-.068.771l-.021.026-.018.025a.522.522,0,0,1-.322.214Z"/></g></g><g transform="translate(-1808.196 1079.444)"><path d="M74.482,13.53c-.393-6.2-6.68-8.823-9.811-9.6C54.245.881,45.374,8.7,32.942,8.859a27.674,27.674,0,0,1-6.512-.787C17.964,5.681,9.506,3.137,1.2,0-.022.356-.383,2.337.455,3.467c7.956,3.508,20.129,6.649,26.557,7.007-.123,10.323-4.507,20.7-10.56,26.413,9.628,13.236,32.082,17.589,45.3,10.642,6.5-2.425,13.36-24.136,12.734-34" transform="translate(0.719 0.836)" fill="#fff"/><path d="M51.076,55.165h0l-3.292-.3c-5.582-.511-11.482-1.179-16.868-3.2a31.019,31.019,0,0,1-3.929-1.786,26.707,26.707,0,0,1-3.671-2.4,25.631,25.631,0,0,1-3.34-3.136,27.771,27.771,0,0,1-2.937-3.979l-.056.06a2.389,2.389,0,0,1-.8-1.749,2.93,2.93,0,0,1,.7-2.1l.027.053c.013-.026.028-.052.041-.077l.014-.026-.012-.046a16.494,16.494,0,0,1,1.121-1.279l0,.008a30,30,0,0,0,3.7-4.719,34.368,34.368,0,0,0,2.853-5.557A36.361,36.361,0,0,0,26.5,18.773a35.789,35.789,0,0,0,.757-6.509,1.09,1.09,0,0,1-.322.034c-1.7,0-8.4-1.52-14.626-3.319-3.428-.99-6.352-1.959-8.455-2.8C1.362,5.181.066,4.385,0,3.813c-.028-.251.188-.46.641-.62a111.616,111.616,0,0,0,11.694,4.25.143.143,0,0,1,.081-.026.124.124,0,0,1,.117.084,94.861,94.861,0,0,0,14.727,3.013c-.005-.279-.014-.575-.026-.882C23.26,8.669,18.982,7.413,14.159,5.79,9.825,4.332,5.578,2.762,1.247,1.148c-.107-.005-.172-.128-.169-.32C1.083.494,1.3,0,1.751,0A.686.686,0,0,1,1.9.018C4.72.837,7.683,1.842,10.819,2.907c4.161,1.412,8.464,2.872,12.712,3.984,2.3.6,4.356,1.044,6.294,1.353a38.055,38.055,0,0,0,6.023.519h.117a23.65,23.65,0,0,0,5.619-.992c1.841-.533,3.688-1.229,5.474-1.9,1.886-.711,3.836-1.445,5.782-1.989a22.4,22.4,0,0,1,5.952-.918,39.355,39.355,0,0,1,4.192.3,24.391,24.391,0,0,1,4.317.941,16.006,16.006,0,0,1,4.017,1.912,12.583,12.583,0,0,1,3.294,3.216,43.073,43.073,0,0,1,.6,17.048,48.5,48.5,0,0,1-2.089,8.4,42.942,42.942,0,0,1-3.475,7.606,34.013,34.013,0,0,1-3.664,5.143,25.818,25.818,0,0,1-4.369,4.025,19.789,19.789,0,0,1-5,2.634A17.2,17.2,0,0,1,51.076,55.165ZM28.018,9.8a27.425,27.425,0,0,1,.255,7.661,33.447,33.447,0,0,1-1.677,7.48,37.032,37.032,0,0,1-3.167,6.822,33.786,33.786,0,0,1-4.214,5.687,67.675,67.675,0,0,0,5.925,5.783,26.043,26.043,0,0,0,5.239,3.509c3.512,1.742,7.364,2.5,13.245,3.28l1.524.226a56.259,56.259,0,0,0,6.9.7A16.893,16.893,0,0,0,60.375,47.7a24.9,24.9,0,0,0,3.612-3.18,32.363,32.363,0,0,0,3.172-3.97,39.651,39.651,0,0,0,2.676-4.574,44.682,44.682,0,0,0,2.125-4.994,45.768,45.768,0,0,0,1.518-5.228,42.477,42.477,0,0,0,.855-5.277l.007-.386a45.951,45.951,0,0,0-.171-5.386,19.651,19.651,0,0,0-1.164-5.163A1.081,1.081,0,0,1,72.453,9a31.275,31.275,0,0,0-3.438-1.881,24.551,24.551,0,0,0-3.234-1.24,20.386,20.386,0,0,0-5.971-.892,22.344,22.344,0,0,0-3.189.234,29.615,29.615,0,0,0-3.083.618c-2.029.512-4.06,1.212-6.024,1.889l-.226.078C45.4,8.46,43.251,9.2,41.027,9.746a28.122,28.122,0,0,1-6.763.881A24.142,24.142,0,0,1,28.018,9.8ZM39.694,23.189A11.887,11.887,0,0,1,37.1,22.9a13.491,13.491,0,0,1-2.545-.852.191.191,0,0,1-.085-.2c.008-.054.038-.112.1-.112h.017a13.61,13.61,0,0,0,1.985.145,14.675,14.675,0,0,0,4.712-.79,11.774,11.774,0,0,0,3.49-1.752A15.925,15.925,0,0,1,47.342,17.9a.623.623,0,0,1,.168-.023.855.855,0,0,1,.736.548,1.023,1.023,0,0,1-.031.887,6.149,6.149,0,0,1-2.886,2.606A13.477,13.477,0,0,1,41.778,23,12.054,12.054,0,0,1,39.694,23.189ZM72.107,21.26a6.961,6.961,0,0,1-2.246-.405,10.079,10.079,0,0,1-2.227-1.1,10.7,10.7,0,0,1-1.945-1.62,8.293,8.293,0,0,1-1.4-1.965.1.1,0,0,1,.017-.064.1.1,0,0,1,.083-.031,6.491,6.491,0,0,1,1.726.968c.111.076.2.136.246.165a8.907,8.907,0,0,0,2.57,1.3,24.342,24.342,0,0,0,2.714.674c.619.129,1.259.261,1.88.426a.817.817,0,0,1,0,1.431A4.519,4.519,0,0,1,72.107,21.26Z" transform="translate(0)"/></g></g></g></svg>