<svg xmlns="http://www.w3.org/2000/svg" xmlns:xlink="http://www.w3.org/1999/xlink" width="300" height="300" viewBox="0 0 300 300"><defs><clipPath id="b"><rect width="300" height="300"/></clipPath></defs><g id="a" clip-path="url(#b)"><circle cx="150" cy="150" r="150" fill="#fff" opacity="0"/><g transform="translate(87.2 17.689)"><g transform="translate(-57.2 11.311)"><g transform="translate(0 134.094)"><rect width="70.242" height="86.532" transform="translate(134.042 90.521)" fill="#fdea6b"/><path d="M42.376,219.99h0a2.323,2.323,0,0,1-1.822-.8,3.025,3.025,0,0,1-.613-2.4c.311-2.064.613-4.162.905-6.192v-.011c.161-1.119.328-2.277.494-3.415a76.429,76.429,0,0,1-19.445,2.674,60.18,60.18,0,0,1-8.289-.563,53.644,53.644,0,0,1-8.154-1.786c-.128-.13-.175-.236-.142-.316.058-.139.352-.2.923-.2.214,0,.437.008.666.018l.053,0c.2.008.382.016.533.016a1.237,1.237,0,0,0,.3-.024,16.022,16.022,0,0,1-5.243-5.9A19.553,19.553,0,0,1,1.12,197.5a26.394,26.394,0,0,1-.8-3.877,45.827,45.827,0,0,1-.245-8.232c.134-2.784.423-5.541.7-8.208v0c.155-1.474.3-2.865.416-4.214.981-6.332,1.876-12.909,2.74-19.269v-.005c2.208-16.242,4.492-33.038,8.592-49.027,1.059-4.13,2.219-8.116,3.447-11.847,1.316-4,2.763-7.867,4.3-11.5,1.63-3.845,3.421-7.563,5.324-11.051A110.572,110.572,0,0,1,32.115,59.76a75.789,75.789,0,0,1,8.259-9.385,69.249,69.249,0,0,1,9.761-7.839,60.467,60.467,0,0,1,11.033-5.786,53.178,53.178,0,0,1,12.075-3.228l.463-.063c.8-.107,1.633-.2,2.438-.3,4.22-.491,8.582-1,12.15-3.22a26.947,26.947,0,0,0,4.665-5.31A26.545,26.545,0,0,1,96.223,20.7a7.3,7.3,0,0,1,1.832-1.256,5.128,5.128,0,0,1,2.132-.488h.026a4.072,4.072,0,0,1,1.891.62c.688.377,1.424.885,2.2,1.423.729.5,1.481,1.023,2.255,1.477a17.268,17.268,0,0,1,1.284-5.018,17.358,17.358,0,0,0,.971-3.237l.03-.209c.075-.543.116-1.081.156-1.6.171-2.227.332-4.329,3.016-6.531a21.046,21.046,0,0,1,4.211-2.412,36.806,36.806,0,0,1,5.342-1.857A47.579,47.579,0,0,1,127.561.422,46.424,46.424,0,0,1,133.71,0a33.006,33.006,0,0,1,7.226.733,16.575,16.575,0,0,1,5.746,2.342,19.555,19.555,0,0,1,3.712,3.363,22.661,22.661,0,0,1,2.659,3.9,56.75,56.75,0,0,1,3.6,8.791c.782,2.255,1.591,4.587,2.6,6.842a6.15,6.15,0,0,1,2.64-.542,9.879,9.879,0,0,1,4.76,1.311,7.831,7.831,0,0,1,1.844,1.434,4.668,4.668,0,0,1,1.077,1.77c.736.9,1.063,2.743,1.379,4.529v0a17.428,17.428,0,0,0,.809,3.387c2.334.372,4.6.843,6.731,1.4a58.068,58.068,0,0,1,6.023,1.923,49.7,49.7,0,0,1,5.361,2.417,44.677,44.677,0,0,1,4.744,2.882A42.548,42.548,0,0,1,198.8,49.8a43.053,43.053,0,0,1,3.647,3.727,46.166,46.166,0,0,1,3.166,4.106,52.049,52.049,0,0,1,2.73,4.457,66.292,66.292,0,0,1,4.335,9.852,103.317,103.317,0,0,1,3.136,10.912c1.685,7.208,2.868,14.844,4.125,24.091,1.679,9.475,3.992,19.112,6.23,28.431v0h0c1.451,6.046,2.952,12.3,4.271,18.464,1.479,6.918,2.566,12.987,3.321,18.552a145.792,145.792,0,0,1,1.411,18.679c.023,3.192-.081,6.354-.311,9.4-.241,3.2-.627,6.374-1.149,9.447a19.986,19.986,0,0,1,1.949,3.5,3.452,3.452,0,0,1,.466,1.857,3.887,3.887,0,0,1-.514,1.8,3.371,3.371,0,0,1-2.917,1.777h0c-.05,0-.1,0-.151,0-1-.088-2.006-.186-2.982-.281h0c-2.479-.241-5.043-.49-7.588-.585-5.165-.179-10.726-.267-17-.267-3.659,0-7.635.029-12.512.091l-1.341.018c-19.9.248-40.132.6-59.7.936C102.233,219.275,72.058,219.8,42.376,219.99ZM151.014,108.829h0c-.68,2.933.417,5.319,1.577,7.845a27.034,27.034,0,0,1,1.629,4.145,13.694,13.694,0,0,1,.078,3.931c-.038.559-.074,1.087-.078,1.516a7.651,7.651,0,0,0,.917,2.6,5.839,5.839,0,0,1,.911,3.31,29.582,29.582,0,0,1-2.8,7.262,34.3,34.3,0,0,0-2.53,6.148,10.847,10.847,0,0,0-.38,3.055,8.122,8.122,0,0,0,.674,3.047c1.84,3.622,7.386,5.478,11.056,6.706l.019.006a16.184,16.184,0,0,0,3.22.844,22.77,22.77,0,0,0,3.6.274,29.351,29.351,0,0,0,10.715-2.08,21.668,21.668,0,0,0,4.559-2.462,13.2,13.2,0,0,0,3.287-3.288c1.482-2.2,3.137-6.582,4.468-10.1.818-2.163,1.525-4.031,2.052-5.061l.313-4.371c.364-5.132.751-10.99.722-15.56-.032-5.077-.566-7.9-1.633-8.646a25.637,25.637,0,0,0-10.113-3.629,72.394,72.394,0,0,0-12.319-.934c-4.619,0-8.672.31-11.26.569a34.138,34.138,0,0,0-5.066.729c-.369.243-.681.426-.956.588a4.228,4.228,0,0,0-1.775,1.588c-.732.1-1.478.2-2.218.3-.492.161-.749.494-.686.89a1.008,1.008,0,0,0,.407.626,1.461,1.461,0,0,0,.891.28,2.015,2.015,0,0,0,.715-.138Z" transform="translate(1.535)" fill="#ffdbb4"/><path d="M42.372,201.011a2.323,2.323,0,0,1-1.822-.8,3.025,3.025,0,0,1-.613-2.4c.312-2.069.614-4.166.906-6.2l.007-.05c.159-1.106.324-2.249.488-3.374a76.431,76.431,0,0,1-19.445,2.674A60.182,60.182,0,0,1,13.6,190.3a53.642,53.642,0,0,1-8.154-1.786c-.128-.13-.175-.236-.142-.316.058-.139.352-.2.923-.2.214,0,.437.008.666.018l.053,0c.2.008.383.016.533.016a1.237,1.237,0,0,0,.3-.024,16.022,16.022,0,0,1-5.243-5.9,19.553,19.553,0,0,1-1.426-3.585,26.391,26.391,0,0,1-.8-3.877,45.827,45.827,0,0,1-.245-8.232c.134-2.784.423-5.541.7-8.208.155-1.474.3-2.867.416-4.219.981-6.332,1.876-12.909,2.74-19.269v-.005c2.208-16.242,4.492-33.038,8.592-49.027,1.059-4.13,2.219-8.116,3.447-11.847,1.316-4,2.763-7.867,4.3-11.5C21.905,58.5,23.7,54.782,25.6,51.294a110.571,110.571,0,0,1,6.515-10.513A75.789,75.789,0,0,1,40.374,31.4a69.249,69.249,0,0,1,9.761-7.839A60.467,60.467,0,0,1,61.167,17.77a53.178,53.178,0,0,1,12.075-3.228l.463-.063.466-.061c.651-.083,1.322-.161,1.972-.237,4.219-.491,8.582-1,12.149-3.22a26.949,26.949,0,0,0,4.664-5.31,28.046,28.046,0,0,1,3.118-3.791A7.808,7.808,0,0,1,97.8.592,5.2,5.2,0,0,1,99.793,0l3.045,1.869,17.686,8.746a13.9,13.9,0,0,1,3.857,1.584,2.374,2.374,0,0,1,1.286,1.869V27.729c0,.91.812,2.416,2.413,4.478a92.747,92.747,0,0,0,7.239,7.951l5.945-5.929-.133-.776a50.774,50.774,0,0,1-.849-6.712c0-.3.367-.823,1.091-1.549a39.976,39.976,0,0,1,3.272-2.823c2.895-2.3,7.3-5.482,13.086-9.469l5.089-4.793-.543-1.651a9.468,9.468,0,0,1,2.357.426,9.986,9.986,0,0,1,2.184.974,5.956,5.956,0,0,1,2.756,3.106c.736.9,1.063,2.743,1.379,4.529v0a17.428,17.428,0,0,0,.809,3.387c2.334.372,4.6.843,6.731,1.4a58.068,58.068,0,0,1,6.023,1.923,49.7,49.7,0,0,1,5.361,2.417,44.677,44.677,0,0,1,4.744,2.882,42.548,42.548,0,0,1,4.173,3.319,43.052,43.052,0,0,1,3.647,3.727,46.165,46.165,0,0,1,3.166,4.106,52.049,52.049,0,0,1,2.73,4.457,66.292,66.292,0,0,1,4.335,9.852,103.317,103.317,0,0,1,3.136,10.912c1.685,7.208,2.868,14.844,4.125,24.091,1.679,9.475,3.992,19.112,6.23,28.431v0h0c1.451,6.046,2.952,12.3,4.271,18.464,1.479,6.918,2.566,12.987,3.321,18.552a145.792,145.792,0,0,1,1.411,18.679c.023,3.192-.081,6.354-.311,9.4-.241,3.2-.627,6.374-1.149,9.446a19.983,19.983,0,0,1,1.949,3.5,3.452,3.452,0,0,1,.466,1.857,3.887,3.887,0,0,1-.514,1.8,3.371,3.371,0,0,1-2.917,1.777h0c-.049,0-.1,0-.151,0-.993-.087-2-.185-2.974-.28h-.008c-2.481-.241-5.046-.49-7.592-.585-5.166-.179-10.728-.267-17-.267-3.658,0-7.634.029-12.512.091l-1.341.018c-19.9.248-40.125.6-59.688.936h-.007c-29.182.5-59.357,1.027-89.039,1.22Zm50.436-80.945-2.461,17.86,5.918,12.753,13.405-4.517,21.842-5.759,12.534-12.721,7.07-2.374a13.017,13.017,0,0,0-.773,3.71,8.232,8.232,0,0,0,.67,3.7c1.84,3.622,7.386,5.478,11.056,6.706l.019.006a16.187,16.187,0,0,0,3.22.844,22.771,22.771,0,0,0,3.6.274,29.353,29.353,0,0,0,10.715-2.08A21.67,21.67,0,0,0,184.183,136a13.2,13.2,0,0,0,3.287-3.287c1.482-2.2,3.137-6.582,4.468-10.1.818-2.163,1.525-4.03,2.052-5.061l.4-5.678c.359-5.157.683-10.517.625-14.786-.065-4.743-.6-7.4-1.628-8.113a25.637,25.637,0,0,0-10.113-3.629,72.393,72.393,0,0,0-12.319-.934c-4.619,0-8.672.31-11.26.569a34.138,34.138,0,0,0-5.066.729c-.369.243-.681.426-.956.588a4.228,4.228,0,0,0-1.775,1.588l-.388.052,2.181-2.96-.772-.413c-2.743-1.455-5.038-2.562-6.822-3.289a12.093,12.093,0,0,0-3.932-1.1c-.863,0-2.2.68-3.965,2.021a69.213,69.213,0,0,0-6.692,6.063l-.473.219a84.127,84.127,0,0,0-8.094,4.225,24.012,24.012,0,0,0-4.808,3.625l-.075.08c-2.122,2.277-6.381,8.416-12.66,18.245l-9.136,5.405Zm61.246-18.783-3.3-6.325V89.932a2.241,2.241,0,0,0,.262-.082c-.68,2.933.417,5.32,1.577,7.846a30.578,30.578,0,0,1,1.464,3.587Z" transform="translate(1.535 18.979)" fill="#9ddadb"/><path d="M44.5,210.957a2.23,2.23,0,0,1-1.032-.253l-.075-.041-.125-.072a2.5,2.5,0,0,1-1.005-1.169,2.072,2.072,0,0,1-.092-1.528,34.381,34.381,0,0,0,1.092-3.916c.27-1.141.549-2.32.928-3.449l-.643.287-.847.37a83.772,83.772,0,0,1-10.642,3.9,40.892,40.892,0,0,1-11.115,1.678,28.994,28.994,0,0,1-7.572-.979,19.86,19.86,0,0,1-6.2-2.823,14.424,14.424,0,0,1-4.545-5.016,20.348,20.348,0,0,1-2.069-6.462,51.143,51.143,0,0,1-.526-6.8,106.592,106.592,0,0,1,.889-16.728A101.624,101.624,0,0,1,2.93,156.816a2.753,2.753,0,0,1-.911-1.756,32.507,32.507,0,0,1,.507-8.645v-.008c.1-.647.195-1.316.282-1.967.482-3.613.98-6.941,1.522-10.174,1.179-7.038,2.532-13.9,4.022-20.4,1.356-5.913,2.963-11.92,4.777-17.852,1.773-5.8,3.791-11.681,6-17.48l.384-1c2.281-5.932,4.472-11.008,6.7-15.519a107.784,107.784,0,0,1,8.559-14.56A65.7,65.7,0,0,1,39.7,41.18a37.614,37.614,0,0,1,5.9-5.349,51.073,51.073,0,0,1,13.6-6.783,73.85,73.85,0,0,1,7.318-2.077c2.4-.551,4.916-1.007,7.484-1.357.761-.1,1.541-.2,2.3-.3,4.389-.559,8.928-1.136,12.991-2.923a2.232,2.232,0,0,1-.142-1.762,2.729,2.729,0,0,1,1.073-1.454,76.361,76.361,0,0,0,8.442-6.844c.393-.351.8-.714,1.2-1.071a.886.886,0,0,1,.592-.235.9.9,0,0,1,.758.431.836.836,0,0,1,0,.85A34.652,34.652,0,0,1,97.689,17.9c-.877,1.087-1.813,2.109-2.695,3.051a51.883,51.883,0,0,1,6.226,6.862l.118.146c.6.741,1.192,1.5,1.768,2.233a79.855,79.855,0,0,0,5.788,6.825,24.813,24.813,0,0,0,4.349,3.545A24.265,24.265,0,0,0,118.28,43l.736.256a29.2,29.2,0,0,1,5.419,2.427,11.913,11.913,0,0,1,4.221,4.064.759.759,0,0,1,0,.782.842.842,0,0,1-.71.436.737.737,0,0,1-.393-.115,27.451,27.451,0,0,0-7.383-2.81c-1.429-.391-2.907-.795-4.322-1.327a27.836,27.836,0,0,1-5.307-2.68,31.4,31.4,0,0,1-4.657-3.705A80.016,80.016,0,0,1,99.3,32.876l-.01-.013c-.419-.517-.853-1.051-1.282-1.574a67.981,67.981,0,0,0-8.186-8.268,31.349,31.349,0,0,1-7.293,3.536c-2.461.856-5.009,1.508-7.845,2.211l-.581.144c-3.106.769-5.628,1.471-7.936,2.208a67.233,67.233,0,0,0-7.689,2.942,62.564,62.564,0,0,0-6.471,3.394A37.1,37.1,0,0,0,46.153,41.8c-3.924,3.6-6.956,8.256-9.49,12.335A118.884,118.884,0,0,0,28.746,69.4c-2.025,4.635-3.989,9.738-6.181,16.061-1.937,5.588-3.749,11.331-5.384,17.07-1.622,5.691-3.114,11.526-4.432,17.342-1.3,5.723-2.386,11.573-3.328,17.883-.426,2.856-.813,5.781-1.151,8.692-.087.751-.159,1.521-.229,2.265v.006a33.18,33.18,0,0,1-1.163,7,2.593,2.593,0,0,1-.91,1.343,2.19,2.19,0,0,1-1.31.422l-.113,0-.2,2.449c-.25,3.139-.5,6.483-.583,9.814-.148,5.972-.044,11.323.319,16.357l.055.743a30.048,30.048,0,0,0,.989,6.079,11.8,11.8,0,0,0,3,5.28,13.328,13.328,0,0,0,5.611,3.12,23.8,23.8,0,0,0,6.419.9l.394,0a34.928,34.928,0,0,0,6.818-.709,50.45,50.45,0,0,0,6.663-1.849,132.039,132.039,0,0,0,12.738-5.443l1.063-.5c4.352-2.039,8.763-4.247,13.11-6.56,4.233-2.253,8.531-4.674,12.773-7.195s8.51-5.168,12.7-7.88c2.035-1.317,4.092-2.681,6.113-4.052.4-.274.806-.561,1.194-.839h0c.724-.517,1.472-1.051,2.24-1.506a1.9,1.9,0,0,1-.574-.986,1.49,1.49,0,0,1,.222-1.137,11.621,11.621,0,0,1-2.2-2.6A16.38,16.38,0,0,1,91.9,157.8a22.888,22.888,0,0,1-1.281-6.752,56.048,56.048,0,0,1,.6-8.876l0-.015c.056-.465.115-.946.17-1.418.208-1.776.465-3.53.711-5.16.043-.285.08-.568.12-.869.054-.409.11-.833.18-1.25-4.552,2.5-9.263,4.919-14,7.182-4.675,2.233-9.514,4.383-14.383,6.39-4.818,1.986-9.769,3.814-15.135,5.589l-1.036.341c-2.933.961-5.2,1.655-7.345,2.251-2.709.752-5.151,1.322-7.468,1.741a.255.255,0,0,1-.045,0,.3.3,0,0,1-.284-.239.2.2,0,0,1,.13-.239c3.239-1.43,6.607-2.732,9.863-3.991,1.649-.638,3.354-1.3,5.021-1.965l.814-.332a1.631,1.631,0,0,1-.292-.042c-2.056-.5-4.127-1.192-6.13-1.864l-.005,0c-.822-.276-1.671-.561-2.5-.827s-1.711-.5-2.562-.736a28.246,28.246,0,0,1-5.526-1.915.173.173,0,0,1-.1-.2.225.225,0,0,1,.2-.179c.278-.019.57-.029.867-.029a30.5,30.5,0,0,1,5.781.767c.647.128,1.259.249,1.87.356l1.023.179c1.568.277,3.391.609,5.173,1.052a2.187,2.187,0,0,1,.835-1.482c4.157-3.079,4.505-8.76,4.813-13.771v0c.063-1.027.123-2,.213-2.925l.4-4.095c.673-6.912,1.424-14.262,2.556-21.445a.273.273,0,0,1,.286-.238.35.35,0,0,1,.364.326c.04,6.041-.265,12.165-.56,18.088-.136,2.722-.276,5.536-.381,8.309l-.052,1.444-.008.228c-.181,5.361-.369,10.9-3.741,15.025a1.388,1.388,0,0,1,.689-.191,1.054,1.054,0,0,1,.823.373,2.821,2.821,0,0,1,.742,1.828c2.976-1.248,6.081-2.588,9.229-3.983,4.835-2.143,9.749-4.471,14.605-6.919,4.725-2.382,9.523-4.942,14.259-7.609a1.79,1.79,0,0,1,2.469.628l.072-.01.037,0,.072,0h.008a2.835,2.835,0,0,1,1.383-.338,4.344,4.344,0,0,1,2.871,1.188c.027.026.053.055.075.081l.017.019a15.221,15.221,0,0,0,3.99-2.617,32.057,32.057,0,0,0,3.461-3.718c.972-1.21,1.944-2.559,2.973-4.124.842-1.282,1.666-2.622,2.463-3.919,1.21-1.967,2.46-4,3.815-5.9a34.179,34.179,0,0,1,4.55-5.3,27.323,27.323,0,0,1,6.155-4.256,37.512,37.512,0,0,1,6.993-2.682.477.477,0,0,1,.131-.392.674.674,0,0,1,.463-.264.659.659,0,0,1,.283.076.115.115,0,0,1,.051.048l.471-.806c.343-.582.538-.9.613-.993.544-.686,1.112-1.375,1.686-2.047a14.542,14.542,0,0,1,3.36-3.046,6.36,6.36,0,0,1,3.428-.948,17.21,17.21,0,0,1,5.176,1.13l.039.013c1.136.371,2.289.757,3.4,1.13l.03.01,1.788.6.179.059.336.106a9.344,9.344,0,0,1,1.787.7,2.722,2.722,0,0,1,1.433,3.012,58.712,58.712,0,0,1,14.45-1.721,75.486,75.486,0,0,1,12.006,1,87.507,87.507,0,0,1,11.588,2.71,1.456,1.456,0,0,1,1.02,1.02,87.865,87.865,0,0,1,1.435,10.711,69.9,69.9,0,0,1-.066,10.8,61.041,61.041,0,0,1-1.482,9.183,49.637,49.637,0,0,1-3.022,8.79l-.147.321a38.5,38.5,0,0,1-4.8,8.06,19.1,19.1,0,0,1-3.342,3.3,12.273,12.273,0,0,1-4.048,2.051,17.365,17.365,0,0,1-4.761.565c-1.394,0-2.811-.1-4.182-.2-.719-.051-1.463-.1-2.181-.14-.793-.04-1.6-.073-2.388-.1h0a71.208,71.208,0,0,1-8.236-.654,13.127,13.127,0,0,1-4.326-1.446,10.966,10.966,0,0,1-3.434-2.974,21.414,21.414,0,0,1-3.248-7.448c-.377.12-.686.228-.973.341a10.7,10.7,0,0,0-3.533,2.384c-.99.959-1.894,2.028-2.768,3.062a34.513,34.513,0,0,1-3.4,3.651,26.122,26.122,0,0,1-6.963,4.348,45.613,45.613,0,0,1-6.629,2.221c-2.253.587-4.577,1.067-6.824,1.531l-.019,0c-.967.2-1.967.406-2.949.619l-.387.084c-1.747.384-4.036.916-6.248,1.637a29.366,29.366,0,0,0-5.88,2.581,2.513,2.513,0,0,1-.831,1.638,2.092,2.092,0,0,1,.635,1.132,1.879,1.879,0,0,1-.281,1.354c-1.335,2.119-3.5,3.487-5.585,4.809l0,0c-.4.256-.823.521-1.226.785l-.161.106c-2.417,1.6-4.888,3.2-7.346,4.735-4.814,3.016-9.832,5.945-15.341,8.955-4.277,2.338-8.54,4.572-12.67,6.64-4.352,2.18-8.7,4.248-12.92,6.146a28.726,28.726,0,0,1,.43,4.287,35.187,35.187,0,0,0,.293,3.514l.06.369a2.508,2.508,0,0,1-.719,2.389l-.07.064v-.009l-.062.057-.021.017.007-.006a2.231,2.231,0,0,1-.235.19l-.1.066A2.066,2.066,0,0,1,44.5,210.957Zm49.855-76.9c0,.213,0,.432,0,.625,0,.314,0,.61.01.905.035,1.34.053,2.769.053,4.246,0,1.07-.021,2.158-.041,3.21-.036,1.864-.073,3.791.006,5.683a25.347,25.347,0,0,0,.438,3.954,13.424,13.424,0,0,0,1.3,3.746,10.087,10.087,0,0,0,1.6,2.208,15.07,15.07,0,0,0,2.01,1.733,32.651,32.651,0,0,1,5.726-2.727,55.2,55.2,0,0,1,6.126-1.831c1.637-.4,3.315-.76,4.937-1.109h0a92.378,92.378,0,0,0,10.119-2.584,26.615,26.615,0,0,0,6.684-3.258,27.978,27.978,0,0,0,5.143-5.044l.018-.021.4-.469.268-.309A18.137,18.137,0,0,1,145.294,138a18.848,18.848,0,0,1,2.651-.853,11.564,11.564,0,0,0,4.148-1.7,3.706,3.706,0,0,0,1.152-2.923l.006-.066a5.71,5.71,0,0,1-.815.054,14.78,14.78,0,0,1-2.03-.19h0c-.262-.037-.533-.075-.8-.106l-.616-.072a25,25,0,0,1-3.328-.567.218.218,0,0,1,0-.416,27.693,27.693,0,0,1,3.783-.62l.162-.019.315-.039.464-.063h0a14.961,14.961,0,0,1,2.031-.188,5.336,5.336,0,0,1,1.179.12,10.059,10.059,0,0,1,.954-2.365c.184-.33.414-.67.658-1.028a6.359,6.359,0,0,0,1.253-2.576,2.078,2.078,0,0,0-.222-1.167l-.062-.115a.97.97,0,0,0-.3-.356.252.252,0,0,1-.112.057,1.8,1.8,0,0,1-2.138-.851,33.842,33.842,0,0,1-3.664.181c-.626.008-1.217.016-1.788.042l-1.706.083c-.562.026-1.3.055-2.04.055a16.051,16.051,0,0,1-3.4-.3.3.3,0,0,1-.218-.276.26.26,0,0,1,.146-.276,24.6,24.6,0,0,1,6.012-1.4c.3-.044.608-.09.9-.135.838-.129,1.694-.239,2.522-.345l.021,0c.409-.053.833-.107,1.248-.163.269-.036.55-.081.821-.125h0a16.958,16.958,0,0,1,1.782-.221,5.046,5.046,0,0,0,1.037-2.294,5.625,5.625,0,0,0-.111-2.442,5.482,5.482,0,0,0-1.072-2.083,4.6,4.6,0,0,0-1.887-1.366,3.35,3.35,0,0,1-1.394.276,9.966,9.966,0,0,1-1.192-.1h0c-.233-.028-.475-.057-.724-.079-1.345-.115-2.459-.169-3.5-.169H145.3a30.076,30.076,0,0,0-3.012.221,29.665,29.665,0,0,1-3.11.223,11.282,11.282,0,0,1-1.291-.069.641.641,0,0,1-.514-.435.407.407,0,0,1,.148-.449,9.08,9.08,0,0,1,3.224-1.6,24.483,24.483,0,0,1,3.6-.714l.485-.065c.212-.028.439-.059.658-.09.63-.088,1.342-.187,2.068-.252a1.553,1.553,0,0,1,1.227-.848c.162-.022.327-.036.486-.05l.053,0,0-.018a1.085,1.085,0,0,0,.9-.545,3.838,3.838,0,0,0,.1-2.963,3.373,3.373,0,0,0-2.193-1.828,10.052,10.052,0,0,0-3.131-.417c-.462,0-.939.018-1.5.056a44.792,44.792,0,0,0-8.1,1.3,35.474,35.474,0,0,0-7.665,2.888,23.721,23.721,0,0,0-6.3,4.881,44.36,44.36,0,0,0-4.842,6.37l-.138.214c-.474.737-.956,1.514-1.422,2.265l0,0c-1.2,1.94-2.447,3.946-3.857,5.782a21.558,21.558,0,0,1-4.866,4.789,22.892,22.892,0,0,1-7.754,3.616,1.422,1.422,0,0,1-.906.7l-.189.043a11.8,11.8,0,0,1-2.4.288A6.4,6.4,0,0,1,94.356,134.054ZM49.689,149.609a1.205,1.205,0,0,1-.085.115l-.047.054.242-.1ZM165.474,97.326c-2.72,0-5.49.073-8.094.148a4.414,4.414,0,0,1-1.507,2.119,4.145,4.145,0,0,1-2.39.941,7.011,7.011,0,0,1,1.1,3.362,7.409,7.409,0,0,1-.573,3.453,9.2,9.2,0,0,1,2.676,1.627,8.559,8.559,0,0,1,1.978,2.535,8.861,8.861,0,0,1,.768,2.113,8.643,8.643,0,0,1,.2,2.151,9.176,9.176,0,0,1-1.14,4.107,5.557,5.557,0,0,1,1.388,2.031,5.938,5.938,0,0,1,.44,2.462,9.483,9.483,0,0,1-1.767,4.414c-.108.176-.219.358-.325.536a9.646,9.646,0,0,0-1.174,3.955c-.046.323-.093.657-.15,1a6.334,6.334,0,0,1-1.6,3.32,8.873,8.873,0,0,1-3.025,2.058l.125.492a24.925,24.925,0,0,0,1.124,3.524,9.369,9.369,0,0,0,1.968,3.049c2.062,2.055,5.2,2.19,7.963,2.31l.663.03.142.007c2.2.11,4.427.237,6.585.36h.021l1.477.084,2.02.113c.634.035,1.381.071,2.116.071a13.2,13.2,0,0,0,3.391-.373,8.077,8.077,0,0,0,3.1-1.558,23.781,23.781,0,0,0,5.258-6.314,43.948,43.948,0,0,0,3.5-7.482,50.272,50.272,0,0,0,2.157-7.886,59.28,59.28,0,0,0,.944-8.114,71.887,71.887,0,0,0-.086-8.194c-.173-2.623-.487-5.357-.933-8.126a89.548,89.548,0,0,0-17.862-3.835A96.935,96.935,0,0,0,165.474,97.326Zm-20.6-.537a15.065,15.065,0,0,1,3.682.413,8.871,8.871,0,0,1,3.2,1.49l.011-.02c.005-.01.011-.02.017-.029a8.074,8.074,0,0,1,1.017-1.191l.012-.012c.035-.033.069-.067.106-.105l.205-.218-.469-.162c-.714-.253-1.517-.555-2-.736l-.387-.145-.013,0-.654-.221h0c-1.044-.353-2.124-.718-3.181-1.093-.188-.067-.375-.137-.572-.211a7.677,7.677,0,0,0-2.624-.651,3.264,3.264,0,0,0-.521.041,6.2,6.2,0,0,0-2.464,1.088,24.141,24.141,0,0,0-2.25,1.821l0,0c-.393.345-.764.67-1.132.968l.867-.168A38.548,38.548,0,0,1,144.869,96.789Zm58.475,113.879a.929.929,0,0,1-.578-.2.846.846,0,0,1-.314-.588l-.138-1.329a22.519,22.519,0,0,0-.95-4.961,27.381,27.381,0,0,1-1.21-5.868c-.355-3.142-.513-6.363-.644-9.394l-.093-2.169c-.293-6.777-.418-13.4-.371-19.685.05-6.747.3-13.367.742-19.675l.067-.935c.278-3.789.55-6.69.881-9.408.424-3.48.939-6.564,1.574-9.429a51.757,51.757,0,0,1,7-17.508.228.228,0,0,1,.195-.108.24.24,0,0,1,.188.09.224.224,0,0,1,.038.2c-1.592,6.522-3.207,13.53-4.243,20.588-.407,2.773-.719,5.612-.953,8.679-.209,2.732-.351,5.582-.434,8.714-.155,5.817-.077,11.738,0,17.464v.056c.013.967.026,1.966.037,2.948l.008.653c.069,6.041.171,13.19.409,20.4.027.829.062,1.675.1,2.493.105,2.578.214,5.243.121,7.851a23.312,23.312,0,0,1-.4,3.136c-.132.761-.268,1.547-.343,2.336a27.242,27.242,0,0,0,.017,4.035c.014.256.029.546.043.826a.744.744,0,0,1-.187.566A.759.759,0,0,1,203.344,210.668Zm33.87-.569a2.736,2.736,0,0,1-1.978-.807,1.964,1.964,0,0,1-.531-1.508,204.486,204.486,0,0,0,.509-22.644c-.34-7.479-1.051-15.09-2.113-22.622-.66-4.681-1.575-9.4-2.46-13.957-.309-1.591-.628-3.237-.934-4.868l-.184-.99c-.919-4.977-1.88-10.033-2.809-14.923l0-.009-.2-1.051L225,118.745c-2.066-10.882-4.5-23.517-7.19-35.757l-.155-.7a110.473,110.473,0,0,0-5.079-17.1,64.728,64.728,0,0,0-3.851-8.05,48.8,48.8,0,0,0-5.061-7.288,40.962,40.962,0,0,0-3.068-3.244c-1.038-.985-2.162-1.95-3.34-2.868a57.76,57.76,0,0,0-7.328-4.814c-2.3-1.289-4.887-2.575-7.909-3.93-2.772-1.243-5.629-2.42-8.15-3.458a.4.4,0,0,1-.25-.45.337.337,0,0,1,.339-.285.469.469,0,0,1,.108.013l.875.209c6.1,1.461,12.559,3.131,18.684,6.057a40.253,40.253,0,0,1,8.275,5.292,43.651,43.651,0,0,1,6.806,7.085,60.1,60.1,0,0,1,8.8,16.676,138.79,138.79,0,0,1,4.852,18.315c1.361,6.565,2.686,13.251,3.967,19.717,1.405,7.093,2.858,14.427,4.364,21.626l.534,2.563c1.6,7.7,2.778,13.633,3.82,19.248,1.3,7.014,2.352,13.347,3.212,19.362l.133.941a199.537,199.537,0,0,1,1.942,20.24c.135,3.531.13,6.953-.015,10.171a95.865,95.865,0,0,1-.974,10.094,1.881,1.881,0,0,1-.755,1.28A2.321,2.321,0,0,1,237.214,210.1ZM144.8,198.837a1.459,1.459,0,0,1-1.4-1,16.907,16.907,0,0,1-.659-4.961c-.008-1.711.141-3.434.284-5.1v0c.042-.489.082-.952.118-1.415l.222-2.859c.2-2.564.421-5.588.595-8.58.23-3.957.422-7.987.6-11.753.056-1.211.118-2.459.189-3.818l.1-1.908c.012-.21.022-.425.031-.633a11.534,11.534,0,0,1,.712-4.19.522.522,0,0,1,.5-.3.616.616,0,0,1,.545.3,11.618,11.618,0,0,1,.982,4.466v.007c.014.159.028.323.042.482l.016.169c.229,2.416.37,4.274.46,6.027.195,3.822.288,7.675.276,11.451-.014,4.39-.113,8.23-.3,11.739l-.057,1.048a45.409,45.409,0,0,1-.532,5.241,16.021,16.021,0,0,1-1.6,4.92A1.249,1.249,0,0,1,144.8,198.837ZM12.444,171.616a.161.161,0,0,1-.049-.008,1.439,1.439,0,0,1-.942-.743,2.424,2.424,0,0,1,.213-1.918,26.516,26.516,0,0,1,3.631-5.506l.024-.03.4-.508a50.657,50.657,0,0,1,4.687-5.215l.493-.476c.19-.186.384-.383.59-.591a18.659,18.659,0,0,1,2.245-2.035,4.518,4.518,0,0,1,2.628-1c.066,0,.133,0,.2.006a1.345,1.345,0,0,1,1.275,1.675c-.309,1.466-1.537,2.376-2.726,3.257-.339.251-.659.489-.961.739-1.515,1.26-2.923,2.588-4.351,3.95-1.225,1.168-2.42,2.381-3.653,3.709l-.442.479c-.075.082-.234.237-.435.434l0,0c-.956.935-2.945,2.882-2.677,3.464l.018.031a.166.166,0,0,1,.005.176A.2.2,0,0,1,12.444,171.616Zm116.542-37.949a2.768,2.768,0,0,1-1.943-.824,4.4,4.4,0,0,1-1.128-1.975,8.171,8.171,0,0,1-.172-2.3,6.62,6.62,0,0,0-.3-2.646,7.6,7.6,0,0,0-.671-1.185,7.961,7.961,0,0,1-.66-1.156,7.627,7.627,0,0,1-.588-2.573,6.581,6.581,0,0,1,.4-2.179,4.068,4.068,0,0,0,.152-3.069.636.636,0,0,1,.027-.607.46.46,0,0,1,.4-.243h.011l.045,0a2.617,2.617,0,0,1,1.591.8,3.552,3.552,0,0,1,.87,1.605,14.674,14.674,0,0,1,.3,1.722,6.986,6.986,0,0,0,1.019,3.272,9.519,9.519,0,0,1,1.972,5.014c.021.259.032.521.043.775v0a9.643,9.643,0,0,0,.18,1.72l.136.576a5.4,5.4,0,0,1,.19,1.864,1.373,1.373,0,0,1-.961,1.262A3.013,3.013,0,0,1,128.985,133.666Zm-58.29-30.192a22.771,22.771,0,0,1-3.529-.247.292.292,0,0,1-.256-.285.4.4,0,0,1,.256-.409,40.583,40.583,0,0,1,7.111-1.24c.544-.062,1.106-.126,1.656-.194,2.545-.316,5.892-.745,9.215-1.264s6.311-1.028,9.16-1.558c1.367-.254,2.754-.524,4.121-.8.291-.059.584-.133.895-.212a8.892,8.892,0,0,1,2.127-.361,3.035,3.035,0,0,1,1.128.2,1.141,1.141,0,0,1,.708.8.919.919,0,0,1-.271.855,5.23,5.23,0,0,1-3.1,1.176c-.216.033-.438.066-.654.1l-.117.021c-1.553.288-3.145.567-4.733.83-3.025.5-6.033.938-8.942,1.3-3.441.426-6.462.745-9.234.973l-1.194.1C73.651,103.371,72.166,103.474,70.695,103.474Zm74.337-14.216a1.076,1.076,0,0,1-.938-.539,24.923,24.923,0,0,1-2.412-6.549c-.3-1.125-.608-2.289-.988-3.4-.5-1.447-1.035-2.906-1.555-4.317v0c-.641-1.736-1.3-3.53-1.892-5.316a40.113,40.113,0,0,1-1.6-6.442,24.809,24.809,0,0,1-.2-6.6l-.014-.023a.548.548,0,0,1-.03-.054l-.351-.767a16.67,16.67,0,0,0-3.618-5.547c-.441-.421-.9-.836-1.342-1.237a23.984,23.984,0,0,1-3.867-4.11,9.517,9.517,0,0,1-1.272-2.653,11.162,11.162,0,0,1-.449-2.74,29.751,29.751,0,0,1,.476-5.64c.172-1.158.349-2.355.438-3.528l.043-.609c.077-1.176.071-2.469-.568-3.146a5.49,5.49,0,0,0-2.521-1.076c-.375-.1-.728-.185-1.018-.288a56.6,56.6,0,0,1-7.593-3.277,48.19,48.19,0,0,1-6.66-4.162l-1.061-.8a18.69,18.69,0,0,1-4.53-4.362.272.272,0,0,1,0-.281.281.281,0,0,1,.238-.159.229.229,0,0,1,.086.017,26.743,26.743,0,0,1,4.029,2.214l0,0c.426.267.866.543,1.3.8a2.134,2.134,0,0,1,.095-.194,22.235,22.235,0,0,0,2.3-6.165,23.138,23.138,0,0,0,.413-6.57A1.582,1.582,0,0,1,110.36.521a1.762,1.762,0,0,1,1.3-.521,2.074,2.074,0,0,1,1.293.439,1.814,1.814,0,0,1,.675,1.315,25.943,25.943,0,0,1-3.211,14.579c-.012.021-.025.041-.037.061l-.02.031c1.79.932,3.28,1.65,4.689,2.258,2.187.945,4.223,1.716,6.223,2.36.54.174,1.1.315,1.7.464a10.784,10.784,0,0,1,4.169,1.673,5.468,5.468,0,0,1,1.685,2.322,8.832,8.832,0,0,1,.551,2.9,28.383,28.383,0,0,1-.652,6.036c-.04.219-.082.445-.121.663l-.1.573a9.56,9.56,0,0,0,.228,5.576,13.57,13.57,0,0,0,3.676,4.363l.016.015.364.327.306.278a20.259,20.259,0,0,1,3.863,4.371,26.469,26.469,0,0,1,2.978-4.509l0-.005.439-.578c.748-.988.456-1.447-.029-2.209-.113-.178-.242-.38-.369-.608a6.517,6.517,0,0,1-.691-1.78,5.219,5.219,0,0,1-.061-1.9,5.685,5.685,0,0,1,.545-1.692,7.368,7.368,0,0,1,.984-1.463,13.461,13.461,0,0,1,2.7-2.325,47.652,47.652,0,0,1,4.129-2.426c1-.545,2.04-1.108,3.028-1.714a97.734,97.734,0,0,0,13.76-10.111.143.143,0,0,1,.1-.037.161.161,0,0,1,.139.08.123.123,0,0,1-.01.131,53.657,53.657,0,0,1-12.087,13.221c-1.668,1.291-3.446,2.42-5.165,3.511l-.91.578-.594.381a5.562,5.562,0,0,0-2.24,2.172c-.288.7.117,1.281.509,1.841.122.175.249.356.352.538a5.669,5.669,0,0,1,.666,1.786,4.882,4.882,0,0,1,0,1.721,7.342,7.342,0,0,1-1.588,3.231l-.076.094a15.291,15.291,0,0,0-3.438,6.411,20.171,20.171,0,0,0,0,8.3,52.841,52.841,0,0,0,2.333,8.049l.073.2c.242.674.491,1.358.733,2.019l0,.008c.752,2.061,1.53,4.192,2.184,6.324l.238.78c.788,2.607,1.422,5.167.547,7.822A1.17,1.17,0,0,1,145.032,89.258Zm9.809-37.178c-.241,0-.486-.009-.729-.027a9.824,9.824,0,0,1-4.122-1.183,9.093,9.093,0,0,1-1.454-1.161c-.928-.842-1.888-1.712-2.949-1.712a1.92,1.92,0,0,0-.595.1.172.172,0,0,1-.053.008.22.22,0,0,1-.194-.15.168.168,0,0,1,.051-.195,2.468,2.468,0,0,1,1.6-.584,6.971,6.971,0,0,1,3.2,1.239,10.492,10.492,0,0,0,1.97.974A7.674,7.674,0,0,0,160,46.726a85.633,85.633,0,0,0,5.861-8.558,41.508,41.508,0,0,0,2.447-4.583,15.642,15.642,0,0,0,.866-2.788,20.233,20.233,0,0,1,.61-2.158,2.087,2.087,0,0,1,.863-1.062,2.391,2.391,0,0,1,1.254-.355,1.969,1.969,0,0,1,1.437.571,1.818,1.818,0,0,1,.457,1.39A14.333,14.333,0,0,1,172.361,34l-.188.437-.077.182a33.675,33.675,0,0,1-2.647,5.046,64.111,64.111,0,0,1-6.764,8.681,12.039,12.039,0,0,1-3.546,2.725A9.636,9.636,0,0,1,154.841,52.08Zm17.837-26.09a1.864,1.864,0,0,1-1.286-.568,36.348,36.348,0,0,1-3.908-4.311,17.707,17.707,0,0,1-2.791-5.066.309.309,0,0,1,.049-.283.373.373,0,0,1,.294-.156.3.3,0,0,1,.164.049,25.3,25.3,0,0,1,2.745,2.178h0c.412.36.839.731,1.266,1.081,1.482,1.212,2.983,2.4,4.462,3.545a2.111,2.111,0,0,1,.774,1.073,1.842,1.842,0,0,1-.03,1.119A1.913,1.913,0,0,1,172.677,25.99Zm-10.341-5.961a1.9,1.9,0,0,1-1.192-.432,12.677,12.677,0,0,1-4.139-6.088,13.413,13.413,0,0,1-.625-3.652,13.168,13.168,0,0,1,.412-3.716,1.64,1.64,0,0,1,1.653-1.3,2.049,2.049,0,0,1,1.574.733,1.674,1.674,0,0,1,.311,1.468l-.017.068a9.334,9.334,0,0,0,.207,5.393,9.919,9.919,0,0,0,3.1,4.422l.107.087a1.621,1.621,0,0,1,.576.816,1.409,1.409,0,0,1-.035.856A2.119,2.119,0,0,1,162.337,20.028Z" transform="translate(0 7.058)"/></g><g transform="translate(54.001)"><path d="M138.923,57.88c-6.031-36.57-52.085-43.163-82.095-35.466-.553-7.034-4.974-13.25-10.49-17.338-23.433-16.9-51.174,11.8-45.62,36.53,1,7.493,6.971,16.043,15.331,14.761C5.541,76.3,1.435,116.5,24.587,128.927c2.233,1.593,2.6,4.83,4.323,6.905,2.791,3.347,14.713,7.61,21.163,4.193,2.027,1.867,4.365,3.683,7.1,4.329,14.122,11.333,34.76,13.89,51.957,9.214,10.595-1.8,21.578-6.594,27.028-16.383,4.618-7.45,2.49-16.179.372-24.064A106.01,106.01,0,0,1,134.651,100a6.3,6.3,0,0,0,.98-3.212c.813-3.94,2.59-7.6,3.479-11.526a66.165,66.165,0,0,0-.188-27.385" transform="translate(0 0)" fill="#ffdbb4"/><path d="M4.525,14.859C9.735,4.912,19.949-.7,30.163.07c10.451.787,18.448,8.01,20.3,19.673l.054.355.111.757-.1.035.049.086.088.147c.1.169.231.362.4.614l.232.332.782,1.1.055.079.167.241.336-.119a75.286,75.286,0,0,1,50.916.422l.493.187.455.176.256.067c10,2.65,17.983,9.023,23.45,18.147l.165.277.167.285a58.24,58.24,0,0,1,7.37,29.878l-.006.326,0,.052-.028.321a30.158,30.158,0,0,1-2.209,8.334l-.17.442-.263.675-.819,2.081-.2.518-2.351,6.187.435-6.21c.048-.691.075-1.3.1-2.223l0-.167.053-2.628.016-.587c.008-.273.017-.52.028-.76l.017-.359.031-.557.008-.116-.015-.125A17.965,17.965,0,0,0,125.12,67.5l-.162-.165-.164-.165-.2-.194c-2.292-2.247-4.609-3.965-9.408-7.117l-.207-.136-2.789-1.819-1.044-.686c-2.3-1.52-3.7-2.5-5.187-3.652l-.319-.249-.25-.2a30.969,30.969,0,0,1-6.114-6.2l-.143-.2-.3-.436.217-.465,0,.006v0l.01-.05.015-.083.015-.1c.027-.2.051-.461.067-.755.006-.107.011-.215.015-.326l.005-.166,0-.144-.057.17c-2.973,8.6-10.019,15.782-19.951,21.079l-.3.16-.341.178a74.308,74.308,0,0,1-32.145,8.077l-.334,0h-.331l-.255-.211a1.56,1.56,0,0,0-2.387,1.595,109.705,109.705,0,0,1,1.768,39.323l-.064.451-.007.043-.069.366c-.06.326-.117.66-.178,1.045l-.1.621-.375,2.518-.171,1.079-.074.437c-.634,3.671-1.438,6.168-2.9,8.322l-.14.2-.144.138-.14.141a3.408,3.408,0,0,0-.557.706l-.019.038-.011.023.025.01a4.382,4.382,0,0,0,2.206-.085l.1-.028.092-.029.641-.209.447.63.133.186c.245.34.5.683.821,1.1l.377.49.872,1.123-.8.554c-2.7,1.87-6.475,1.5-10.486-.255l-.156-.069-.057-.028c-1.912-1.015-3.165-2.241-5.228-4.854l-.242-.308-.918-1.181-.35-.442c-.244-.306-.453-.559-.662-.8l-.07-.081-.244-.28-.054-.108a11.147,11.147,0,0,0-4.979-4.849l-.356-.2-.228-.157c-6.411-4.456-10.195-11.485-11.786-20.6C7.748,93.1,7.877,85.084,9.016,76.08l.055-.43L9.13,75.2a61.765,61.765,0,0,1,6.661-21.1l.178-.333.16-.3-.8-.638L15,52.585c-.273-.21-.471-.354-.651-.473l-.1-.063-.09-.056-.024.045-.612-.066a13.708,13.708,0,0,1-7.206-3.121l-.171-.144-.166-.167C1.97,44.454,0,38.788,0,32.317A37.5,37.5,0,0,1,4.241,15.391l.133-.251Z" transform="translate(3.448 3.391)" fill="#e8e1e1"/><path d="M91.075,155.714h0A36.144,36.144,0,0,1,80.937,154.5a17.9,17.9,0,0,1-4.553-2.005,12.85,12.85,0,0,1-3.6-3.373,2.031,2.031,0,0,1-.055-2.1,2.375,2.375,0,0,1,3.059-.915l.358.224.006,0a45.647,45.647,0,0,0,4.695,2.69,15.006,15.006,0,0,0,5.188,1.483c1.611.072,3.239.109,4.838.109a93.758,93.758,0,0,0,12.558-.806,61.779,61.779,0,0,0,12.546-2.955c9.018-3.247,15-8.486,17.787-15.57a17.105,17.105,0,0,0,.7-3.788,22.773,22.773,0,0,0-.052-3.79,60.473,60.473,0,0,0-1.361-7.588A52.208,52.208,0,0,1,131.6,107.3a44.6,44.6,0,0,1-.464-7.324c.025-2.435.189-4.906.346-7.3.213-3.221.432-6.551.32-9.847a21.975,21.975,0,0,0-2.5-5.524,25.571,25.571,0,0,0-3.577-4.436,64.386,64.386,0,0,0-8.934-7.048,71.686,71.686,0,0,1-8.013-6.167,27.484,27.484,0,0,1-3.35-3.711,21.55,21.55,0,0,1-2.57-4.469,38.582,38.582,0,0,1-3.937,6.707,42.336,42.336,0,0,1-5.1,5.76,53.111,53.111,0,0,1-12.815,8.8,71.713,71.713,0,0,1-14.9,5.4,81.351,81.351,0,0,1-15.281,2.244,125.438,125.438,0,0,1,2.394,26.559,93.5,93.5,0,0,1-1.243,13.295,77.464,77.464,0,0,1-3.309,12.891,23.136,23.136,0,0,0,3.2,3.491,21.659,21.659,0,0,0,3.862,2.738,12.625,12.625,0,0,0,1.189.565c1.122.488,2.282.993,2.747,2.094a2.45,2.45,0,0,1-.383,1.933,1.609,1.609,0,0,1-1.261.474c-2.482,0-6.919-3.129-7.959-4.407a12.541,12.541,0,0,1-5.894,1.259,26.772,26.772,0,0,1-9.165-1.8,15.761,15.761,0,0,1-6.1-3.655,13.113,13.113,0,0,1-1.684-3.008,19.25,19.25,0,0,0-1.084-2.158,5.812,5.812,0,0,0-1.555-1.738,28.947,28.947,0,0,1-12.578-13.776,44.144,44.144,0,0,1-3.067-9.386A61.235,61.235,0,0,1,7.7,95.463,78.355,78.355,0,0,1,8.028,84.81,87.878,87.878,0,0,1,9.694,74.367,82.917,82.917,0,0,1,12.449,64.7a63.078,63.078,0,0,1,3.6-8.332,11.034,11.034,0,0,1-1.665.129,10.682,10.682,0,0,1-5.161-1.344,14.321,14.321,0,0,1-4.129-3.481,19.579,19.579,0,0,1-2.9-4.791A20.383,20.383,0,0,1,.718,41.606a30.247,30.247,0,0,1-.7-7.755,34.053,34.053,0,0,1,1.195-7.68A38.714,38.714,0,0,1,8.278,12.357a37.365,37.365,0,0,1,4.841-5.033,33.213,33.213,0,0,1,5.6-3.9A28.392,28.392,0,0,1,24.878.9a24.728,24.728,0,0,1,6.54-.9,23.766,23.766,0,0,1,7.473,1.212,27.565,27.565,0,0,1,7.448,3.863,28.624,28.624,0,0,1,7.106,7.565,23.27,23.27,0,0,1,2.287,4.672,20.033,20.033,0,0,1,1.1,5.1,97.29,97.29,0,0,1,33.289-2.352,85.875,85.875,0,0,1,9.729,1.566,65.043,65.043,0,0,1,17.863,6.643,44,44,0,0,1,13.8,11.867,38.828,38.828,0,0,1,4.65,8.1,42.408,42.408,0,0,1,2.763,9.646,73.774,73.774,0,0,1,1.527,13.7,59.1,59.1,0,0,1-1.339,13.686,52.378,52.378,0,0,1-1.692,5.539,48.333,48.333,0,0,0-1.788,5.987c-.033.2-.062.4-.09.592a4.945,4.945,0,0,1-.89,2.619,74.36,74.36,0,0,0,2.223,14.086,83.014,83.014,0,0,1,2.141,12.5,25.42,25.42,0,0,1-1.482,7.694,22.946,22.946,0,0,1-3.473,6.233,27.042,27.042,0,0,1-5.071,4.923,37.193,37.193,0,0,1-6.276,3.764,62.208,62.208,0,0,1-14.593,4.652,107.893,107.893,0,0,1-14.691,1.825C92.593,155.7,91.823,155.714,91.075,155.714ZM81.065,23.448a75.43,75.43,0,0,0-11.936.955A74.619,74.619,0,0,0,57.6,27.213,71.905,71.905,0,0,0,46.764,31.8a67.865,67.865,0,0,0-9.835,6.289A63.592,63.592,0,0,0,28.388,46a59.943,59.943,0,0,0-14.9,32.7,109.657,109.657,0,0,0-.984,11.973,66.45,66.45,0,0,0,.8,12.529,43.488,43.488,0,0,0,1.434,5.977,32.823,32.823,0,0,0,2.319,5.521,26.29,26.29,0,0,0,3.351,4.867,23.947,23.947,0,0,0,4.53,4.014,17.412,17.412,0,0,1,3.29,2.272,10.456,10.456,0,0,1,2.385,3.154c.643.732,1.26,1.528,1.857,2.3,1.571,2.027,3.194,4.123,5.518,5.356a15.5,15.5,0,0,0,5.986,1.469,6.474,6.474,0,0,0,3.761-1.062c-.581-.748-1.148-1.483-1.686-2.242a6.3,6.3,0,0,1-1.871.292,3.464,3.464,0,0,1-1.108-.155.965.965,0,0,1-.631-.512.994.994,0,0,1,.1-.814,4.693,4.693,0,0,1,.971-1.2,15.846,15.846,0,0,0,2.213-5.121,53.628,53.628,0,0,0,1.042-5.661v0c.174-1.179.338-2.293.546-3.378a106.485,106.485,0,0,0,.96-19.8,110.735,110.735,0,0,0-2.65-19.641,2.3,2.3,0,0,1,.419-2,2.7,2.7,0,0,1,2.072-.98,2.125,2.125,0,0,1,1.375.469,69.627,69.627,0,0,0,15.877-2.01,75.845,75.845,0,0,0,8.246-2.489,68.068,68.068,0,0,0,7.938-3.477A55.672,55.672,0,0,0,88.8,63.889a43.068,43.068,0,0,0,6.167-5.454,30.287,30.287,0,0,0,7.562-13.87c.146-.2.279-.3.4-.3a.3.3,0,0,1,.243.171,7.281,7.281,0,0,1,.381,2.694,9.428,9.428,0,0,1-.209,2.448,24.584,24.584,0,0,0,2.865,3.378,38.42,38.42,0,0,0,3.457,3.025c2.458,1.925,5.225,3.724,7.9,5.463,2,1.3,4.07,2.645,5.994,4.033a44.19,44.19,0,0,1,5.332,4.424,22.622,22.622,0,0,1,4.01,5.209,17.287,17.287,0,0,1,2.027,6.386c-.084,1.257-.107,2.529-.129,3.759s-.045,2.506-.131,3.727c.274-.722.562-1.45.84-2.154.652-1.65,1.326-3.356,1.857-5.064A24.086,24.086,0,0,0,138.44,76.5a61.715,61.715,0,0,0-.319-7.756,60.389,60.389,0,0,0-1.306-7.68A52.7,52.7,0,0,0,131.2,46.777a41.022,41.022,0,0,0-9.686-11.445,36.262,36.262,0,0,0-13.84-6.916,72.182,72.182,0,0,0-13.162-3.743,74.3,74.3,0,0,0-13.441-1.224ZM31.787,4.306a24.659,24.659,0,0,0-6.6.913,25.882,25.882,0,0,0-6.33,2.717A26.468,26.468,0,0,0,13.24,12.43a27.715,27.715,0,0,0-4.45,6.241,35.345,35.345,0,0,0-1.8,3.841A37.837,37.837,0,0,0,5.6,26.689,34.859,34.859,0,0,0,4.37,35.524a25.7,25.7,0,0,0,1.336,8.594,19.016,19.016,0,0,0,4.513,7.3,12.8,12.8,0,0,0,6.852,3.028A66.677,66.677,0,0,1,32.2,35.656a65.362,65.362,0,0,1,9.846-7.007,62.541,62.541,0,0,1,11.01-5.033,25.762,25.762,0,0,0-2.729-8.511,20.421,20.421,0,0,0-4.885-6.027,20.114,20.114,0,0,0-6.4-3.586,22.323,22.323,0,0,0-7.26-1.186Z" transform="translate(0 0.007)"/></g><g transform="translate(126.68 71.19)"><path d="M33.137,58.857a11.68,11.68,0,0,1-4.431-.885,12.516,12.516,0,0,1-2.892-1.662,12.322,12.322,0,0,1-2.355-2.376,2.434,2.434,0,0,1-.491-1.884,2.716,2.716,0,0,1,1.057-1.7,2.6,2.6,0,0,1,1.549-.54,2.248,2.248,0,0,1,.346.027,2.392,2.392,0,0,1,1.6,1.059l.095.131a8.268,8.268,0,0,0,3.029,2.543,6.875,6.875,0,0,0,3,.7,6.655,6.655,0,0,0,.744-.042A7.822,7.822,0,0,0,37.7,53.064a15.489,15.489,0,0,0,2.8-2.34c.2-.2.413-.427.688-.721a1.09,1.09,0,0,1,.571-.44,1.171,1.171,0,0,1,.372-.059,1.265,1.265,0,0,1,1.036.541,1.157,1.157,0,0,1,.2.761,6.987,6.987,0,0,1-.828,2.706,9.032,9.032,0,0,1-1.771,2.275,11.384,11.384,0,0,1-2.682,1.87,11.165,11.165,0,0,1-2.977,1.021A10.959,10.959,0,0,1,33.137,58.857Zm3.119-17.669h0a10.7,10.7,0,0,1-3.818-.77,19.283,19.283,0,0,1-4.49-2.549,1.726,1.726,0,0,1-.627-1,2.066,2.066,0,0,1,.089-1.119,2.547,2.547,0,0,1,.756-1.093,1.84,1.84,0,0,1,1.178-.46,1.671,1.671,0,0,1,.911.28l.3.234,0,0a24.31,24.31,0,0,0,2.811,1.956,6.923,6.923,0,0,0,3.369,1.075,3.637,3.637,0,0,0,1.424-.28,3.978,3.978,0,0,0,1.326-.94,4.068,4.068,0,0,0,.771-3.274,6.185,6.185,0,0,0-1.641-2.9,11.965,11.965,0,0,0-2.484-2.006.771.771,0,0,1-.208-.886,1.156,1.156,0,0,1,.383-.551,1.175,1.175,0,0,1,.733-.242,1.562,1.562,0,0,1,.263.023,8.328,8.328,0,0,1,2.929,1.059,6.646,6.646,0,0,1,1.97,1.817,7.221,7.221,0,0,1,1.258,4.823,7.949,7.949,0,0,1-.644,2.531,7.386,7.386,0,0,1-1.452,2.175A6.938,6.938,0,0,1,36.256,41.188ZM11.411,23.934A2.5,2.5,0,0,1,9.786,23.3a2.532,2.532,0,0,1-.852-1.637,18.448,18.448,0,0,1,.1-4.8c.058-.467.118-.949.16-1.469a2.875,2.875,0,0,1,1.089-2.055,3.354,3.354,0,0,1,2.064-.726,2.543,2.543,0,0,1,1.56.491,2.315,2.315,0,0,1,.862,1.534,12.888,12.888,0,0,1-1.345,7.941,2.547,2.547,0,0,1-.9,1.04A2.071,2.071,0,0,1,11.411,23.934Zm36.47-1.089a2.19,2.19,0,0,1-1.717-.736,6.713,6.713,0,0,1-1.049-1.78,7.755,7.755,0,0,1-.534-2.144,4.546,4.546,0,0,1,1.239-3.9,2.573,2.573,0,0,1,.2-.3,2.806,2.806,0,0,1,2.159-1.243,2.338,2.338,0,0,1,.656.1,3.158,3.158,0,0,1,2.11,1.842,6.514,6.514,0,0,1,.261,3.562,11.925,11.925,0,0,1-1.08,3.36,2.18,2.18,0,0,1-.933.922A2.827,2.827,0,0,1,47.881,22.845ZM.4,11.4a.4.4,0,0,1-.332-.2.445.445,0,0,1-.027-.436,15.135,15.135,0,0,1,3.393-4.3,20.974,20.974,0,0,1,4.541-3.1A19.52,19.52,0,0,1,13.37,1.482l.576-.1A14.025,14.025,0,0,1,16.3,1.127,3.635,3.635,0,0,1,19.2,2.21a2.468,2.468,0,0,1,.583,1.753A1.606,1.606,0,0,1,19.2,5.109a4.472,4.472,0,0,1-3.066.9C15.9,6.009,15.645,6,15.4,6h-.009c-.232-.006-.5-.012-.757-.012-.241,0-.455.006-.656.017a20.724,20.724,0,0,0-4.564.778,31.007,31.007,0,0,0-8.8,4.555A.378.378,0,0,1,.4,11.4ZM55.933,9.079h0c-.083-.02-.164-.04-.243-.061a13.732,13.732,0,0,1-2.662-1.039l-.865-.426a24.01,24.01,0,0,0-3.088-1.316,36.426,36.426,0,0,0-7.034-1.554,2.873,2.873,0,0,1-1.411-.536,2.115,2.115,0,0,1-.789-1.2,2.152,2.152,0,0,1,.243-1.8A2.3,2.3,0,0,1,41.2.181,2.5,2.5,0,0,1,42.147,0,2.8,2.8,0,0,1,42.7.055l.441.09a31.47,31.47,0,0,1,7.6,2.468,15.36,15.36,0,0,1,3.341,2.2,9.756,9.756,0,0,1,2.362,3.053c.083.638.006.8-.08.9l-.025.031-.022.029a.611.611,0,0,1-.377.251Z" transform="translate(0 0)"/></g></g><g transform="translate(46.283 107.762)"><path d="M88.6,16.548C88.131,8.968,80.654,5.756,76.929,4.8c-12.4-3.727-22.954,5.835-37.743,6.03a32.063,32.063,0,0,1-7.746-.962C21.369,6.948,11.308,3.836,1.427,0-.026.435-.456,2.859.541,4.24c9.465,4.29,23.944,8.132,31.59,8.569-.147,12.626-5.361,25.321-12.562,32.3C31.023,61.3,57.733,66.625,73.452,58.128c7.733-2.966,15.892-29.519,15.147-41.58" transform="translate(0.855 1.022)" fill="#fff"/><path d="M60.758,67.468h0l-3.916-.362c-6.64-.625-13.659-1.443-20.066-3.915A36.419,36.419,0,0,1,32.1,61.006a31.7,31.7,0,0,1-4.366-2.941,30.852,30.852,0,0,1-3.973-3.835,33.926,33.926,0,0,1-3.494-4.867l-.067.073a2.956,2.956,0,0,1-.948-2.139,3.649,3.649,0,0,1,.827-2.572l.032.065c.016-.032.033-.064.049-.095l.017-.032-.014-.056A20.014,20.014,0,0,1,21.5,43.044l0,.009a36.566,36.566,0,0,0,4.4-5.771,42.484,42.484,0,0,0,3.394-6.8,45.4,45.4,0,0,0,2.229-7.526,44.949,44.949,0,0,0,.9-7.96,1.263,1.263,0,0,1-.383.042c-2.023,0-9.991-1.858-17.4-4.059-4.078-1.211-7.556-2.4-10.058-3.426C1.62,6.336.079,5.363,0,4.663c-.033-.307.223-.562.763-.758A130.427,130.427,0,0,0,14.676,9.1a.168.168,0,0,1,.1-.032.148.148,0,0,1,.139.1A110.135,110.135,0,0,0,32.43,12.858c-.006-.341-.016-.7-.031-1.079-4.73-1.177-9.818-2.714-15.556-4.7C11.688,5.3,6.636,3.379,1.483,1.4c-.127-.006-.2-.156-.2-.392C1.289.6,1.547,0,2.083,0a.794.794,0,0,1,.182.022c3.35,1,6.874,2.231,10.605,3.533,4.95,1.727,10.068,3.513,15.121,4.873a76.207,76.207,0,0,0,7.488,1.655,44.06,44.06,0,0,0,7.164.635h.139A27.436,27.436,0,0,0,49.467,9.5c2.19-.652,4.387-1.5,6.511-2.326,2.244-.869,4.563-1.767,6.878-2.433a25.97,25.97,0,0,1,7.081-1.123,45.556,45.556,0,0,1,4.987.371,28.334,28.334,0,0,1,5.135,1.151,18.817,18.817,0,0,1,4.779,2.338,15.171,15.171,0,0,1,3.918,3.933,54.127,54.127,0,0,1,.713,20.851,60.688,60.688,0,0,1-2.485,10.274,53.237,53.237,0,0,1-4.133,9.3,41.605,41.605,0,0,1-4.359,6.29,31.051,31.051,0,0,1-5.2,4.922,23.325,23.325,0,0,1-5.942,3.222A19.964,19.964,0,0,1,60.758,67.468ZM33.329,11.989a34.473,34.473,0,0,1,.3,9.369,41.888,41.888,0,0,1-1.995,9.148,45.894,45.894,0,0,1-3.767,8.343A41.265,41.265,0,0,1,22.858,45.8a81.576,81.576,0,0,0,7.049,7.073,30.932,30.932,0,0,0,6.233,4.292c4.177,2.131,8.76,3.054,15.755,4.011l1.813.276a65.15,65.15,0,0,0,8.212.858,19.779,19.779,0,0,0,9.9-3.977,29.886,29.886,0,0,0,4.3-3.89,39.415,39.415,0,0,0,3.773-4.855A48.83,48.83,0,0,0,83.072,44,55.488,55.488,0,0,0,85.6,37.891,57.189,57.189,0,0,0,87.406,31.5a53.3,53.3,0,0,0,1.018-6.454l.009-.472a57.773,57.773,0,0,0-.2-6.587,24.605,24.605,0,0,0-1.384-6.314,1.3,1.3,0,0,1-.658-.659,36.9,36.9,0,0,0-4.09-2.3A28.719,28.719,0,0,0,78.25,7.193a23.637,23.637,0,0,0-7.1-1.091,25.865,25.865,0,0,0-3.794.286,34.379,34.379,0,0,0-3.667.756c-2.414.627-4.83,1.482-7.166,2.31l-.268.1c-2.252.8-4.8,1.7-7.448,2.37A32.588,32.588,0,0,1,40.759,13a27.979,27.979,0,0,1-7.429-1.008ZM47.218,28.36a13.77,13.77,0,0,1-3.081-.353,15.745,15.745,0,0,1-3.027-1.042.237.237,0,0,1-.1-.244c.009-.066.046-.137.122-.137l.02,0a15.755,15.755,0,0,0,2.361.177,17.025,17.025,0,0,0,5.606-.966,13.86,13.86,0,0,0,4.152-2.142,18.808,18.808,0,0,1,3.047-1.768.722.722,0,0,1,.2-.028,1.02,1.02,0,0,1,.875.67,1.283,1.283,0,0,1-.036,1.085A7.394,7.394,0,0,1,53.921,26.8,15.714,15.714,0,0,1,49.7,28.135,13.957,13.957,0,0,1,47.218,28.36ZM85.775,26a8.078,8.078,0,0,1-2.671-.5,11.859,11.859,0,0,1-2.65-1.345A12.818,12.818,0,0,1,78.14,22.18a10.145,10.145,0,0,1-1.664-2.4A.122.122,0,0,1,76.5,19.7a.118.118,0,0,1,.1-.038,7.663,7.663,0,0,1,2.054,1.184c.132.093.237.166.293.2A10.49,10.49,0,0,0,82,22.642a28.3,28.3,0,0,0,3.228.824c.736.157,1.5.32,2.236.522a1.013,1.013,0,0,1,0,1.751A5.241,5.241,0,0,1,85.775,26Z" transform="translate(0)"/></g><g transform="translate(18.87 83.421)"><path d="M56.835,36.128h0A19.253,19.253,0,0,1,46.58,33.1a13.579,13.579,0,0,1-4.247-4.358,12.549,12.549,0,0,1-1.691-5.072A16.534,16.534,0,0,1,41.2,17.5a5.592,5.592,0,0,1-1.633.215,7.97,7.97,0,0,1-2.381-.36,3.413,3.413,0,0,1-1.717-1.063c-3.327-.284-6.687-.7-9.937-1.095A149.336,149.336,0,0,0,7.441,13.723c-1.447,0-2.87.043-4.23.127a.95.95,0,0,0-.86.575,2.5,2.5,0,0,0-.049,1.01,2.5,2.5,0,0,1-.048,1.006.942.942,0,0,1-.85.575,1.468,1.468,0,0,1-1.377-1.4A3.731,3.731,0,0,1,.38,13.6a2.588,2.588,0,0,1,1.276-1.372c.608-.436,2.461-.667,5.358-.667a121.486,121.486,0,0,1,13.912,1.013,118.322,118.322,0,0,1,14.688,2.659,5.186,5.186,0,0,1,2.9-.7,21.073,21.073,0,0,1,2.743.241c.294.039.571.076.832.106A18.406,18.406,0,0,1,44.4,10.843,22.686,22.686,0,0,1,47.94,7.068a18.176,18.176,0,0,1,4.409-2.791,12.257,12.257,0,0,1,4.9-1.089,10.222,10.222,0,0,1,1.648.133,22.706,22.706,0,0,1,4.772.755,14.918,14.918,0,0,1,4.159,1.846,12.672,12.672,0,0,1,3.335,3.186,16.007,16.007,0,0,1,2.3,4.774,11.782,11.782,0,0,1,3.922-2.291,13.9,13.9,0,0,1,4.64-.815,10.246,10.246,0,0,1,5.241,1.316,19.638,19.638,0,0,1,4.565-6.475,18.167,18.167,0,0,1,6.854-3.994A8.3,8.3,0,0,1,103.55,0a9,9,0,0,1,3.782.875A12.827,12.827,0,0,1,110.714,3.2a16.4,16.4,0,0,1,2.708,3.334,16.161,16.161,0,0,1,1.759,3.895,3.713,3.713,0,0,1,1.607-.705,8.516,8.516,0,0,1,1.739-.174,1.631,1.631,0,0,1,.958.514,1.1,1.1,0,0,1,.267.817c-.056.587-.619,1.178-1.753,1.179a5.9,5.9,0,0,1-2.55-.719,21.9,21.9,0,0,1,.407,9.09,15.063,15.063,0,0,1-2.967,6.654,14.883,14.883,0,0,1-2.681,2.627,16.087,16.087,0,0,1-3.186,1.879,17.675,17.675,0,0,1-7.14,1.506h0a17.04,17.04,0,0,1-3.328-.325,15.382,15.382,0,0,1-3.134-.976,13.5,13.5,0,0,1-2.788-1.629,12.168,12.168,0,0,1-2.293-2.283A12.592,12.592,0,0,1,85.917,22a19.863,19.863,0,0,1,.655-8.09,24.521,24.521,0,0,0-5.7-.724,15.877,15.877,0,0,0-7.139,1.573,16.4,16.4,0,0,1,.607,3.906,16,16,0,0,1-.327,3.766,16.415,16.415,0,0,1-1.163,3.519,17.117,17.117,0,0,1-1.9,3.165,17.687,17.687,0,0,1-14.109,7.007ZM58.8,5.543h0a22.125,22.125,0,0,0-7.73,1.543,19.582,19.582,0,0,0-6.272,7.13,18.112,18.112,0,0,0-1.636,4.431,13.866,13.866,0,0,0-.285,4.5,10.484,10.484,0,0,0,2.141,5.393A12.841,12.841,0,0,0,50.585,32.5a15.941,15.941,0,0,0,2.989.882,16.4,16.4,0,0,0,3.081.292,16.147,16.147,0,0,0,6.778-1.481A14.8,14.8,0,0,0,66.4,30.36a14.081,14.081,0,0,0,2.474-2.538,14.952,14.952,0,0,0,3-7.662,14.739,14.739,0,0,0-.158-3.971,13.786,13.786,0,0,0-1.209-3.7A12.628,12.628,0,0,0,68.646,9.71a11.972,11.972,0,0,0-2.587-2.2,12.446,12.446,0,0,0-3.289-1.447A14.766,14.766,0,0,0,58.8,5.543ZM102.758,2.16a.171.171,0,0,0-.076.015,14.954,14.954,0,0,0-2.917.754c-.516.171-1,.333-1.439.441a18.155,18.155,0,0,0-7.5,6.73,17.438,17.438,0,0,0-2.971,9.506,11.686,11.686,0,0,0,.438,3.045,10.134,10.134,0,0,0,1.279,2.792,11.729,11.729,0,0,0,5.435,4.284,13.2,13.2,0,0,0,2.564.77,14.079,14.079,0,0,0,2.67.254,14.354,14.354,0,0,0,5.245-.994,13.154,13.154,0,0,0,2.364-1.225,12.093,12.093,0,0,0,2.053-1.694,11.542,11.542,0,0,0,2.353-3.39,15.638,15.638,0,0,0,1.246-4.168,18.812,18.812,0,0,0-.764-8.913,15.315,15.315,0,0,0-1.413-3.021,12.269,12.269,0,0,0-2.022-2.511,10.231,10.231,0,0,0-2.623-1.807,10.069,10.069,0,0,0-3.217-.907.732.732,0,0,1-.34.08,1.308,1.308,0,0,1-.207-.02l-.023,0A.938.938,0,0,0,102.758,2.16ZM41.865,15.44h0l-.153.068,0,0-.041.018.017.007.018.007a.392.392,0,0,1,.068.044l.03.022c.012-.032.024-.063.036-.094l0-.005.027-.069Z" transform="translate(4.294 2.455)"/></g></g></g></svg>