<svg xmlns="http://www.w3.org/2000/svg" xmlns:xlink="http://www.w3.org/1999/xlink" width="300" height="300" viewBox="0 0 300 300"><defs><clipPath id="b"><rect width="300" height="300"/></clipPath></defs><g id="a" clip-path="url(#b)"><circle cx="150" cy="150" r="150" fill="#fff" opacity="0"/><g transform="translate(1656.687 -652.002)"><g transform="translate(-1604.417 681.002)"><g transform="translate(0 103.197)"><path d="M185.078,167.95c-.6-5.6-.975-11.245-1.188-16.876s.066-11.318.188-16.945c.249-11.446.654-22.919-.257-34.348a153.272,153.272,0,0,0-5.956-31.9c-1.519-5.054-3.119-10.312-5.617-14.982-2.512-4.7-6.49-7.822-10.861-10.69-4.653-3.053-9.269-6.163-13.9-9.245-3.891-2.586-10.892-5.6-14.084-9.054-3.359-3.638-3.99-12.657-6.227-16.967C124.994,2.742,118.827,0,114.079,0,106.22,0,100.265-.4,93.8,6.875c-3.224,3.629-.659,7.3-4.038,10.78-3.107,3.2-11.053,6.493-15.058,8.351-4.8,2.225-9.714,4.19-14.7,5.94-5.089,1.785-10.306,3.116-15.424,4.8-4.905,1.615-11.311,8.272-15.119,11.795-3.54,3.275-4.419,2.908-7.111,6.887C16.443,64.16,10.53,72.991,5.826,82.444,3.483,87.153,1.214,92.106.364,97.335-.543,102.913.356,108.3,1.827,113.7c1.5,5.5,6.25,10.728,7.8,16.21.714,2.526-1.736,5.283-.609,7.664a17.53,17.53,0,0,0,2.078,3.283c.622.8,3.046.621,3.36,1.6s-1.437,3.034-1.463,4.056c-.037,1.461-.1,2.923-.143,4.384l-.283,8.64-.559,17.033A19.389,19.389,0,0,0,12.3,182a3.931,3.931,0,0,1-.452-.492c-.407-.532-1.271-.081-.926.541a5.767,5.767,0,0,0,2.382,2.295c1.133,1.671,172.753,5.4,173.6.518.474-2.742-.389-5.677-.733-8.4C185.811,173.62,185.384,170.795,185.078,167.95Z" transform="translate(1.244 0)" fill="#ffdbb4"/><path d="M0,0,177.255,9.7q.191,1.842.338,3.687c.911,11.429.506,22.9.257,34.348-.033,1.517-.077,3.039-.12,4.564l-17.486,2.888L35.934,58.17,4.866,54.462,3.577,52.225l-.893-3.893c.383-1.6,1.156-3.253.714-4.818-.129-.456-.28-.911-.45-1.364l.16-3.124Z" transform="translate(7.473 86.4)" fill="#fdea6b"/><path d="M190.82,183.075a1.847,1.847,0,0,1-1.306-.509,5.053,5.053,0,0,1-1.207-3.1v0c-.024-.158-.048-.322-.075-.485-.184-1.146-.362-2.284-.53-3.385-.377-2.461-.729-4.905-1.049-7.266-.622-4.589-1.159-9.352-1.6-14.157a15.678,15.678,0,0,0-.489-3.216,12.163,12.163,0,0,1-.321-3.453c-.075-2.954-.083-5.212-.025-7.323.012-.421.017-.857.021-1.278.009-.835.018-1.7.081-2.544-.721.1-1.455.185-2.165.269-.542.064-1.1.13-1.658.2-.522.068-1.055.162-1.619.261a19.94,19.94,0,0,1-3.357.4c-.208,0-.411-.008-.6-.022.208,2.224.437,2.526.68,2.845s.5.656.781,2.8c.668,5.016,1.454,10.344,2.548,17.275.416,2.64.9,5.316,1.364,7.905v.008c.46,2.554.935,5.195,1.347,7.8v0a4,4,0,0,1,.394,1.4,3.78,3.78,0,0,1-.145,1.452,2.284,2.284,0,0,1-.936,1.252,2.638,2.638,0,0,1-1.445.431,2.5,2.5,0,0,1-.577-.067,1.355,1.355,0,0,1-.1.926,1.176,1.176,0,0,1-.757.616l-.457.127a11.815,11.815,0,0,1-3.237.588h-.112c-.831-.013-1.677-.049-2.5-.084h-.023l-.951-.039c-2.358-.09-4.755-.1-7.073-.1h-.362l-7.188-.021h-.041l-7.149-.021-25.082-.071-1.109,0L97.187,182.4l-2.345-.007c-7.675-.022-15.611-.044-23.432-.085-4.44-.023-8.786-.05-13.137-.134-3.027-.057-5.986-.137-8.919-.47-.346.117-.665.221-.974.318a2.836,2.836,0,0,1-.854.137,2.481,2.481,0,0,1-1.088-.249,2.864,2.864,0,0,1-.874-.664,3.734,3.734,0,0,1-.917-2.068,16.372,16.372,0,0,1,.3-6.224c.122-.469.261-.924.413-1.355a5.319,5.319,0,0,1-.089-.669c-.034-.505-.045-1.023-.055-1.524v0c0-.225-.01-.457-.016-.685-.033-1.094-.06-2.2-.086-3.277-.013-.536-.026-1.089-.041-1.639-.077-3.126-.119-6.271-.124-9.347-.007-4.348.06-8.707.2-12.956-.352.013-.711.019-1.1.019-1.032,0-2.078-.046-3.089-.09h0c-.408-.018-.83-.036-1.241-.051-2.4-.087-4.84-.241-7.256-.46A130.2,130.2,0,0,1,18.156,138.8l-.278-.057h0c-.521-.106-1.06-.216-1.588-.341.057.8.046,1.605.035,2.388v.005c0,.236-.007.48-.008.715q0,.5,0,1v0c-.007,1.445-.014,2.939-.042,4.409-.044,2.2-.1,4.428-.161,6.584v.009c-.033,1.225-.066,2.491-.1,3.737-.034,1.383-.072,2.782-.109,4.136v.005c-.057,2.111-.117,4.294-.162,6.442-.037,1.7-.067,3.444-.089,5.172,0,.362,0,.736.009,1.1a8.982,8.982,0,0,1-.645,4.383,1.812,1.812,0,0,1-.77.757,2.28,2.28,0,0,1-1.062.258,2.131,2.131,0,0,1-1.021-.25,1.7,1.7,0,0,1-.728-.765,6.021,6.021,0,0,1-.538-2.215,18.6,18.6,0,0,1,.038-2.3v0c.018-.315.037-.64.048-.959.075-2.025.148-3.8.221-5.418.184-4.093.38-7.456.616-10.584.292-3.877.614-7.336.984-10.576.2-1.775.462-3.564.713-5.294.025-.168.05-.343.072-.5.091-.636.185-1.292.313-1.936a2.2,2.2,0,0,1,.147-.99,7.976,7.976,0,0,1-1.909-1.081,6.7,6.7,0,0,1-2.3-3.887,10.231,10.231,0,0,1-.3-2.406,16.194,16.194,0,0,1,.165-2.423c.106-.773.215-1.528.39-2.28a1.535,1.535,0,0,1-.681-.209,6.054,6.054,0,0,1-1.824-1.752,18.228,18.228,0,0,1-1.274-2.212l0-.005-.1-.2c-.712-1.38-1.386-2.849-2.061-4.491A54.182,54.182,0,0,1,1.3,107.638,55.667,55.667,0,0,1,4.681,73.25a60.541,60.541,0,0,1,4.736-8.515c1.6-2.427,3.43-4.926,5.769-7.863,2.084-2.616,4.33-5.191,6.677-7.655,2.292-2.406,4.75-4.779,7.305-7.054a.278.278,0,0,1,.185-.077.265.265,0,0,1,.235.155.275.275,0,0,1-.042.3c-.3.369-.615.766-.97,1.213.443-.092.878-.172,1.293-.236a26.024,26.024,0,0,1,5.041-5.955,37.132,37.132,0,0,1,6.378-4.514c1.491-.845,3.046-1.625,4.754-2.386,1.521-.678,3.13-1.325,4.917-1.977,3.321-1.212,6.771-2.26,10.108-3.274,4.3-1.307,8.751-2.658,12.971-4.376a51.788,51.788,0,0,0,6.915-3.4,37.24,37.24,0,0,0,6.2-4.569,28.567,28.567,0,0,0,4.72-5.473,24.852,24.852,0,0,0,1.777-3.23c.2-.433.364-.88.527-1.313h0A13.715,13.715,0,0,1,95.086.974,1.925,1.925,0,0,1,96.8,0a2.178,2.178,0,0,1,1.547.632A1.87,1.87,0,0,1,98.885,2a9.021,9.021,0,0,1-.315,2.157A14.191,14.191,0,0,1,97.8,6.3,28.594,28.594,0,0,1,95.6,10.2a32.175,32.175,0,0,1-5.782,6.6A40.571,40.571,0,0,1,86.5,19.392c-1.1.776-2.285,1.526-3.51,2.228a58.042,58.042,0,0,1-7.485,3.565,151.248,151.248,0,0,1-15.928,5L59.5,30.2l-1.236.339A91.852,91.852,0,0,0,42.6,36.076a52.409,52.409,0,0,0-5.79,3.25,48.3,48.3,0,0,0-5.271,3.964c.275-.032.869-.047,1.814-.047,2.9,0,8.662.151,14.236.3h.028c5.584.146,11.358.3,14.265.3.5,0,.9,0,1.211-.013,8.591-.249,17.455-.37,27.1-.37,7.663,0,15.737.077,24.683.236,8.5.15,17.17.38,25.754.684,4.219.149,8.512.32,13.122.524,2.387.106,4.491.2,6.433.3.385.019.776.033,1.154.046.544.019,1.106.04,1.657.073a18.515,18.515,0,0,1,5.244-.722,22.14,22.14,0,0,1,2.241.116,46.5,46.5,0,0,0-5.247-4.245A82.156,82.156,0,0,0,153.7,34.235c-2.067-.979-4.205-1.991-6.257-3.079a51.236,51.236,0,0,1-5.951-3.634,30.724,30.724,0,0,1-8.039-8.38,21.96,21.96,0,0,1-2.443-5.251,17.777,17.777,0,0,1-.793-5.752.206.206,0,0,1,.213-.195.172.172,0,0,1,.175.142,20.616,20.616,0,0,0,2.388,6.139,21.161,21.161,0,0,0,4.169,5.1,53.376,53.376,0,0,0,9.448,6.858c2.808,1.573,5.742,3.013,8.58,4.406h0c1.14.56,2.319,1.138,3.474,1.718A63.671,63.671,0,0,1,169.976,39.3,59.281,59.281,0,0,1,175,43.815c.276.276.568.552.877.846a25.506,25.506,0,0,1,2.029,2.079c.046.019.094.04.139.062a21.72,21.72,0,0,1,3.912,2.387,22.833,22.833,0,0,1,3.241,3.039,26.458,26.458,0,0,1,2.629,3.57,32.416,32.416,0,0,1,2.077,3.98,53.847,53.847,0,0,1,3.965,17.583c.086,1.158.141,2.345.164,3.527A86.424,86.424,0,0,1,195.3,97.761a72.784,72.784,0,0,1-.526,7.356,53.822,53.822,0,0,1-1.4,7.237,43.323,43.323,0,0,1-2.3,6.522,28.868,28.868,0,0,1-3.536,5.956,8.568,8.568,0,0,1,1.2,3.429l0,.01c.032.161.063.313.094.463.027.129.054.257.083.393v0a9.957,9.957,0,0,1,.291,4.269,3.258,3.258,0,0,1-1.167,1.823,4.57,4.57,0,0,1-2.015.863l-.026,0c-.06.011-.121.022-.183.03.137.786.23,1.594.319,2.376v.009c.053.459.107.934.169,1.388.334,2.412.616,4.8.89,7.118.279,2.36.57,2.857.852,3.338s.575.981.858,3.334c.515,4.286,1.122,8.867,1.857,14.008.336,2.352.706,4.791,1.1,7.251.149.927.348,2.148.557,3.379.021.128.044.255.065.378v0a5.317,5.317,0,0,1-.178,3.5,1.463,1.463,0,0,1-.627.658A1.831,1.831,0,0,1,190.82,183.075ZM11.653,124.963a1.537,1.537,0,0,1-.333.316c-.029.281-.064.567-.1.844v0a17.862,17.862,0,0,0-.173,2.13,9.572,9.572,0,0,0,.788,4.307,4.8,4.8,0,0,0,1.64,1.8,8.29,8.29,0,0,0,2.31,1.025,27.179,27.179,0,0,0,3.845.723c.516.071,1,.138,1.459.215,4.118.693,8.349,1.207,12.578,1.527,2.116.162,4.314.275,6.532.335.272.007.557.011.87.011.543,0,1.1-.011,1.636-.021h.014c.535-.01,1.088-.021,1.633-.021.33,0,.629,0,.915.012.118-2.853.269-5.708.45-8.487a1.465,1.465,0,0,1-.588.117c-.043,0-.088,0-.133,0-5.047-.352-11.7-.877-18.437-1.825-3.278-.461-6.394-1-9.262-1.614C15.54,125.982,13.545,125.56,11.653,124.963Zm162.275.335c.2,2.787.413,5.5.631,8.067a14.692,14.692,0,0,1,3-.365c.4-.021.814-.043,1.208-.078l4.2-.365c.279-.023.567-.044.822-.062h0c.46-.033.935-.067,1.4-.117.048-.006.1-.01.153-.014h0a.874.874,0,0,0,.692-.252,1.927,1.927,0,0,0,.046-1.093v0c-.012-.1-.023-.182-.028-.25-.05-.646-.122-1.3-.216-1.935q-.021-.147-.042-.3l0-.025a15.3,15.3,0,0,0-.295-1.656,2.241,2.241,0,0,0-.088-.274,2.684,2.684,0,0,1-.564.059,3.318,3.318,0,0,1-2.116-.809c-.385-.02-.777-.038-1.156-.054h0c-.439-.019-.893-.039-1.337-.064-.586-.032-1.192-.056-1.779-.078h0a42.274,42.274,0,0,1-4.525-.335ZM12.955,91.712a.985.985,0,0,0-.966.682A20.222,20.222,0,0,0,10.947,97.4a25.594,25.594,0,0,0,.118,5.106,34.73,34.73,0,0,0,1.01,5.052,47.469,47.469,0,0,0,1.632,4.845,1.034,1.034,0,0,0,1,.666,1.045,1.045,0,0,0,.867-.414.8.8,0,0,0,.054-.781A38.8,38.8,0,0,1,13.07,102.5a23.886,23.886,0,0,1-.142-4.829,18.852,18.852,0,0,1,.979-4.753.855.855,0,0,0-.086-.8A1.064,1.064,0,0,0,12.955,91.712Zm9.138,12.3a1.017,1.017,0,0,0-.727.285.915.915,0,0,0-.249.675,12.234,12.234,0,0,0,.49,3.246,11.691,11.691,0,0,0,1.364,2.985.948.948,0,0,0,.816.462,1.114,1.114,0,0,0,.957-.553.865.865,0,0,0-.056-.913,9.812,9.812,0,0,1-1.582-5.227.933.933,0,0,0-.324-.72A1.064,1.064,0,0,0,22.093,104.016Z" transform="translate(0 4.951)"/></g><g transform="translate(51.457)"><path d="M56.952.146c14.084,0,31.724,16.106,36.887,22.96,4.341,5.762,3.727,35.449,3.727,53.059,0,3.683-1.661,10.654-2.264,14.177-2.209,12.91-11.834,23.736-30.884,23.736-15.511,0-27.448-4.925-38.991-17.523C22.794,93.682,9.933,103.97,7.3,100.265c-6.87,0-12.615-64.35.874-83.651S42.868.146,56.952.146Z" transform="translate(7.187 6.065)" fill="#ffdbb4"/><path d="M33.46,134.208a2.854,2.854,0,0,1-1.57-.471,2.076,2.076,0,0,1-.921-1.3c-.122-.576-.257-1.152-.4-1.713-.27-1.051-.581-2.1-.924-3.108l-.132-.383c-.139-.4-.276-.805-.408-1.2v0c-.148-.44-.3-.9-.458-1.341l-.03-.1c-.012-.042-.025-.086-.037-.132l-.5,1.1-1.531,3.325a1.413,1.413,0,0,1-.543.632,1.385,1.385,0,0,1-.724.2,1.9,1.9,0,0,1-1.2-.457,1.639,1.639,0,0,1-.606-1.157l0-.051c-.009-.324-.02-.585-.035-.821a26.719,26.719,0,0,0-1.015-5.938l-.2.25a30.642,30.642,0,0,1-4.964,5.078,16.411,16.411,0,0,1-2.957,1.85,13.146,13.146,0,0,1-3.372,1.093,1.571,1.571,0,0,1-.274.024,1.829,1.829,0,0,1-1.567-.921,1.286,1.286,0,0,1,.1-1.373c.345-.509.676-1.029.985-1.547-.271-.127-.527-.259-.761-.393a15.192,15.192,0,0,1-4.6-4.148,16.235,16.235,0,0,1-1.691-2.792,19.642,19.642,0,0,1-1.143-3.039A28.758,28.758,0,0,1,.959,108.93a42.97,42.97,0,0,1,1.4-13.821,34.973,34.973,0,0,1,2.118-5.521c-.055-.146-.108-.295-.16-.439v0l-.013-.037a73.1,73.1,0,0,1-2.284-7.8,76.113,76.113,0,0,1-2.012-16.3,78.827,78.827,0,0,1,1.157-14.7A74.71,74.71,0,0,1,5.1,36.108a76.183,76.183,0,0,1,6.912-13.649,59.364,59.364,0,0,1,9.794-11.715,39.6,39.6,0,0,1,6.33-4.7,41.5,41.5,0,0,1,7.055-3.357A43.933,43.933,0,0,1,42.753.671,46.06,46.06,0,0,1,50.6,0c.374,0,.753,0,1.128.014a53.355,53.355,0,0,1,8.449.892,57.162,57.162,0,0,1,8.213,2.179A50.015,50.015,0,0,1,76.135,6.6a19.344,19.344,0,0,1,2.509,1.686l.2.154h0a16.961,16.961,0,0,1,5.745,3.75c.791-.063,1.585-.1,2.36-.1a25.914,25.914,0,0,1,7.9,1.2,26.508,26.508,0,0,1,6.59,3.146,22.737,22.737,0,0,1,5.371,4.931,20.028,20.028,0,0,1,3.609,7.374,25.4,25.4,0,0,1,.659,8.225l-.077.957a42.29,42.29,0,0,1-1.24,7.969,16.746,16.746,0,0,1-1.509,3.718,10.324,10.324,0,0,1-2.479,2.97,3.165,3.165,0,0,1-1.007.552,61.356,61.356,0,0,1,3.537,7.083,53.717,53.717,0,0,1,2.535,7.494,71.418,71.418,0,0,1,1.451,7.279c.348,2.38.587,4.845.712,7.329.119,2.387.136,4.861.049,7.351-.083,2.385-.264,4.857-.536,7.346-.26,2.372-.611,4.833-1.045,7.313-.41,2.349-.907,4.789-1.476,7.253-1.04,4.5-2.328,9.152-3.937,14.215a2.556,2.556,0,0,1-.962,1.271,2.635,2.635,0,0,1-1.513.518,1.854,1.854,0,0,1-1.5-.735,15.067,15.067,0,0,0-1.747-1.875,13.98,13.98,0,0,0-2.051-1.54,11.6,11.6,0,0,0-4.8-1.692,20.414,20.414,0,0,0-2.047-.09,18.834,18.834,0,0,1-2.12-.1,6.575,6.575,0,0,1-2.069-.581,5.672,5.672,0,0,1-2.091-1.758,27.222,27.222,0,0,1-4.7,1.317,26.8,26.8,0,0,1-4.862.448c-.358,0-.719-.007-1.075-.022a29.07,29.07,0,0,1-4.483-.533,26.085,26.085,0,0,1-4.386-1.274,21.692,21.692,0,0,1-4.039-2.075,17.966,17.966,0,0,1-3.442-2.936A2.77,2.77,0,0,1,57.526,113a2.44,2.44,0,0,1-.033-1.139,8.737,8.737,0,0,1,1.578-.4,40.225,40.225,0,0,0,8.146,3.712,32.73,32.73,0,0,0,4.346,1.075,30.076,30.076,0,0,0,4.516.441c.22,0,.438.007.649.007a19.262,19.262,0,0,0,4.841-.543,12.837,12.837,0,0,0,2.266-.812,11.5,11.5,0,0,0,2.112-1.292,14.1,14.1,0,0,0,1.721-1.582,25.39,25.39,0,0,0,4.164-3.376,29.372,29.372,0,0,0,3.458-4.181A33.2,33.2,0,0,0,98,100.134a35.42,35.42,0,0,0,1.919-5.161,40.3,40.3,0,0,0,1.445-10.011,80.619,80.619,0,0,0-.445-10.138l-.34-3.556c-.477-5.021-.954-10.369-1.085-15.7l.039,0a1.019,1.019,0,0,0,.954-1.1.861.861,0,0,0-.877-.9l-.076,0c-.531.034-1.085.051-1.695.051-1.06,0-2.135-.052-3.175-.1s-2.113-.1-3.172-.1c-.663,0-1.263.02-1.835.061a16.892,16.892,0,0,0-.6-4.62.948.948,0,0,0-.411-.524,1.208,1.208,0,0,0-.641-.187.818.818,0,0,0-.861.71A30.206,30.206,0,0,0,86.834,53c-1.841-.025-3.713-.1-5.523-.171h0c-2.219-.089-4.514-.18-6.771-.18-.88,0-1.693.013-2.487.041A7.294,7.294,0,0,1,70.74,49.8c-.1-.358-.2-.7-.313-1-.067-.189-.128-.362-.189-.527a28.347,28.347,0,0,1-1.6,5.031l-1.209,0c-3.071.014-6.7.062-10.339.31a72.285,72.285,0,0,0-10.218,1.356,2.4,2.4,0,0,1-.818-1.551c-.266-2.026-.569-3.816-.925-5.47a44.424,44.424,0,0,0-1.483-5.34l-.176-.5-.046-.131a26.931,26.931,0,0,1-3.164,4.1c-.641.692-1.351,1.4-2.17,2.163-.357.4-.725.8-1.082,1.185l0,0c-.369.4-.75.815-1.12,1.228.03.152.054.3.073.45a22.375,22.375,0,0,1,.083,5.077A24.356,24.356,0,0,1,33.507,64.9l-.044.272a14.54,14.54,0,0,1-.42,1.9,5.6,5.6,0,0,1-.785,1.659,9.226,9.226,0,0,1,1.145,1.6,9.024,9.024,0,0,1,.784,1.84,1.139,1.139,0,0,1-.192,1.025,1.369,1.369,0,0,1-1.071.56,1.052,1.052,0,0,1-.81-.375,9.667,9.667,0,0,0-2.186-1.867.175.175,0,0,1-.141.074.21.21,0,0,1-.1-.029,7.277,7.277,0,0,0-3.5-.769,10.7,10.7,0,0,0-4.742,1.073,6.433,6.433,0,0,0-1.766,1.353A6.589,6.589,0,0,0,18.511,75a8.538,8.538,0,0,0-.618,4.316,13.835,13.835,0,0,0,1.194,4.4,9.291,9.291,0,0,0,1.191,1.915,6.363,6.363,0,0,0,1.614,1.428,3.6,3.6,0,0,0,1.933.6,4.7,4.7,0,0,0,1.252-.192,3.645,3.645,0,0,0,1.055-.579l.2-.16a5.932,5.932,0,0,1,1.162-.755,3.057,3.057,0,0,1,1.267-.3,2,2,0,0,1,.6-.094,1.709,1.709,0,0,1,.99.307,1.848,1.848,0,0,1,.662.891l.022.064c.03.09.064.183.1.281a3.707,3.707,0,0,1,.309,1.629,3.648,3.648,0,0,1-1.01,2.181c-.1.108-.2.211-.307.306a34.217,34.217,0,0,1,8.487,19.055,43.3,43.3,0,0,1,.012,10.693,44.32,44.32,0,0,1-2.529,10.329c-.2.546-.429,1.106-.687,1.711a1.855,1.855,0,0,1-.8.9A2.32,2.32,0,0,1,33.46,134.208Zm-17.038-38.2h0a1.115,1.115,0,0,0-.945.537.861.861,0,0,0,.023.892l.023.038a19.152,19.152,0,0,1,1.889,4.563c.091.289.194.616.3.928a.96.96,0,0,0,.949.689,1.07,1.07,0,0,0,.862-.412.861.861,0,0,0,.1-.807l-.132-.408c-.06-.188-.121-.381-.175-.551a21.1,21.1,0,0,0-2.079-5.006.942.942,0,0,0-.813-.463Zm7.343-73.334a.987.987,0,0,0-.659.261c-3.372,2.987-5.051,7.29-6.675,11.451-.473,1.212-.962,2.465-1.48,3.646a1.027,1.027,0,0,0,.08,1,1.123,1.123,0,0,0,.9.523.783.783,0,0,0,.731-.52c.517-1.179,1-2.439,1.473-3.659,1.527-3.963,3.106-8.06,6.228-10.905l.144-.13a.843.843,0,0,0,.263-.963A1.117,1.117,0,0,0,23.766,22.672Zm52.685.007h0a1.052,1.052,0,0,0-.684.264,1.154,1.154,0,0,0-.371.6.792.792,0,0,0,.45.931l.041.02a9.154,9.154,0,0,1,2.478,1.654,12.1,12.1,0,0,1,1.864,2.234A33.341,33.341,0,0,1,82.885,33.7l.076.177a.773.773,0,0,0,.725.522,1.125,1.125,0,0,0,.9-.52,1.036,1.036,0,0,0,.089-1l-.284-.66A30.273,30.273,0,0,0,81.5,26.747a11.4,11.4,0,0,0-4.616-3.971,1.06,1.06,0,0,0-.438-.1ZM82.6,20.325a.794.794,0,0,0-.578.245,1.076,1.076,0,0,0-.281.572,1.1,1.1,0,0,0,.1.679.986.986,0,0,0,.569.483,12,12,0,0,1,4.222,2.582,21,21,0,0,1,3.187,3.837.969.969,0,0,0,.821.449,1.125,1.125,0,0,0,.966-.559.841.841,0,0,0-.076-.9,23.372,23.372,0,0,0-3.7-4.4,14.232,14.232,0,0,0-4.892-2.937,1.02,1.02,0,0,0-.334-.06ZM29,82.23a2.776,2.776,0,0,1-.563-.059c-1.319-.274-1.879-1.243-2.472-2.269-.174-.3-.354-.612-.555-.905l-.15-.215-.116-.169-.008-.012a4.762,4.762,0,0,0-1.96-1.952.3.3,0,0,1-.195-.266.224.224,0,0,1,.13-.224l.448-.217a6.581,6.581,0,0,1,2.821-.817,4.441,4.441,0,0,1,1.5.271,6.384,6.384,0,0,1,2.052,1.218,4.713,4.713,0,0,1,1.362,1.917,2.983,2.983,0,0,1,.166,1.273,3.042,3.042,0,0,1-.461,1.323,2.292,2.292,0,0,1-.865.826A2.354,2.354,0,0,1,29,82.23Z" transform="translate(0)"/></g><g transform="translate(104.649 55.702)"><path d="M26.854,47.7a9.466,9.466,0,0,1-3.591-.717,10.143,10.143,0,0,1-2.344-1.347,9.985,9.985,0,0,1-1.908-1.925,1.972,1.972,0,0,1-.4-1.527A2.2,2.2,0,0,1,19.47,40.8a2.109,2.109,0,0,1,1.256-.437,1.822,1.822,0,0,1,.28.022,1.939,1.939,0,0,1,1.3.859l.077.106a6.7,6.7,0,0,0,2.455,2.061,5.571,5.571,0,0,0,2.435.568,5.393,5.393,0,0,0,.6-.034A6.339,6.339,0,0,0,30.553,43a12.552,12.552,0,0,0,2.27-1.9c.163-.166.335-.346.558-.584a.883.883,0,0,1,.463-.357.949.949,0,0,1,.3-.048,1.025,1.025,0,0,1,.84.439.937.937,0,0,1,.159.617,5.662,5.662,0,0,1-.671,2.193,7.32,7.32,0,0,1-1.435,1.843,9.226,9.226,0,0,1-2.173,1.516,9.048,9.048,0,0,1-2.412.828A8.881,8.881,0,0,1,26.854,47.7Zm2.527-14.319h0a8.675,8.675,0,0,1-3.094-.624,15.627,15.627,0,0,1-3.639-2.066,1.4,1.4,0,0,1-.508-.808,1.674,1.674,0,0,1,.072-.907,2.064,2.064,0,0,1,.612-.886,1.491,1.491,0,0,1,.955-.373,1.354,1.354,0,0,1,.739.227l.246.19,0,0a19.7,19.7,0,0,0,2.278,1.585,5.61,5.61,0,0,0,2.73.871,2.947,2.947,0,0,0,1.154-.227A3.224,3.224,0,0,0,32,29.6a3.3,3.3,0,0,0,.625-2.654,5.012,5.012,0,0,0-1.33-2.354,9.7,9.7,0,0,0-2.013-1.625.625.625,0,0,1-.169-.718.937.937,0,0,1,.31-.447.952.952,0,0,1,.594-.2,1.266,1.266,0,0,1,.214.019,6.749,6.749,0,0,1,2.374.858,5.386,5.386,0,0,1,1.6,1.473,5.852,5.852,0,0,1,1.019,3.909,6.442,6.442,0,0,1-.522,2.051,5.985,5.985,0,0,1-1.177,1.763A5.623,5.623,0,0,1,29.381,33.378ZM9.247,19.4a2.029,2.029,0,0,1-1.317-.516,2.052,2.052,0,0,1-.691-1.327,14.95,14.95,0,0,1,.079-3.892c.047-.378.1-.769.129-1.191A2.33,2.33,0,0,1,8.331,10.8,2.718,2.718,0,0,1,10,10.217a2.061,2.061,0,0,1,1.265.4,1.876,1.876,0,0,1,.7,1.244,10.444,10.444,0,0,1-1.09,6.435,2.064,2.064,0,0,1-.728.842A1.679,1.679,0,0,1,9.247,19.4ZM38.8,18.513a1.775,1.775,0,0,1-1.392-.6,5.44,5.44,0,0,1-.85-1.442,6.285,6.285,0,0,1-.433-1.738,3.684,3.684,0,0,1,1-3.162,2.085,2.085,0,0,1,.161-.245,2.274,2.274,0,0,1,1.75-1.007,1.9,1.9,0,0,1,.531.078,2.559,2.559,0,0,1,1.71,1.492,5.279,5.279,0,0,1,.211,2.886A9.664,9.664,0,0,1,40.62,17.5a1.767,1.767,0,0,1-.756.747A2.291,2.291,0,0,1,38.8,18.513ZM.327,9.24a.322.322,0,0,1-.269-.165.36.36,0,0,1-.022-.353A12.265,12.265,0,0,1,2.786,5.241a17,17,0,0,1,3.68-2.514A15.819,15.819,0,0,1,10.835,1.2l.467-.082A11.365,11.365,0,0,1,13.208.913a2.946,2.946,0,0,1,2.353.878,2,2,0,0,1,.473,1.421,1.3,1.3,0,0,1-.473.929,3.624,3.624,0,0,1-2.485.729c-.2,0-.4-.005-.594-.01h-.007c-.188,0-.4-.01-.614-.01-.2,0-.369,0-.532.014a16.8,16.8,0,0,0-3.7.63A25.127,25.127,0,0,0,.5,9.184.306.306,0,0,1,.327,9.24Zm45-1.883h0l-.2-.049a11.129,11.129,0,0,1-2.158-.842l-.7-.345a19.458,19.458,0,0,0-2.5-1.067,29.52,29.52,0,0,0-5.7-1.259,2.328,2.328,0,0,1-1.143-.434,1.714,1.714,0,0,1-.64-.974,1.744,1.744,0,0,1,.2-1.461,1.86,1.86,0,0,1,.9-.778A2.029,2.029,0,0,1,34.156,0,2.265,2.265,0,0,1,34.6.045l.357.073a25.5,25.5,0,0,1,6.156,2A12.447,12.447,0,0,1,43.821,3.9a7.906,7.906,0,0,1,1.914,2.474c.067.517,0,.645-.064.732l-.02.025-.017.024a.5.5,0,0,1-.306.2Z" transform="translate(0 0)"/></g></g><g transform="translate(-1521.681 750.115)"><path d="M70.643,13.41c-.373-6.143-6.336-8.745-9.305-9.517C51.449.873,43.036,8.622,31.244,8.78A25.175,25.175,0,0,1,25.068,8C17.038,5.63,9.017,3.109,1.138,0-.021.352-.364,2.317.432,3.436c7.546,3.477,19.091,6.59,25.188,6.944C25.5,20.612,21.345,30.9,15.6,36.559c9.132,13.119,30.429,17.433,42.962,10.547,6.165-2.4,12.671-23.922,12.077-33.7" transform="translate(0.682 0.828)" fill="#fff"/><path d="M48.444,54.675h0l-3.122-.294c-5.294-.507-10.891-1.169-16-3.172a28.826,28.826,0,0,1-3.727-1.77,25.254,25.254,0,0,1-3.481-2.384,24.783,24.783,0,0,1-3.168-3.108A27.488,27.488,0,0,1,16.161,40l-.053.06a2.413,2.413,0,0,1-.756-1.733,2.989,2.989,0,0,1,.659-2.085l.026.053c.013-.026.026-.052.039-.077l.014-.026-.011-.045a16.152,16.152,0,0,1,1.063-1.268l0,.008a29.587,29.587,0,0,0,3.506-4.677,34.656,34.656,0,0,0,2.706-5.508,37.251,37.251,0,0,0,1.777-6.1,37,37,0,0,0,.718-6.451.992.992,0,0,1-.305.034c-1.613,0-7.966-1.506-13.872-3.289C8.422,7.919,5.649,6.958,3.654,6.124,1.292,5.135.063,4.346,0,3.779-.024,3.53.18,3.323.61,3.165A102.938,102.938,0,0,0,11.7,7.377a.132.132,0,0,1,.077-.026.118.118,0,0,1,.111.083A86.584,86.584,0,0,0,25.857,10.42c0-.276-.013-.57-.025-.874-3.771-.954-7.828-2.2-12.4-3.807-4.11-1.445-8.138-3-12.247-4.6-.1-.005-.163-.127-.16-.318,0-.331.211-.82.638-.82a.624.624,0,0,1,.145.018C4.477.83,7.287,1.826,10.262,2.881c3.947,1.4,8.027,2.847,12.057,3.949a59.922,59.922,0,0,0,5.97,1.341A34.58,34.58,0,0,0,34,8.686h.111A21.559,21.559,0,0,0,39.442,7.7c1.746-.528,3.5-1.218,5.192-1.885,1.789-.7,3.638-1.432,5.484-1.972a20.4,20.4,0,0,1,5.646-.91,35.749,35.749,0,0,1,3.976.3,22.282,22.282,0,0,1,4.094.933,14.906,14.906,0,0,1,3.81,1.895,12.2,12.2,0,0,1,3.124,3.187,44.566,44.566,0,0,1,.568,16.9,49.85,49.85,0,0,1-1.982,8.326,43.5,43.5,0,0,1-3.3,7.539,33.735,33.735,0,0,1-3.475,5.1A24.93,24.93,0,0,1,58.439,51.1,18.506,18.506,0,0,1,53.7,53.711,15.689,15.689,0,0,1,48.444,54.675ZM26.574,9.716a28.388,28.388,0,0,1,.242,7.593,34.424,34.424,0,0,1-1.59,7.413,37.493,37.493,0,0,1-3,6.761,33.431,33.431,0,0,1-4,5.636,65.586,65.586,0,0,0,5.62,5.732,24.652,24.652,0,0,0,4.969,3.478C32.146,48.056,35.8,48.8,41.377,49.58l1.445.224a51.139,51.139,0,0,0,6.548.7,15.628,15.628,0,0,0,7.893-3.223,23.97,23.97,0,0,0,3.426-3.152A31.878,31.878,0,0,0,63.7,40.189a39.747,39.747,0,0,0,2.538-4.534,45.382,45.382,0,0,0,2.016-4.949,46.934,46.934,0,0,0,1.44-5.181,43.846,43.846,0,0,0,.811-5.23l.007-.383a47.582,47.582,0,0,0-.162-5.338,20.218,20.218,0,0,0-1.1-5.117,1.048,1.048,0,0,1-.525-.534,29.294,29.294,0,0,0-3.261-1.865,22.681,22.681,0,0,0-3.067-1.229,18.567,18.567,0,0,0-5.664-.884,20.3,20.3,0,0,0-3.025.232,27.025,27.025,0,0,0-2.924.613c-1.925.508-3.851,1.2-5.713,1.872l-.214.077c-1.8.646-3.83,1.379-5.939,1.921a25.59,25.59,0,0,1-6.415.873,21.972,21.972,0,0,1-5.924-.817ZM37.648,22.983a10.81,10.81,0,0,1-2.456-.286,12.417,12.417,0,0,1-2.414-.845.193.193,0,0,1-.081-.2c.007-.054.036-.111.1-.111h.016a12.363,12.363,0,0,0,1.883.144,13.378,13.378,0,0,0,4.47-.783,10.988,10.988,0,0,0,3.311-1.736,14.939,14.939,0,0,1,2.43-1.432.567.567,0,0,1,.159-.023.815.815,0,0,1,.7.543,1.055,1.055,0,0,1-.029.879,5.936,5.936,0,0,1-2.737,2.582A12.386,12.386,0,0,1,39.625,22.8,10.954,10.954,0,0,1,37.648,22.983Zm30.743-1.911a6.349,6.349,0,0,1-2.13-.4,9.4,9.4,0,0,1-2.113-1.09A10.267,10.267,0,0,1,62.3,17.975a8.226,8.226,0,0,1-1.327-1.948.1.1,0,0,1,.016-.063.093.093,0,0,1,.079-.031,6.085,6.085,0,0,1,1.638.96c.106.075.189.135.233.164a8.318,8.318,0,0,0,2.438,1.292,22.271,22.271,0,0,0,2.574.668c.587.127,1.194.259,1.783.423a.827.827,0,0,1,0,1.419A4.117,4.117,0,0,1,68.391,21.072Z" transform="translate(0)"/></g><g transform="translate(-1540.781 737.45)"><path d="M53.291,29.885h0a14.712,14.712,0,0,1-3.01-.315,15.342,15.342,0,0,1-5.544-2.38,14.95,14.95,0,0,1-2.319-1.974,14.018,14.018,0,0,1-2.96-4.637,14.308,14.308,0,0,1-.932-5.848,2.059,2.059,0,0,1-1.388-.756,4.04,4.04,0,0,1-.561-1.293c-.366-1.2-.781-2.553-3.558-3.014A5.4,5.4,0,0,1,30.707,8.13a63.454,63.454,0,0,0-6.742-.379,48.861,48.861,0,0,0-7.674.586,42.094,42.094,0,0,0-7.582,1.94c-.441.185-.909.355-1.361.52a16.109,16.109,0,0,0-2.307.976,3.348,3.348,0,0,0-1.513,1.49,3.752,3.752,0,0,0,.187,2.951,1.485,1.485,0,0,1-1.45,1.407,1.247,1.247,0,0,1-.909-.392s0,0,0,0v0A10.257,10.257,0,0,1,.047,13.646,4.663,4.663,0,0,1,.432,10.97c.722-1.484,2.345-2.622,4.962-3.478a49.805,49.805,0,0,1,7.393-1.555l.465-.074a49.851,49.851,0,0,1,10.487-1.1c.366,0,.737,0,1.1.012.45.019.925.026,1.428.034h0a16.676,16.676,0,0,1,4.331.418l.019.005A3.332,3.332,0,0,1,32.536,3.6,19.2,19.2,0,0,1,36.62,2.352a49.194,49.194,0,0,1,5.571-.79c2.056-.183,4.2-.276,6.373-.276a67.967,67.967,0,0,1,6.962.343,41.918,41.918,0,0,1,6.247,1.079A16.606,16.606,0,0,1,66.454,4.6,4.747,4.747,0,0,1,68.72,7.366c.127,0,.254,0,.379,0,.777,0,1.517.061,2.112.109l.083.007c.643.053,1.251.1,1.859.1a7.372,7.372,0,0,0,2.4-.36,4.733,4.733,0,0,1,2.062-3.153,15.681,15.681,0,0,1,4.6-2.257A35.314,35.314,0,0,1,88.181.453,43.853,43.853,0,0,1,94.346,0a25.4,25.4,0,0,1,5.381.5,9.749,9.749,0,0,1,1.487.258,1.848,1.848,0,0,1,.566.2c.2.029.4.061.614.1a1.478,1.478,0,0,1,.906.523,1.943,1.943,0,0,1,.413.96,1.819,1.819,0,0,1-.873,1.932,2.77,2.77,0,0,0-1.22,1.127,2.262,2.262,0,0,0-.216,1.636,1.826,1.826,0,0,1-.082,1.154,1.68,1.68,0,0,1-.68.768,34.973,34.973,0,0,1-1.168,8.579,18.777,18.777,0,0,1-1.635,4,14.351,14.351,0,0,1-2.673,3.449,15.106,15.106,0,0,1-3.682,1.8,11.543,11.543,0,0,1-3.541.577,9.922,9.922,0,0,1-4.3-.962,10.467,10.467,0,0,1-3.481-2.7,12.357,12.357,0,0,1-1.651-2.525,14.514,14.514,0,0,1-1.1-3.059,17.282,17.282,0,0,1-.455-3.52,20.782,20.782,0,0,1,.271-3.909,1.272,1.272,0,0,1-.377-.4c-.061-.1-.119-.2-.184-.335a6.019,6.019,0,0,0-2.789-.555,8.513,8.513,0,0,0-1.165.08A5.163,5.163,0,0,0,69.273,11.6c-.129.134-.263.273-.4.414a1.258,1.258,0,0,1-.891.664l-.055.309a48.526,48.526,0,0,1-1.614,7.044,18.233,18.233,0,0,1-1.452,3.287,13.19,13.19,0,0,1-2.2,2.871,13.545,13.545,0,0,1-9.366,3.7Zm.626-23.621a32.545,32.545,0,0,0-5.54.388,13.847,13.847,0,0,0-5.151,1.907c-1.294.658-1.747,1.948-2.185,3.195a11.651,11.651,0,0,1-.629,1.552A3.348,3.348,0,0,1,39.4,14.523a17.108,17.108,0,0,0,1.783,5.669A15.248,15.248,0,0,0,44.45,24.43a14.1,14.1,0,0,0,4.229,2.654A12.512,12.512,0,0,0,53.338,28h0a11.069,11.069,0,0,0,3.775-.651,10.794,10.794,0,0,0,3.414-2.011,12.669,12.669,0,0,0,2.757-3.456A18.045,18.045,0,0,0,65.091,16.9a34.952,34.952,0,0,0,.989-5.443c-.42-.369-.812-.735-1.192-1.088a17.12,17.12,0,0,0-3.436-2.689,12.559,12.559,0,0,0-5.322-1.4l-.206,0C55.269,6.273,54.593,6.264,53.918,6.264Zm24.617,5.607a24.781,24.781,0,0,0,.517,4.256,16.7,16.7,0,0,0,1.4,4.094A9.44,9.44,0,0,0,82.977,23.4a7.3,7.3,0,0,0,3.875,1.525c.357.031.717.046,1.071.046a10.264,10.264,0,0,0,3.685-.643,6.4,6.4,0,0,0,2.882-2.121,16.154,16.154,0,0,0,1.766-3.106,20.479,20.479,0,0,0,1.114-3.386,31.48,31.48,0,0,0,.78-7.04,6.508,6.508,0,0,1-1.384-2.327,4.6,4.6,0,0,0-1.036-1.768A3.587,3.587,0,0,0,93.2,3.841c-.269,0-.561.013-.87.039a23.279,23.279,0,0,0-5.424.916,10.65,10.65,0,0,0-3.273,1.62,7.29,7.29,0,0,0-1.769,1.927,12.088,12.088,0,0,0-.914,1.834c-.445,1.049-.766,1.807-1.707,1.808A2.638,2.638,0,0,1,78.534,11.871Z" transform="translate(-3.231 2.238)"/></g></g></g></svg>