<svg xmlns="http://www.w3.org/2000/svg" xmlns:xlink="http://www.w3.org/1999/xlink" width="300" height="300" viewBox="0 0 300 300"><defs><clipPath id="b"><rect width="300" height="300"/></clipPath></defs><g id="a" clip-path="url(#b)"><rect width="300" height="300" fill="#fce21e"/><circle cx="150" cy="150" r="150" fill="#fff" opacity="0"/><g transform="translate(-167.07 8.333)"><g transform="translate(194.07 20.667)"><g transform="translate(0 99.296)"><path d="M253.648,61.007l-11.189,1.1c-17.863,1.365-35.719,4.217-53.445,5.928a1.146,1.146,0,0,0-1.83-.1c-1.769-.155-3.751-1.507-5.354-.1-.052-.007-.1-.016-.157-.021a112.463,112.463,0,0,1-6.739-17.171c-1.222-3.6-2.865-7.079-5.9-9.494-5.183-3.6-17.06-10.9-23.146-10.592a4.52,4.52,0,0,0-1.443-2.94c1.838-3.135-5.512-5.181-6.031-4.818.332-10.475-4.593-19.572-15.454-21.658-9.73-2.028-23.569-2.369-28.8,7.8-.575-.065-6.455-.1-7.024-.032-.885-1.121-10.6,9.5-6.617,13.2C44.921,37.86,24.682,35.98,14.83,80.263c-1.332,4.16-1.429,8.712-2.835,12.779-5,11.688-9.062,24.135-10.072,36.853-2.439.625-2.72,4.928.106,5.551a6.607,6.607,0,0,1,2.769,1.18c-.615,10.422,1.9,34.231,3.492,34.157,3.237,10.307,17.677,13.215,27.9,9.593-1.762,3.317,0,5.4,0,7.174,36.784,1.392,77,.59,113.778,2.5,4.7-.067,9.652,1.156,14.291.452,2.83-.679,2.834-5.129-.036-5.68l12.541-2.725c-.28-.106,5.169-3.732,9.288-10.509,3.834-7.58,1.225-16.731,2.962-24.976,13.568-1.11,27.36-1.585,40.78-3.883,1.83,5.477,9.75-1.073,12.268-3.708l-.009-.012a3.059,3.059,0,0,0,2.228-2.828,3.715,3.715,0,0,0,.214-4.123c3.756-21.68,9.481-43.816,11.551-65.7a4.631,4.631,0,0,0,2-.977L258,65.334a2.488,2.488,0,0,0-.468-3.947C256.2,60.63,255.093,60.865,253.648,61.007Z" transform="translate(1.567 0)" fill="#ffdbb4"/><path d="M156.472,184.629c-4.94,0-12.19-.484-21.549-1.437-4.119-.42-12.593-.815-25.188-1.175-10.668-.305-22.209-.529-30.637-.693h-.025c-4.4-.085-7.87-.153-9.93-.207l-.565-.015c-5.834-.168-11.714-.254-17.477-.254s-11.571.085-17.263.254v-7.055l32.65-16.2,29.255-16.462,14.1-6.533,2.873,1.829,23.508,7.578,14.366,1.829,11.754-1.829v20.121l2.351,18.814c-.26.477-1.084.839-2.449,1.078A35.8,35.8,0,0,1,156.472,184.629ZM44.561,131.868H38.493l-35.31-8.53L0,122.287a87.985,87.985,0,0,1,1.315-9.4c.58-2.991,1.334-6.1,2.241-9.253a152.883,152.883,0,0,1,6.491-17.89,41.21,41.21,0,0,0,1.482-6.573,44.979,44.979,0,0,1,1.353-6.207,92.832,92.832,0,0,1,7.3-21.738c.711-1.407,1.469-2.764,2.252-4.034.768-1.246,1.586-2.448,2.43-3.573a42.343,42.343,0,0,1,5.412-5.962,53.612,53.612,0,0,1,13.139-8.572c4.914-2.377,10.251-4.4,16.43-6.744h0c5.594-2.122,11.935-4.527,18.723-7.531a3.048,3.048,0,0,1-.951-2.205,7.1,7.1,0,0,1,.575-2.8,20.593,20.593,0,0,1,3.573-5.611A17.08,17.08,0,0,1,83.69,2.27a2.715,2.715,0,0,1,1.3-.739.234.234,0,0,1,.195.082l.056,0,.121-.006.155-.005c.408-.012,1.148-.018,2.084-.018,1.9,0,4.259.027,4.608.067A15.224,15.224,0,0,1,93.19,0l2.159,1.613L90.635,9.36,113.6,27.942V42.784l7.27,6.879,4.155-6.879,5.855-7.79,4.161-12.627-1.417-8.319,2.849-.269c.014.567.011,1.146-.007,1.72a.45.45,0,0,1,.234-.042,10.838,10.838,0,0,1,4.627,1.711,3.967,3.967,0,0,1,1.2,1.218,1.813,1.813,0,0,1-.031,1.93,4.511,4.511,0,0,1,1.443,2.94c.125-.006.253-.009.381-.009a17.1,17.1,0,0,1,5.454,1.161,52.129,52.129,0,0,1,6.345,2.818c1.95,1.006,4.015,2.176,6.137,3.479,2.143,1.315,3.809,2.436,4.829,3.144a14.992,14.992,0,0,1,3.632,4.3,28.2,28.2,0,0,1,2.27,5.19l.288.877.3.9.3.9a99.231,99.231,0,0,0,5.855,14.492c.039,0,.079.01.114.015h.007l.035.005a2.5,2.5,0,0,1,1.72-.634,7.667,7.667,0,0,1,2,.378,9.263,9.263,0,0,0,1.635.356,1.412,1.412,0,0,1,.953-.406.985.985,0,0,1,.845.458l.032.049-22.038,4.343L150.49,116.1l-12.661-10.281-6.8,1.011L113.085,113.3l-20.873,5.424Z" transform="translate(3.515 7.299)"/><path d="M33.4,89.116v0c1.481-5.608,2.625-10.224,3.6-14.529.368-1.624.737-3.276,1.094-4.874l0-.012c.848-3.8,1.725-7.728,2.663-11.577,2.628-10.793,5.651-21.837,8.985-32.827.68-2.241,1.393-4.536,2.121-6.821l.507-1.586.391-1.264c.6-1.93,1.344-3.9,3.121-4.97a16.072,16.072,0,0,1,5.751-1.632c.522-.082,1.014-.159,1.5-.248l1.592-.3c2.338-.437,4.744-.868,7.152-1.283,11.373-1.957,22.967-3.548,34.459-4.729,11.846-1.217,24-2.033,36.112-2.426L143.653,0,143,3.659c-.156.051-.316.095-.476.13-.2,2.1-.442,4.306-.722,6.551l-4.07,22.692c-.735,4.205-1.434,8.431-2.03,12.062l-.877,4.323-.543,2.686c-1.106,5.49-2.272,11.4-3.309,17.385a2.85,2.85,0,0,1,.353.7l-.076.325-.054.217-.054.213a13.3,13.3,0,0,1-1.78,4.234,6.3,6.3,0,0,1-3.613,2.629,31.3,31.3,0,0,1-5.67.821c-.647.054-1.315.11-1.961.178l-.279.03L73.781,83.793c-4.613.519-9.686,1.1-15.963,1.839l-4.612.542c-1.115.129-2.245.255-3.338.377-5.237.583-10.652,1.187-15.89,2.3a1.414,1.414,0,0,0-.58.263Zm-.621-.288h0a1.7,1.7,0,0,0-.993-.3H31.7c-5.527,0-10.9-1.862-15.5-3.607l-.762-.291-2.125-.817c-1.956-.75-4.235-1.608-6.543-2.309l-.895-.27L5.415,81.1A24.45,24.45,0,0,0,.238,80.06L0,80.047l.508-.266a1.184,1.184,0,0,0,.2-.13c.346.026.671.038.994.038a10.83,10.83,0,0,0,1.937-.169,18.181,18.181,0,0,0,5.45-1.926l.758-.411.311-.165.205-.107.2-.1a7.4,7.4,0,0,1,3.383-.937,6.3,6.3,0,0,1,1.312.142,18.408,18.408,0,0,1,4.7,1.943c.364.192.74.39,1.111.577l.334.166.225.109.23.107.232.106a11.373,11.373,0,0,0,4.453,1.19,2.931,2.931,0,0,0,3.128-2.271,4.764,4.764,0,0,0-.6-3.84c.038,0,.087-.006.138-.006a7.65,7.65,0,0,1,2.447.732,10.462,10.462,0,0,0,2.651.832l.113.01L32.776,88.827Z" transform="translate(115.086 62.556)" fill="#fff"/><path d="M168.242,186.725a.979.979,0,0,1-.726-.322,4.567,4.567,0,0,1-1.017-1.8,13.815,13.815,0,0,1-.42-2.042h0v0c-.035-.227-.071-.461-.11-.691-.275-1.611-.525-3.284-.763-5.115-.5-3.85-.776-7.02-.866-9.976-.1-3.4-.064-6.86.12-10.272.09-1.663.2-3.45.435-5.256.106-.832.2-1.529.3-2.231.039-.262.083-.527.134-.809l-2.824.319c-4.136.462-8.548.918-13.022.988h-.025a1.411,1.411,0,0,1-1.148-.57,1.621,1.621,0,0,1-1.44.77h-.008c-6.213-.023-11.986-2.11-17.3-4.362-1.328-.563-2.667-1.158-3.962-1.732l-.005,0c-1.428-.634-2.9-1.289-4.369-1.9-1.076-.452-2.2-.857-3.29-1.248a47.86,47.86,0,0,1-4.656-1.862l-6.692,3.512a2.752,2.752,0,0,1-1.1,1.538,5.93,5.93,0,0,1-1.252.671,5.2,5.2,0,0,1-2,.4,5.438,5.438,0,0,1-.56-.029c-6.12,3.208-10.818,5.666-15.231,7.971l-5.081,2.65c-2.938,1.53-5.9,3.081-8.759,4.58-7.073,3.706-14.387,7.538-21.635,11.2l-.75.378a91.371,91.371,0,0,1-11.2,4.889,19.908,19.908,0,0,0,.057,3l.02.228c.009.095.018.19.029.29v.011a9.012,9.012,0,0,1,.059,1.821,2.29,2.29,0,0,1-.714,1.545,1.3,1.3,0,0,1-.853.32,1.008,1.008,0,0,1-.935-.55,3.515,3.515,0,0,1-.284-1.78,15.383,15.383,0,0,1,.274-1.959c.055-.3.108-.583.147-.847a12.881,12.881,0,0,1,.288-1.463,39.877,39.877,0,0,1-4.813,1.129,29.808,29.808,0,0,1-4.864.419,24.542,24.542,0,0,1-3.967-.317,13.858,13.858,0,0,1-3.144-.911,15.652,15.652,0,0,1-2.8-1.551,19.936,19.936,0,0,1-2.488-2.055,27.088,27.088,0,0,1-2.207-2.425,31.472,31.472,0,0,1-3.735-5.823,31.881,31.881,0,0,1-2.379-6.5,44.738,44.738,0,0,1-1.147-7.793c-.177-2.646-.188-5.354-.174-7.886.018-3.109.088-5.857.216-8.4.151-3.006.381-5.744.7-8.372a9.065,9.065,0,0,0-2.013-.285c-.107,0-.212,0-.312.01a1.616,1.616,0,0,1-.662.59,1.947,1.947,0,0,1-.855.195,1.982,1.982,0,0,1-.233-.014,1.051,1.051,0,0,0-.3,1c.132.52.668,1.064,1.591,1.618a11.873,11.873,0,0,0,2.041.954.421.421,0,0,1,.267.472.341.341,0,0,1-.351.3h-.02l-.291-.014c-1.81-.1-3.629-.412-4.667-2.055a3.158,3.158,0,0,1-.483-2.082,3.386,3.386,0,0,1,.9-1.9,127.151,127.151,0,0,1,3.247-16.521l.008-.034c.149-.614.3-1.249.454-1.873,1.337-5.547,2.89-11.383,4.747-17.841l.762-2.647c1.289-4.466,2.69-9.241,4.2-13.9C16,67.348,17.623,62.891,19.3,58.836c1.038-2.5,2.031-4.649,3.035-6.557a46.436,46.436,0,0,1,3.812-6.13,43.146,43.146,0,0,1,4.388-5.039A45.018,45.018,0,0,1,35.646,36.8a60.768,60.768,0,0,1,10.9-6.151c3.768-1.691,7.676-3.133,11.682-4.584l.351-.127c3.9-1.411,8.066-2.939,12.114-4.544,1.833-.727,3.656-1.568,5.418-2.381,1.647-.76,3.351-1.546,5.057-2.236-.116-.212-.228-.424-.332-.632l-.065.055h0l-.032.023a.785.785,0,0,1-.451.133,1.087,1.087,0,0,1-.72-.284,1.441,1.441,0,0,1-.514-1.216,2.671,2.671,0,0,1,.519-1.238l.072-.1c.514-.721.994-1.485,1.457-2.224.136-.217.291-.463.441-.7l.39-.613A25.451,25.451,0,0,1,85.47,5.346,7.648,7.648,0,0,1,87.57,3.9a.073.073,0,0,1,.011-.071.76.76,0,0,1,.516-.24.192.192,0,0,1,.129.038,12.315,12.315,0,0,1,4.258-.645c1.188,0,2.391.1,3.426.2L96.4,1.616A2.634,2.634,0,0,1,97.336.387,2.173,2.173,0,0,1,98.579,0a2.28,2.28,0,0,1,2.2,1.674,2.811,2.811,0,0,1,.064,1.166,15.721,15.721,0,0,1-2.072,5.142,12.639,12.639,0,0,1-2.589,3.409c1.933,1.8,3.95,3.551,6,5.193a73.984,73.984,0,0,0,7.045,4.986c.66.413,1.339.817,2,1.208a47.306,47.306,0,0,1,4.4,2.842,17.125,17.125,0,0,1,2.6,2.374,10.064,10.064,0,0,1,1.849,2.98,8.365,8.365,0,0,1,.524,3.6,16.436,16.436,0,0,1-.682,3.6l-.078.268c-.082.277-.169.554-.261.847-.677,2.154-1.445,4.594.031,6.547a12.04,12.04,0,0,0,2.261,2.106c.3.233.606.474.9.719a24.634,24.634,0,0,1,2.659,2.606,21.548,21.548,0,0,1,4.148,6.889l.082.232a15.179,15.179,0,0,1,.841,3.644,6.929,6.929,0,0,1-.543,3.613.676.676,0,0,1-.637.388.844.844,0,0,1-.818-.578,15.44,15.44,0,0,1-.388-2.326,18.455,18.455,0,0,0-.3-1.975,16.268,16.268,0,0,0-1.625-4.218,22.846,22.846,0,0,0-5.586-6.632l-.677-.551a15.143,15.143,0,0,1-2.4-2.334,6.428,6.428,0,0,1-1.343-3.045,13.71,13.71,0,0,1,.877-5.971l0-.005c.144-.477.293-.97.424-1.454a8.268,8.268,0,0,0,.113-4.839,20.323,20.323,0,0,1-1.557,2.1c-.188.232-.365.452-.534.668-1.015,1.3-2.049,2.61-3.05,3.877l-.135.171-.752.952c-1.492,1.892-2.772,3.6-3.913,5.223-.6.858-1.18,1.694-1.666,2.4-.226.329-.507.664-.778.988v0c-.227.271-.461.551-.667.83a1.075,1.075,0,0,1-.1.977,1.816,1.816,0,0,1-1.444.868c-.893,0-1.929-.811-3.081-2.411A29.165,29.165,0,0,1,97.8,45.188l-.05-.1-.018-.036c-.9-1.732-1.7-3.546-2.475-5.3-.782-1.775-1.591-3.61-2.506-5.36a83.826,83.826,0,0,0-6.422-10.414c-.548-.755-1.13-1.5-1.692-2.227-.923-1.187-1.877-2.415-2.7-3.693A27.6,27.6,0,0,1,76.689,21.7c-1.948,1.077-4.049,2.035-5.736,2.8h0c-3.218,1.468-6.587,2.747-9.844,3.985l-.006,0c-.931.354-1.894.719-2.837,1.083l-1.254.487c-4.129,1.612-7.563,3.028-10.907,4.7A51.054,51.054,0,0,0,36.12,41.13a37.52,37.52,0,0,0-4.84,4.879,45.557,45.557,0,0,0-3.918,5.567,60.08,60.08,0,0,0-3.169,6.062C23.3,59.589,22.455,61.671,21.6,64c-1.7,4.636-3.337,9.55-5.017,15.023-1.386,4.513-2.782,9.348-4.4,15.219-1.442,5.245-2.808,10.516-4.061,15.668-.384,1.576-.751,3.184-1.106,4.739v0c-.685,3-1.393,6.1-2.249,9.108.116,0,.233-.006.346-.006a23.8,23.8,0,0,1,4.944.728c.935.2,1.817.4,2.61.5,5.528.724,10.519,1.611,15.257,2.711,2.566.6,5.083,1.264,7.481,1.985,2.517.757,4.988,1.6,7.346,2.5a2.048,2.048,0,0,1,1.188,1.12,2.316,2.316,0,0,1,.095,1.5l.826-.234.031-.009,1.214-.343c-.616-.944-.491-2.489-.391-3.731.023-.282.044-.548.055-.786l0-.088c.04-1.126.136-2.27.228-3.376v-.006c.048-.575.1-1.17.139-1.754.243-3.454.545-6.637.925-9.732l.1-.81c.192-1.5.365-3.03.532-4.508v0c.226-1.995.459-4.058.741-6.078l.058-.4c-.2-.782-.45-1.607-.8-2.675-.536-1.649-1.238-3.258-1.917-4.813-.292-.669-.594-1.36-.879-2.049a.21.21,0,0,1,.014-.205.307.307,0,0,1,.253-.123.272.272,0,0,1,.183.066,16.125,16.125,0,0,1,2.17,2.42,22.809,22.809,0,0,1,1.735,2.774c.008-.039.015-.079.022-.118s.019-.1.03-.154l.117-.575a9.9,9.9,0,0,1,1.5-4.019.245.245,0,0,1,.191-.1.192.192,0,0,1,.168.1,6.579,6.579,0,0,1,.756,2.155,21.533,21.533,0,0,1,.264,2.3c.008.1.015.193.023.288.162,2.026.155,4.06.136,5.413-.04,2.815-.209,5.68-.372,8.45-.038.65-.082,1.387-.122,2.108-.177,3.156-.525,6.518-1.064,10.276l-.093.641c-.065.439-.127.887-.188,1.32v0c-.164,1.174-.333,2.387-.564,3.565l-.089.44c-.052.249-.1.529-.147.825a11.943,11.943,0,0,1-.462,2.044c8.27-2.308,17.022-4.694,26.01-7.094,4.458-1.19,8.992-2.387,13.377-3.544l5.466-1.444a7.073,7.073,0,0,1,1.259-1.655,6.794,6.794,0,0,1,1.8-1.277,4.664,4.664,0,0,1,2-.476,4.164,4.164,0,0,1,2.2.641.281.281,0,0,1,.131.247.25.25,0,0,1-.131.219c-.466.255-.841.467-1.18.669l3.772-1.022c.831-.225,1.681-.472,2.5-.71h0c1.975-.573,4.018-1.165,6.052-1.541a130.294,130.294,0,0,1,16.3-6.29l.328-.11.66-.223,1.129-.388a53.657,53.657,0,0,1,7.664-2.226,7.622,7.622,0,0,1,1.368-.126,5.493,5.493,0,0,1,2.515.553,3.51,3.51,0,0,1,1.7,1.877,34.893,34.893,0,0,1,3.145,2.424c.511.429,1.016.884,1.5,1.325l.006.006c.2.182.41.37.615.553l.13.114.128.11.005,0a2.446,2.446,0,0,1,1.043,1.52.894.894,0,0,1-.183.7.568.568,0,0,1-.445.214.637.637,0,0,1-.068,0c-1.242-.133-2.288-1.3-3.211-2.328h0c-.231-.257-.449-.5-.661-.717-.919-.939-1.676-1.742-2.379-2.607a1.108,1.108,0,0,1-.528.138.842.842,0,0,1-.775-.466,2.523,2.523,0,0,0-1.1-1.111,3.291,3.291,0,0,0-1.486-.311,13.061,13.061,0,0,0-3.879.89h0c-.376.128-.732.248-1.048.342l-3.106.92c-1.288.382-2.98.885-4.654,1.394-1.562.475-3.143.977-4.672,1.462-2.653.843-5.4,1.714-8.121,2.467a.9.9,0,0,1,.214.8.944.944,0,0,1-.612.656,57.4,57.4,0,0,1-7.645,2.2h0c-.956.228-1.944.463-2.9.711-2.187.567-4.413,1.149-6.616,1.728a5.387,5.387,0,0,0-.764,2.112,15.807,15.807,0,0,0,.136,4.665,42,42,0,0,0,1.045,4.592l.119.428a22.464,22.464,0,0,0,1.295,3.614,7.718,7.718,0,0,0,2.3,2.976,3.5,3.5,0,0,0,1.727.658c3.958-2.038,7.83-4.032,11.683-6.011a1.087,1.087,0,0,1,.5-.127,1.137,1.137,0,0,1,1.051.855,25.458,25.458,0,0,0,3.993-1,17.79,17.79,0,0,0,3.445-1.748c.722-.436,1.469-.887,2.257-1.263a6.847,6.847,0,0,1,3.017-.677,10.773,10.773,0,0,1,3.773.78,36.74,36.74,0,0,1,3.6,1.657l.7.354.785.386a9.923,9.923,0,0,0,3.767,1.181,1.59,1.59,0,0,0,1.672-1.043,2.4,2.4,0,0,0,.037-1.476,4.29,4.29,0,0,0-.718-1.4,8.525,8.525,0,0,0-2.3-2.066,13.979,13.979,0,0,0-2.758-1.262c-1.017-.35-2.05-.613-2.927-.824-1.138-.274-2.273-.491-3.375-.646-.41-.058-.831-.095-1.239-.131a11.236,11.236,0,0,1-2.614-.44.766.766,0,0,1-.5-.759.609.609,0,0,1,.5-.587,7.5,7.5,0,0,1,1.656-.171,19.772,19.772,0,0,1,4.515.694l1.04.256a25.049,25.049,0,0,1,5.853,2.091,12.015,12.015,0,0,1,1.977,1.333,9.075,9.075,0,0,1,1.667,1.793,2.288,2.288,0,0,1,1.632-.616,4.62,4.62,0,0,1,1.183.176l.559.155a6.867,6.867,0,0,0,1.84.327,3.73,3.73,0,0,0,.73-.072c.115-.628.24-1.3.372-1.963,1.309-6.577,2.734-13.041,4.235-19.212,1.323-5.442,2.777-10.959,4.321-16.4,1.528-5.382,3.187-10.841,4.932-16.225l.35-1.076c.179-.549.354-1.121.524-1.673l0-.006a27.9,27.9,0,0,1,2.223-5.725,7.942,7.942,0,0,1,2.347-2.568,10.373,10.373,0,0,1,3.178-1.454,62.041,62.041,0,0,1,6.078-1.263h.008c.674-.117,1.37-.237,2.049-.363.36-.067.735-.134,1.066-.193l.744-.134a19.908,19.908,0,0,1-.963-2.114c-.094-.231-.183-.449-.271-.654l-.06-.139c-.8-1.832-1.51-3.693-2.037-5.109l-.478-1.293a64.649,64.649,0,0,0-3.966-9.085,23.4,23.4,0,0,0-2.979-4.192A24.771,24.771,0,0,0,167.721,37a63.774,63.774,0,0,0-8.578-5.018c-1.653-.854-3.361-1.737-4.995-2.69a37.317,37.317,0,0,1-4.7-3.192.2.2,0,0,1-.071-.226.289.289,0,0,1,.261-.184.234.234,0,0,1,.106.025,79.88,79.88,0,0,0,8.19,3.378h0c1.175.434,2.389.883,3.569,1.348l.774.305a38.805,38.805,0,0,1,8.929,4.557,24.793,24.793,0,0,1,4.016,3.729,25.582,25.582,0,0,1,3.1,4.523,56.886,56.886,0,0,1,3.418,8.373v0c.22.632.447,1.285.674,1.921l.329.92c.473,1.314.995,2.719,1.6,4.094.188.429.437.875.7,1.348a12.558,12.558,0,0,1,1.031,2.15l.216-.038.009,0c.991-.172,2.015-.35,3.024-.518,5.838-.975,11.777-1.862,17.651-2.637s11.835-1.457,17.73-2.03,11.878-1.05,17.789-1.421,11.908-.643,17.828-.811h.04a1.165,1.165,0,0,1,.918.419,1.559,1.559,0,0,1,.316,1.256c-1.287,7.611-2.51,15.35-3.694,22.835l0,.016c-.919,5.81-1.869,11.817-2.841,17.719-.992,6.023-1.994,11.973-2.977,17.684-.22,1.277-.458,2.569-.688,3.819-.309,1.679-.628,3.415-.907,5.128-.084.516-.164,1.041-.242,1.549l0,.019a45.456,45.456,0,0,1-1.108,5.636,13.612,13.612,0,0,1-3.058,5.766,8.929,8.929,0,0,1-2.874,1.992,14.191,14.191,0,0,1-3.373.986c-4.064.7-8.264,1.119-12.326,1.524-1.792.179-3.644.363-5.457.57l-31.461,3.58c.223,2.029.351,4.071.393,6.244.038,1.984,0,4.038-.11,6.281l-.12,2.309c-.094,1.775-.209,3.667-.482,5.555A10.46,10.46,0,0,1,189.249,169a12.709,12.709,0,0,1-1.928,2.771A35.3,35.3,0,0,1,182.479,176a24.624,24.624,0,0,1-5.613,3.468l-.267.106a26.544,26.544,0,0,1-2.975.966,14.507,14.507,0,0,1-3.536.516,7.206,7.206,0,0,1-1.143-.085c.062.312.137.634.21.946a7.252,7.252,0,0,1,.184,4.005,1.215,1.215,0,0,1-.435.581A1.141,1.141,0,0,1,168.242,186.725ZM189.06,145.58l-3.3.375c-3.866.44-7.671.857-10.883,1.207l-7.881.857c-.01.222-.028.437-.045.646v0c-.018.21-.034.409-.039.581-.053,1.818-.093,3.664-.126,5.251-.072,3.489.008,7.03.238,10.523.26,3.938.57,7.166.977,10.158l.094.674.054.354a1.55,1.55,0,0,1,1.046.579,1.342,1.342,0,0,0,1.064.348,10,10,0,0,0,2.959-.661,19.372,19.372,0,0,0,4.357-2.419,27.372,27.372,0,0,0,3.638-3.1l.931-.921a11.9,11.9,0,0,0,2.422-3.061,13.249,13.249,0,0,0,.983-4.292c.035-.3.072-.617.111-.918.243-1.842.548-3.844.959-6.3l2.437-9.879ZM6.717,126.588,6.7,130.013c-.017,4.66-.013,9.622.238,14.549l.047.9c.282,5.274.719,10.854,2.654,16a30.559,30.559,0,0,0,3.007,5.944,27.416,27.416,0,0,0,4.273,5.1,16.244,16.244,0,0,0,2.591,2,11.322,11.322,0,0,0,3,1.3,16.8,16.8,0,0,0,4.4.529c.586,0,1.185-.022,1.831-.067,8.651-.6,16.483-4.76,24.057-8.779h0c1.146-.608,2.331-1.237,3.49-1.837,13.572-7.029,28.039-14.519,42.579-22.014a6.968,6.968,0,0,1-1.074-.9,15.558,15.558,0,0,1-3.569-7.27,38.384,38.384,0,0,1-1.171-8.619l.319-3.349-.342.09c-3.536.94-7.123,1.9-10.592,2.832-8.737,2.343-17.771,4.766-26.688,7.024-3.554.9-7.175,1.777-10.678,2.625-2.576.623-5.239,1.268-7.855,1.917l-1,.25c-4.786,1.21-9.773,2.689-13.527,6.247a.144.144,0,0,1-.1.042.157.157,0,0,1-.139-.1.139.139,0,0,1,.03-.155,21.741,21.741,0,0,1,7.061-4.847A59.416,59.416,0,0,1,37.7,136.6c.558-.16,1.127-.32,1.676-.475l.023-.007,1.345-.381a178.529,178.529,0,0,0-22.8-6.63c-.99-.211-2-.4-2.982-.577h0c-1-.183-2.025-.372-3.031-.587-.9-.192-1.793-.443-2.661-.685-.479-.134-.975-.273-1.468-.4ZM258.745,57.6c-6.234.188-12.519.49-18.681.9-6.223.41-12.493.938-18.637,1.569-11.483,1.18-23.077,2.771-34.459,4.729-2.375.409-4.782.84-7.153,1.283l-1.428.269c-.533.1-1.08.187-1.66.278-.991.156-2.017.316-3,.562a10.018,10.018,0,0,0-2.75,1.07,5.782,5.782,0,0,0-2.15,2.446,19.541,19.541,0,0,0-1.163,3.144c-.088.286-.178.582-.271.869-.869,2.7-1.73,5.456-2.556,8.181-3.335,10.993-6.358,22.038-8.985,32.827-.938,3.852-1.816,7.783-2.665,11.586v.005c-.357,1.6-.725,3.249-1.094,4.872-.976,4.3-2.121,8.919-3.6,14.532a1.423,1.423,0,0,1,.583-.265c5.236-1.114,10.648-1.718,15.881-2.3,1.1-.122,2.228-.248,3.346-.378l.622-.072c6.314-.743,13.1-1.537,19.954-2.307l44.054-4.956c.736-.083,1.5-.146,2.239-.208a31.288,31.288,0,0,0,5.671-.821,6.757,6.757,0,0,0,4.356-3.921,23.839,23.839,0,0,0,1.672-5.9l.022-.116c1.3-6.92,2.462-13.992,3.585-20.832v0c.753-4.589,1.532-9.335,2.348-14ZM146.863,146.136h.006a1.7,1.7,0,0,1,1,.3l1.646-13.16a9.805,9.805,0,0,1-2.762-.841,7.655,7.655,0,0,0-2.449-.733c-.048,0-.094,0-.138.006a4.76,4.76,0,0,1,.6,3.84,2.931,2.931,0,0,1-3.128,2.271,9.043,9.043,0,0,1-2.823-.543,19.876,19.876,0,0,1-2.463-1.041c-.436-.217-.876-.449-1.3-.672a18.411,18.411,0,0,0-4.7-1.942,6.393,6.393,0,0,0-1.311-.141,9.573,9.573,0,0,0-4.633,1.6l-.229.125a18.171,18.171,0,0,1-5.45,1.926,10.79,10.79,0,0,1-1.935.169c-.323,0-.648-.013-1-.038a1.186,1.186,0,0,1-.2.13l-.507.266a28.5,28.5,0,0,1,6.764,1.461c2.3.7,4.584,1.558,6.543,2.309l2.125.817a79.713,79.713,0,0,0,7.972,2.7,31.941,31.941,0,0,0,8.292,1.2ZM88.306,5.289a5.877,5.877,0,0,0-1.335,1.054,21.783,21.783,0,0,0-3.034,4.58l-.052.1c-.218.4-.433.8-.641,1.187l0,.006c-.254.474-.517.964-.782,1.443-.229.414-.465.822-.645,1.132a4.539,4.539,0,0,1-.307.412h0c-.088.111-.18.226-.243.315.154.215.321.44.511.686.013.017.209.233.534.59l.013.015c1.329,1.462,4.44,4.887,5.712,6.444,1.244,1.523,2.413,3.082,3.474,4.633,1.1,1.611,2.125,3.269,3.041,4.927,1.086,1.967,2.035,4.038,2.952,6.04.631,1.378,1.284,2.8,1.977,4.184a25.822,25.822,0,0,0,3.011,4.845c.028.034.057.067.085.1l0,0,0,0,.054.062a11.713,11.713,0,0,1,1.845-2.866c.14-.176.272-.343.382-.488l.054-.072c1.182-1.594,2.5-3.246,4.135-5.2,1.264-1.505,2.609-3.037,4-4.553l.513-.558c.173-.187.35-.386.538-.6a12.11,12.11,0,0,1,3.013-2.7,6.73,6.73,0,0,0-.521-.789,17.774,17.774,0,0,0-4.968-4.059l-1.18-.718c-3.5-2.136-5.349-3.384-6.564-4.232a59.634,59.634,0,0,1-6.124-4.84,51.8,51.8,0,0,1-5.775-5.991l-.607-.769Zm7.421-1.342c-.488.041-1,.071-1.485.1a17.631,17.631,0,0,0-4.771.713c1.017.962,2.019,1.984,2.988,2.973.66.673,1.342,1.37,2.021,2.038a24.761,24.761,0,0,1,.541-2.6c.056-.228.114-.463.169-.7Zm-.535,169.83a1.077,1.077,0,0,1-.882-.541,1.018,1.018,0,0,1-.045-1.019,146.648,146.648,0,0,1,8.3-13.555l.386-.575c1.33-1.98,2.7-4.027,4.071-6.034.738-1.083,1.343-1.95,1.905-2.728l.392-.538,2.12-2.321a.191.191,0,0,1,.091-.024.187.187,0,0,1,.185.182,6.015,6.015,0,0,1-.806,2.711c-.063.132-.134.282-.2.422l-.047.1c-.489,1.088-1.064,2.26-1.756,3.581-1.261,2.406-2.556,4.749-3.847,6.965a82.286,82.286,0,0,1-9.2,13.039A.883.883,0,0,1,95.192,173.777ZM148.8,127.263a4.78,4.78,0,0,1-3.374-1.8l-.8-.834a8.5,8.5,0,0,0-1.744-1.482,4.315,4.315,0,0,0-2.288-.6c-.07,0-.142,0-.214,0a33.807,33.807,0,0,0-4.052.481h0c-.765.122-1.557.249-2.332.34-2.306.273-4.73.52-7.205.734h-.009a.087.087,0,0,1-.085-.083.1.1,0,0,1,.068-.109l2.7-.671,10.48-2.115a8.946,8.946,0,0,1,1.079-.069,5.347,5.347,0,0,1,3.521,1.185,13.839,13.839,0,0,1,1.364,1.346,11.647,11.647,0,0,0,1.62,1.543,3.866,3.866,0,0,0,2.079.784.63.63,0,0,1,.595.564.579.579,0,0,1-.432.638A3.406,3.406,0,0,1,148.8,127.263Zm2.084-6.561a.409.409,0,0,1-.095-.011,8.507,8.507,0,0,1-2.366-1,25.7,25.7,0,0,1-2.12-1.463c-.524-.389-1.067-.791-1.621-1.153a7.516,7.516,0,0,0-4.352-1.166c-.843,0-1.7.076-2.6.157l-.159.014c-2.593.231-5.082.546-7.4.936-.8.134-1.611.3-2.4.457a40.218,40.218,0,0,1-4.54.737v0a.3.3,0,0,1-.281-.241.252.252,0,0,1,.135-.294,30.934,30.934,0,0,1,7.492-2.24l.168-.035,7.559-1.175.279-.028c.875-.085,1.544-.123,2.168-.123a10.448,10.448,0,0,1,2.4.252,7.933,7.933,0,0,1,2.321.944l.42.254c1.942,1.181,4.119,2.6,5.362,4.562a.373.373,0,0,1,.012.39A.45.45,0,0,1,150.887,120.7Zm62.6-10.71a17.007,17.007,0,0,1-4.585-.544,8.685,8.685,0,0,1-2.051-.858,5.984,5.984,0,0,1-1.641-1.405,3.213,3.213,0,0,1-.8-2.761,4.023,4.023,0,0,1,1.3-2.028,9.6,9.6,0,0,1,2.264-1.487,2.477,2.477,0,0,1-.706-1.07,2.014,2.014,0,0,1,.028-1.3,4.97,4.97,0,0,1,2.245-2.258,9.015,9.015,0,0,0,1.425-1.066,7.1,7.1,0,0,0,1.6-2.355,4.97,4.97,0,0,0,.308-2.8l-.021-.106a1.008,1.008,0,0,1,.182-.859,1,1,0,0,1,.769-.358,1.051,1.051,0,0,1,.854.456l.138.19c.15.205.3.413.467.632l0,.006a24.477,24.477,0,0,1,1.957,2.917,6.234,6.234,0,0,1,.885,3.2,3.576,3.576,0,0,1,1.771.536,3.009,3.009,0,0,1,1.209,1.347,3.724,3.724,0,0,1,.247,1.75,5.212,5.212,0,0,1,3.016,1.534,3.342,3.342,0,0,1,.933,2.044,3.713,3.713,0,0,1-.524,2.194c-1.97,3.357-6.421,4.17-8.9,4.356l-.116.008C214.928,109.965,214.188,109.993,213.485,109.993Zm-4.737-8.565c-.653.667-1.288,1.358-1.9,2.026a2.068,2.068,0,0,0-.638,1.646,2.523,2.523,0,0,0,1.216,1.72,7.293,7.293,0,0,0,2.808,1.087,16.816,16.816,0,0,0,3.15.255h0c.651,0,1.284-.023,1.762-.044a15.533,15.533,0,0,0,3.707-.571,8.925,8.925,0,0,0,3.3-1.722l.083-.073a4.752,4.752,0,0,0,.911-1.074,1.976,1.976,0,0,0,.333-1.21,1.469,1.469,0,0,0-.844-1.114,3.679,3.679,0,0,0-1.247-.367,5.781,5.781,0,0,1-.65-.133,3.669,3.669,0,0,1-2.56,2.133.984.984,0,0,1-.148.011.931.931,0,0,1-.889-.653.757.757,0,0,1,.344-.876l.182-.113a4.564,4.564,0,0,0,1.32-1.231,2.892,2.892,0,0,0,.541-1.72,1.6,1.6,0,0,0-.457-1,1.394,1.394,0,0,0-.976-.492.905.905,0,0,0-.666.3l-.038.041a.784.784,0,0,1-.6.282.989.989,0,0,1-.817-.49.851.851,0,0,1-.035-.853l.022-.039L214.7,92.412a7.85,7.85,0,0,1-.941,2.3,9.019,9.019,0,0,1-1.616,1.966,9.969,9.969,0,0,1-1.583,1.189l-.068.04c-.074.042-.168.091-.259.138-.582.3-1.461.763-1.38,1.3.061.405.83.888,1.158,1.077a4.181,4.181,0,0,0,1.5.59.143.143,0,0,1,.132.118.113.113,0,0,1-.064.133,4.145,4.145,0,0,1-1.682.432A2.614,2.614,0,0,1,208.748,101.428ZM61.291,87.544a.733.733,0,0,1-.773-.632c-.472-3.04-.942-6.126-1.4-9.11v0c-.537-3.529-1.092-7.178-1.654-10.764-.4-2.552-.856-5.138-1.3-7.64v0c-.134-.759-.273-1.544-.41-2.326l-1.465-9.591a.179.179,0,0,1,.052-.131.214.214,0,0,1,.15-.061.183.183,0,0,1,.164.094,36.024,36.024,0,0,1,3.011,8.356c.088.326.18.663.27.993.792,2.886,1.509,6.006,2.256,9.818.656,3.352,1.161,6.723,1.5,10.02.344,3.349.53,6.752.553,10.116a.793.793,0,0,1-.234.575A1.037,1.037,0,0,1,61.291,87.544ZM72.043,78.01a1.131,1.131,0,0,1-.851-.4,1,1,0,0,1-.208-.856L70.1,52.367a.274.274,0,0,1,.033-.254.309.309,0,0,1,.25-.116.323.323,0,0,1,.308.207,45.585,45.585,0,0,1,1.99,6.071,43.244,43.244,0,0,1,1.1,6.309,37.544,37.544,0,0,1-.857,12.7A.878.878,0,0,1,72.043,78.01Zm48.912-22.4a.487.487,0,0,1-.4-.187,5.52,5.52,0,0,1-.348-.523,2.8,2.8,0,0,0-.74-.9,4.436,4.436,0,0,0-1.723-.6c-.267-.054-.543-.109-.8-.184a6.177,6.177,0,0,1-2.787-1.661l-2.735-6.176a.237.237,0,0,1,.06-.181.266.266,0,0,1,.194-.077.3.3,0,0,1,.247.122,18.677,18.677,0,0,1,1.206,2.057,15.683,15.683,0,0,0,1.431,2.354,5.338,5.338,0,0,0,2.174,1.7,9.16,9.16,0,0,0,1.577.444,5.625,5.625,0,0,1,2.424.944,2.927,2.927,0,0,1,.915,1.156,1.483,1.483,0,0,1-.117,1.4A.716.716,0,0,1,120.955,55.606Zm4.611-4.7a.7.7,0,0,1-.5-.2,3.339,3.339,0,0,1-.454-3.359,14.815,14.815,0,0,1,1.523-3.317,19.3,19.3,0,0,1,4.4-4.767c.316-.273.643-.555.97-.844a23.839,23.839,0,0,0,4.856-6.966c.365-.689.73-1.4,1.083-2.082l.007-.014,0-.007c.433-.839.88-1.706,1.333-2.553a5.769,5.769,0,0,1-1.3-2.843c-.045-.173-.087-.337-.131-.494l-.027-.095a37.863,37.863,0,0,1-1.111-5.164,28.324,28.324,0,0,1-.269-5.008l.018-.429.823-3.075a.305.305,0,0,1,.407.107.334.334,0,0,1-.05.513,12.373,12.373,0,0,1,.549,1.85c.153.676.319,1.367.508,2.111.178.7.349,1.422.513,2.117l0,.009V16.4c.165.7.336,1.419.515,2.126.361,1.423.812,2.92,1.34,4.449.03.088.065.182.106.29l.058.148.014-.022a.153.153,0,0,1,.129-.078.163.163,0,0,1,.121.058.176.176,0,0,1,.04.143c-.014.095-.032.191-.049.284V23.8c-.01.057-.021.116-.031.175l.053.14a2.6,2.6,0,0,1-.05,2.61,1.232,1.232,0,0,1-.787.519,45.094,45.094,0,0,1-1.793,4.806l-.2.452a26.968,26.968,0,0,1-3.6,6.415,23.615,23.615,0,0,1-2.45,2.467,17.851,17.851,0,0,0-3.108,3.371,14.091,14.091,0,0,0-1.568,3.406l-.147.459a3.664,3.664,0,0,1-1.4,2.186A.648.648,0,0,1,125.566,50.9ZM139.1,48.569a1.458,1.458,0,0,1-.935-.322l-1.793-1.49c-.3-.251-.6-.5-.894-.748-.272-.229-.52-.442-.758-.649l-.374-.33c-.043-.038-.122-.12-.221-.222a3.8,3.8,0,0,0-.89-.778.3.3,0,0,0-.047,0c-.477,0-1.432,1-1.945,1.531l0,0-.177.183-.054.053a21.915,21.915,0,0,0-2.177,2.5.17.17,0,0,1-.136.073.16.16,0,0,1-.134-.073.163.163,0,0,1,0-.161,22.36,22.36,0,0,1,2.119-3.653l.167-.228c.093-.126.192-.267.3-.418l0-.007c.514-.74,1.153-1.661,1.956-1.842a1.588,1.588,0,0,1,.349-.038,4.446,4.446,0,0,1,2.455,1.28c.149.121.29.236.424.338l.055.041c.447.335.886.676,1.219.936a15.882,15.882,0,0,1,.248-3.325,9.37,9.37,0,0,1,1.145-3.093,13.718,13.718,0,0,1,2.078-2.484c.332-.338.675-.688,1-1.047a14,14,0,0,0,1.587-2.34,17.183,17.183,0,0,1,1.23-1.909.8.8,0,0,1,.524-.3c.031-.847.136-1.709.238-2.542V27.5c.028-.233.058-.473.085-.708l.036-.322c.018-.168.039-.338.061-.518a5.505,5.505,0,0,0-.213-3.175,6.7,6.7,0,0,0-2.115-2.037h0c-.205-.148-.4-.287-.584-.428l-.75-.582L140,17.654a.274.274,0,0,1-.027-.3.41.41,0,0,1,.349-.213.319.319,0,0,1,.065.007,14.521,14.521,0,0,1,3.94,1.72c.2.111.425.237.64.354l.153.083a6.458,6.458,0,0,1,2.889,2.566,8.113,8.113,0,0,1,.509,4.21l-.008.132c-.023.362-.043.734-.062,1.094v.008a25.538,25.538,0,0,1-.423,4.016,1.184,1.184,0,0,1-.442.728,1.207,1.207,0,0,1-.73.229,1.509,1.509,0,0,1-.441-.067,13.388,13.388,0,0,1-3.25,4.738c-.455.5-.926,1.008-1.346,1.518a7.3,7.3,0,0,0-1.549,3.975,24.078,24.078,0,0,0,.06,4.361q.02.263.038.521a1.084,1.084,0,0,1-.275.839A1.347,1.347,0,0,1,139.1,48.569Z" transform="translate(0 4.965)"/></g><g transform="translate(66.84 0)"><path d="M48.385,0c14.8,0,30.108,11.5,35.533,18.839,4.561,6.17,7.017,34.071,7.017,52.927,0,3.944,2.171,11.377,1.537,15.15-2.321,13.823-12.435,25.415-32.453,25.415s-34.37-7.954-49.249-29.311C3.552,83.02.053,77.47,0,68.711A13.056,13.056,0,0,1,6.97,56.766S4.468,22.2,10.771,13.2,33.585,0,48.385,0Z" transform="translate(1.671 5.294)" fill="#ffdbb4"/><path d="M62.74,120.458a35.1,35.1,0,0,1-6.5-.59,28.574,28.574,0,0,1-6.158-1.875,23.218,23.218,0,0,1-5.447-3.316,21.149,21.149,0,0,1-4.364-4.913.129.129,0,0,1-.01-.135.162.162,0,0,1,.14-.078.154.154,0,0,1,.1.035,24.32,24.32,0,0,0,3.426,2.334,26.409,26.409,0,0,0,3.665,1.7,37.165,37.165,0,0,0,7.949,1.929,39.07,39.07,0,0,0,5.406.373A40.557,40.557,0,0,0,67,115.465a39.3,39.3,0,0,0,5.934-1.372,35.854,35.854,0,0,0,5.6-2.3,31.583,31.583,0,0,0,5.049-3.226,21.045,21.045,0,0,0,4.706-5.217,22.44,22.44,0,0,0,1.666-3.118,22.174,22.174,0,0,0,1.15-3.332,21.131,21.131,0,0,0,.6-3.543,20.191,20.191,0,0,0-.028-3.594,18.733,18.733,0,0,0-1.228-4.558c-.262-.722-.534-1.468-.758-2.228a2.051,2.051,0,0,1,.485-2c.064-.9.172-1.817.277-2.7.112-.949.227-1.929.289-2.887.133-2.105.214-4.235.243-6.329.053-4.189-.114-8.606-.5-13.128-.4-4.8-1.225-9.616-2.019-14.27-.526-3.083-1.069-6.271-1.487-9.425a1.312,1.312,0,0,1-.884.354,1.383,1.383,0,0,1-.644-.167l-.06-.033-.318-.182a.486.486,0,0,0-.058,0c-.456.044-.927.067-1.4.067a17.191,17.191,0,0,1-5.119-.809,19.164,19.164,0,0,1-6.016-3.117,27.359,27.359,0,0,0-.49,5.3,1.352,1.352,0,0,1-.434,1.009,1.45,1.45,0,0,1-.984.374,1.536,1.536,0,0,1-.694-.168A88.374,88.374,0,0,1,58.043,27.6l-.274,1.408,0,.015c-.34,1.746-.692,3.552-1.04,5.33a1.135,1.135,0,0,1-.48.722,1.466,1.466,0,0,1-.832.256,1.319,1.319,0,0,1-.666-.173,25.06,25.06,0,0,1-7.212-6.334c-.471.9-.849,1.624-1.188,2.267l-.6,1.13a4.849,4.849,0,0,1-2.679,2.694A2.379,2.379,0,0,1,42.44,35,2.247,2.247,0,0,1,41,34.472a3.073,3.073,0,0,1-.913-1.316c-.136-.373-.267-.771-.391-1.184a69.17,69.17,0,0,1-3.977,7.779,93.283,93.283,0,0,1-6.877,9.569l-.721.919a1.053,1.053,0,0,1-.84.441,1.653,1.653,0,0,1-1.478-1.4c-.062-.561-.116-1.144-.167-1.782-1.811,3.664-3.388,6.624-4.961,9.317l.254,1c.514,2.072.975,4.19,1.421,6.238.188.864.382,1.757.579,2.639a2.4,2.4,0,0,1-.357,1.8,1.535,1.535,0,0,1-1.051.688,11.148,11.148,0,0,0-1.185.263,7.145,7.145,0,0,1-1.773.306,3.009,3.009,0,0,1-1-.162,3.657,3.657,0,0,1-2.064-2.219c-.13-.263-.265-.535-.418-.8a4.911,4.911,0,0,0-.478-.679l-.045.058a.14.14,0,0,1-.115.057.217.217,0,0,1-.171-.093.148.148,0,0,1-.018-.141l.076-.19a14.9,14.9,0,0,0-1.375-1.237c-.2-.168-.412-.341-.613-.515a7.27,7.27,0,0,0-1.207-.1,6.65,6.65,0,0,0-3.229.766,6.414,6.414,0,0,0-1.608,1.36,7.744,7.744,0,0,0-1.127,1.774,10.036,10.036,0,0,0-.9,4.117,19.109,19.109,0,0,0,2.669,9.668,8.381,8.381,0,0,0,1.332,1.687A5.608,5.608,0,0,0,10.07,84.27a8.46,8.46,0,0,0,2.12.457,9.008,9.008,0,0,1,2.035.421,1.753,1.753,0,0,1,1.048,1.034,1.4,1.4,0,0,1-.136,1.216c-.024.042-.052.083-.078.122v0l-.038.057.405.539c.256.343.556.752.841,1.19.432.5.886.993,1.324,1.472h0c.265.289.538.588.8.884.89.989,1.777,2.013,2.635,3l0,0c.4.46.811.937,1.22,1.4,1.058,1.211,2.27,2.473,3.816,3.974.528.514,1.121,1,1.694,1.472a19.59,19.59,0,0,1,2.26,2.061,3.7,3.7,0,0,1,.754,1.346,2.792,2.792,0,0,1,.082,1.461,1.964,1.964,0,0,1-1.253,1.4,2.671,2.671,0,0,1-.995.2c-1.482,0-2.82-1.258-3.9-2.27l-.3-.284-.057-.053a37.791,37.791,0,0,1-6.564-7.861,5.762,5.762,0,0,1-3.222.971,5.1,5.1,0,0,1-2.9-.855,5.357,5.357,0,0,1-2-2.881,4.2,4.2,0,0,1-.923.112H8.693c-.192.112-.35.2-.5.276a3.018,3.018,0,0,1-1.386.351,2.381,2.381,0,0,1-1.274-.353,2.267,2.267,0,0,1-.89-1.083,3.57,3.57,0,0,1-.136-2.081,12.171,12.171,0,0,1,.649-2.044l.1-.265a23.215,23.215,0,0,1,.978-2.278,12.4,12.4,0,0,1-2.768-2.961A20.577,20.577,0,0,1,.608,77.659a22.957,22.957,0,0,1-.562-3.724,18.968,18.968,0,0,1,.089-3.6,13.168,13.168,0,0,1,1.22-4.1,11.82,11.82,0,0,1,1.117-1.847,10.1,10.1,0,0,1,1.44-1.574l-.078-.2a30.845,30.845,0,0,1-1.491-4.646,48.089,48.089,0,0,1-.8-5.73,54.993,54.993,0,0,1,.232-12.179A53.522,53.522,0,0,1,4.388,28.936a43.585,43.585,0,0,1,5.14-10.167,8.729,8.729,0,0,1-1.5-2.411,4.924,4.924,0,0,1-.319-1.352,4.426,4.426,0,0,1,.69-2.753,3.479,3.479,0,0,1,.992-1.009,3.054,3.054,0,0,1,.775-.329,3.562,3.562,0,0,0,.63-.246l.133-.073c.118-.069.109-.092.058-.218a2.31,2.31,0,0,1-.128-.409,5.194,5.194,0,0,1,.078-2.941,3.108,3.108,0,0,1,2.15-1.888A3.849,3.849,0,0,1,14.2,4.974a4.606,4.606,0,0,1,2.454.766,7.658,7.658,0,0,1,1.942,1.8,24.028,24.028,0,0,1,5.645-2.851C26.2,3.96,28.22,3.393,30.287,2.829A83.521,83.521,0,0,1,43.827.407,81.481,81.481,0,0,1,52.021,0a95.728,95.728,0,0,1,9.771.515c3.1.315,6.288.77,9.746,1.389a1.513,1.513,0,0,1,1.251,1.147c2.6.119,5.237.284,7.791.443,1.711.107,3.481.217,5.221.313a2.187,2.187,0,0,1,1.036.315A2.008,2.008,0,0,1,87.8,5.8a2.207,2.207,0,0,1-.25,1.058c-.148.288-.3.566-.443.823l.19-.063a7.076,7.076,0,0,1,2.155-.389,3.838,3.838,0,0,1,1.826.429,3.613,3.613,0,0,1,1.686,1.89,4.468,4.468,0,0,1,.206,2.544,6.763,6.763,0,0,1-.419,1.27c.13-.009.259-.013.381-.013a5.225,5.225,0,0,1,.685.044,4.093,4.093,0,0,1,1.312.4,3.77,3.77,0,0,1,2.077,3.23,8.268,8.268,0,0,1-1.085,4.291,14.6,14.6,0,0,1-2.851,3.67,3.681,3.681,0,0,1,.31,2.229,3.576,3.576,0,0,1-.972,1.908,5.7,5.7,0,0,1-1.769,1.2,14.366,14.366,0,0,1,.662,5.493,1.369,1.369,0,0,1-.392.826,1.585,1.585,0,0,1-.788.45,65.442,65.442,0,0,1,2.535,9.2c.564,2.748,1.042,5.736,1.5,9.4a113.98,113.98,0,0,1,.87,13.371c.016,2.022-.018,4.06-.1,6.058l-.034.757c-.022.458-.04.926-.057,1.379a37.779,37.779,0,0,1-.444,5.253,18.209,18.209,0,0,1,2.1,7.651,23.6,23.6,0,0,1-1.157,9.415,26.034,26.034,0,0,1-4.112,7.707,30.567,30.567,0,0,1-6.244,6.033,36.341,36.341,0,0,1-7.672,4.255,38.809,38.809,0,0,1-8.395,2.372A39.534,39.534,0,0,1,62.74,120.458ZM14.971,76.1a1.8,1.8,0,0,1-1.012-.326A9.835,9.835,0,0,1,11.411,72.8l-.224-.343-.082-.124c-.071-.107-.141-.216-.209-.323v0a5.581,5.581,0,0,0-.957-1.225l-.107-.094a1.5,1.5,0,0,0-.545-.325A1.047,1.047,0,0,0,9,70.325a1.477,1.477,0,0,0-.62.139.8.8,0,0,0-.425.426l-.016.049a.207.207,0,0,1-.206.158.218.218,0,0,1-.226-.215A2.375,2.375,0,0,1,8.2,69.152a2.8,2.8,0,0,1,1.99-.8,2.975,2.975,0,0,1,.514.045,6.435,6.435,0,0,1,2.8,1.488l.408.324.217.17.007.005a9.278,9.278,0,0,1,2.576,2.63,2.091,2.091,0,0,1-.1,2.067,2.225,2.225,0,0,1-.7.731A1.755,1.755,0,0,1,14.971,76.1Z" transform="translate(0)"/></g><g transform="translate(106.048 51.216)"><path d="M32.7,43.986a7.719,7.719,0,0,1-2.387-.364,7.9,7.9,0,0,1-2.446-1.328A8.016,8.016,0,0,1,26.016,40.2a6.454,6.454,0,0,1-.865-2.289,5.448,5.448,0,0,1,.157-2.483.247.247,0,0,1,.178-.151,5.91,5.91,0,0,1,.921,1.118l0,.006a9.809,9.809,0,0,0,1.455,1.787,7.158,7.158,0,0,0,1.48,1.027,6.02,6.02,0,0,0,1.7.6,5.056,5.056,0,0,0,3.3-.517,8.3,8.3,0,0,0,1.6-1.209L36,38.034a5.445,5.445,0,0,1,1.743-1.187,1.523,1.523,0,0,1,.527-.093,1.953,1.953,0,0,1,1.163.423,2.33,2.33,0,0,1,.631.728,1.8,1.8,0,0,1,.231.915,3.822,3.822,0,0,1-1.1,2.5,8.484,8.484,0,0,1-3.191,2.034A9.134,9.134,0,0,1,32.7,43.986Zm1.306-14.4h0a9.116,9.116,0,0,1-3.252-.656,16.42,16.42,0,0,1-3.824-2.171,1.47,1.47,0,0,1-.534-.849,1.76,1.76,0,0,1,.076-.953,2.169,2.169,0,0,1,.644-.931,1.567,1.567,0,0,1,1-.392,1.423,1.423,0,0,1,.776.238l.261.2a20.706,20.706,0,0,0,2.395,1.666,5.9,5.9,0,0,0,2.869.915,3.1,3.1,0,0,0,1.212-.238,3.388,3.388,0,0,0,1.129-.8,3.464,3.464,0,0,0,.657-2.788,5.268,5.268,0,0,0-1.4-2.473,10.19,10.19,0,0,0-2.115-1.708.656.656,0,0,1-.177-.754.985.985,0,0,1,.326-.469,1,1,0,0,1,.624-.206,1.33,1.33,0,0,1,.225.02,7.091,7.091,0,0,1,2.494.9,5.659,5.659,0,0,1,1.678,1.547,6.149,6.149,0,0,1,1.071,4.107A6.769,6.769,0,0,1,39.6,25.95,6.29,6.29,0,0,1,38.363,27.8,5.909,5.909,0,0,1,34.008,29.587Zm10.1-9.85a1.793,1.793,0,0,1-1.342-.6,4.726,4.726,0,0,1-1.039-2.369,10.1,10.1,0,0,1-.183-2.424l.013-.2a10.548,10.548,0,0,1,.8-3.5c.467-1.017,1.073-1.555,1.752-1.555a3.107,3.107,0,0,1,2.584,2.111,8.777,8.777,0,0,1,.788,3.36v.059a7.768,7.768,0,0,1-.866,3.2,4.472,4.472,0,0,1-1.05,1.366A2.24,2.24,0,0,1,44.108,19.737Zm-28.56,0a2.24,2.24,0,0,1-1.455-.563,4.472,4.472,0,0,1-1.05-1.366,7.768,7.768,0,0,1-.866-3.2v-.059a8.777,8.777,0,0,1,.788-3.36,3.107,3.107,0,0,1,2.584-2.111c.7,0,1.314.563,1.785,1.628a10.869,10.869,0,0,1,.78,3.63l.006.109a10.3,10.3,0,0,1-.208,2.406,4.75,4.75,0,0,1-1.035,2.293A1.789,1.789,0,0,1,15.548,19.737ZM24.4,9.712a21.93,21.93,0,0,1-3.281-.256,19.294,19.294,0,0,1-4.227-1.312c-.839-.334-1.707-.679-2.6-.946a10.012,10.012,0,0,0-2.869-.365,27.748,27.748,0,0,0-3.6.3l-.821.111-.02,0c-1.2.161-2.433.328-3.634.565-.352.07-.71.16-1.056.248a10.461,10.461,0,0,1-2.108.383H.168a.174.174,0,0,1-.149-.1.149.149,0,0,1,.007-.158A9.869,9.869,0,0,1,2.549,5.9,23.675,23.675,0,0,1,5.568,4.23l.129-.06A27.875,27.875,0,0,1,9.329,2.735a15.47,15.47,0,0,1,3.832-.705c.132-.006.267-.01.4-.01a16.032,16.032,0,0,1,4.7.942c.818.252,1.664.512,2.519.7a11.737,11.737,0,0,0,2.455.255,16.815,16.815,0,0,0,4.547-.7,3.288,3.288,0,0,1,.885-.127,2.61,2.61,0,0,1,1.9.795,3.285,3.285,0,0,1,.885,1.82,3.105,3.105,0,0,1-.333,1.964,2.886,2.886,0,0,1-1.737,1.338A17.2,17.2,0,0,1,24.4,9.712Zm13.38-1.335a7.34,7.34,0,0,1-2.191-.326,3.193,3.193,0,0,1-1.815-1.438,2.961,2.961,0,0,1-.3-2.292,3.22,3.22,0,0,1,2.915-2.267,2.278,2.278,0,0,1,.746.124L37.2,2.2a3.162,3.162,0,0,0,1.133.194,8.667,8.667,0,0,0,2.881-.67l1.044-.392.428-.163A13.28,13.28,0,0,1,47.378,0h.065l.172,0A7.761,7.761,0,0,1,51.6,1.268a5.734,5.734,0,0,1,2.446,3.283.14.14,0,0,1-.023.124.155.155,0,0,1-.122.06.145.145,0,0,1-.1-.04,3.348,3.348,0,0,0-2.388-.946A10.538,10.538,0,0,0,47.047,5.21c-.334.168-.65.326-.956.47l-.847.392-.177.083a37.678,37.678,0,0,1-3.553,1.508A11.448,11.448,0,0,1,37.775,8.377Z" transform="translate(0 0)"/></g></g><g transform="translate(277.935 86.288)"><path d="M80.309,13.485c-.424-6.177-7.2-8.794-10.578-9.57C58.488.878,48.924,8.67,35.519,8.829A32.168,32.168,0,0,1,28.5,8.045C19.369,5.662,10.25,3.126,1.293,0-.024.354-.413,2.33.491,3.455c8.579,3.5,21.7,6.627,28.634,6.983-.133,10.289-4.86,20.635-11.387,26.325C28.12,49.955,52.33,54.294,66.579,47.369c7.009-2.417,14.405-24.056,13.73-33.884" transform="translate(0.775 0.833)" fill="#fff"/><path d="M55.072,54.981h0l-3.549-.3c-6.019-.51-12.381-1.176-18.188-3.19a34.833,34.833,0,0,1-4.237-1.78,29.128,29.128,0,0,1-3.958-2.4,26.891,26.891,0,0,1-3.6-3.125,27.929,27.929,0,0,1-3.167-3.966l-.061.06a2.311,2.311,0,0,1-.859-1.743,2.783,2.783,0,0,1,.749-2.1l.029.053c.014-.026.03-.052.045-.077l.015-.026-.013-.045a16.914,16.914,0,0,1,1.209-1.275l0,.008a30.374,30.374,0,0,0,3.986-4.7,33.373,33.373,0,0,0,3.077-5.538,34.237,34.237,0,0,0,2.02-6.133,33.1,33.1,0,0,0,.816-6.487,1.267,1.267,0,0,1-.347.034c-1.834,0-9.056-1.514-15.77-3.308C9.574,7.963,6.422,7,4.154,6.158,1.468,5.163.072,4.37,0,3.8c-.03-.251.2-.458.691-.618A126.9,126.9,0,0,0,13.3,7.418a.163.163,0,0,1,.088-.026.134.134,0,0,1,.126.084,109.672,109.672,0,0,0,15.879,3c-.005-.278-.015-.573-.028-.879-4.287-.959-8.9-2.211-14.1-3.829C10.594,4.318,6.015,2.753,1.344,1.144c-.115-.005-.185-.128-.182-.319A.8.8,0,0,1,1.888,0a.8.8,0,0,1,.165.018C5.09.834,8.284,1.836,11.666,2.9,16.153,4.3,20.792,5.76,25.372,6.868c2.476.6,4.7,1.04,6.787,1.349a44.311,44.311,0,0,0,6.494.517h.126a27.4,27.4,0,0,0,6.059-.989c1.985-.531,3.976-1.224,5.9-1.9,2.034-.708,4.136-1.44,6.235-1.983a25.982,25.982,0,0,1,6.418-.915c1.666.037,3.144.135,4.52.3a28.159,28.159,0,0,1,4.654.938A17.91,17.91,0,0,1,76.9,6.1,13.139,13.139,0,0,1,80.45,9.3,39.762,39.762,0,0,1,81.1,26.295a45.358,45.358,0,0,1-2.253,8.373A41.333,41.333,0,0,1,75.1,42.248a34.077,34.077,0,0,1-3.951,5.126,27.152,27.152,0,0,1-4.711,4.011,21.988,21.988,0,0,1-5.386,2.626A19.92,19.92,0,0,1,55.072,54.981ZM30.21,9.77a25.294,25.294,0,0,1,.275,7.635,31.2,31.2,0,0,1-1.808,7.455,35.682,35.682,0,0,1-3.414,6.8,34,34,0,0,1-4.544,5.668,70.719,70.719,0,0,0,6.389,5.764,28.352,28.352,0,0,0,5.649,3.5c3.786,1.737,7.94,2.489,14.281,3.269l1.643.225a65.471,65.471,0,0,0,7.443.7A19.108,19.108,0,0,0,65.1,47.54a26.319,26.319,0,0,0,3.895-3.17,32.838,32.838,0,0,0,3.42-3.956A38.941,38.941,0,0,0,75.3,35.855a43.074,43.074,0,0,0,3.928-10.187,39.4,39.4,0,0,0,.922-5.259l.008-.385a42.349,42.349,0,0,0-.184-5.368A18.345,18.345,0,0,0,78.718,9.51a1.128,1.128,0,0,1-.6-.537A34.662,34.662,0,0,0,74.415,7.1a27.838,27.838,0,0,0-3.487-1.236,23.648,23.648,0,0,0-6.439-.889,26.029,26.029,0,0,0-3.439.233c-1.06.14-2.147.341-3.324.616-2.188.511-4.378,1.208-6.5,1.883l-.243.078c-2.041.65-4.354,1.387-6.751,1.931a32.67,32.67,0,0,1-7.293.878A28.04,28.04,0,0,1,30.21,9.77ZM42.8,23.111a13.823,13.823,0,0,1-2.792-.288,15.388,15.388,0,0,1-2.744-.849.185.185,0,0,1-.092-.2.117.117,0,0,1,.11-.112H37.3a15.854,15.854,0,0,0,2.14.144,17,17,0,0,0,5.081-.788,13.127,13.127,0,0,0,3.764-1.746,17.6,17.6,0,0,1,2.762-1.44.723.723,0,0,1,.181-.023.919.919,0,0,1,.793.546.951.951,0,0,1-.033.884,6.467,6.467,0,0,1-3.112,2.6,15.411,15.411,0,0,1-3.829,1.089A14.032,14.032,0,0,1,42.8,23.111Zm34.949-1.922a8.058,8.058,0,0,1-2.421-.4,11.255,11.255,0,0,1-2.4-1.1,11.381,11.381,0,0,1-2.1-1.614,8.3,8.3,0,0,1-1.508-1.958.092.092,0,0,1,.019-.064.113.113,0,0,1,.09-.031,7.183,7.183,0,0,1,1.862.965c.12.076.215.136.265.165a9.919,9.919,0,0,0,2.772,1.3,28.032,28.032,0,0,0,2.926.671c.667.128,1.357.26,2.027.425a.786.786,0,0,1,0,1.427A5.241,5.241,0,0,1,77.748,21.189Z" transform="translate(0)"/></g></g></g></svg>