<svg xmlns="http://www.w3.org/2000/svg" xmlns:xlink="http://www.w3.org/1999/xlink" width="300" height="300" viewBox="0 0 300 300"><defs><clipPath id="b"><rect width="300" height="300"/></clipPath></defs><g id="a" clip-path="url(#b)"><rect width="300" height="300" fill="#fce21e"/><circle cx="150" cy="150" r="150" fill="#fff" opacity="0"/><g transform="translate(1974.127 -236.214)"><g transform="translate(-1924.127 265.214)"><g transform="translate(0 99.593)"><path d="M96.33,0,92.9,7.493l1.89,23.751,1.407.194q22.286,3.052,30.287,3.083h.165a72.828,72.828,0,0,0,19.311-3.18l.342-.1.866-17.784h-2.042l-3.694-7.651,0,0q.061.092.127.178c1.54,2.012,2.433.387,6.051,1.1,4.333.852,6.256,4.72,10.07,7.611,1.771,1.342,5.488,1.975,7.267,2.9l1.868.97c5.855,3.05,12.584,6.756,16.117,11.583a80.906,80.906,0,0,1,9.633,17.325,215.091,215.091,0,0,1,12.445,41.654,416.232,416.232,0,0,1,5.885,43.643q.911,10.149,1.55,20.313l.105,1.694c.225,3.687.029,7.295-3.765,9.565-2.719,1.626-6.327,1.874-9.517,2.041l-.174.009q-35.377,1.833-70.755,3.65l-35.377,1.827q-8.83.457-17.659.908l-14.369.733c-6.772.34-13.552.635-20.333.6a225.675,225.675,0,0,1-25.48-1.605l-.746-.09c-5.318-.649-13.029-2.29-13.984-7.924a1.109,1.109,0,0,1,1.346-1.2c-.223-.917-.361-1.836-.493-2.633a90.937,90.937,0,0,1-1.1-10.281,126.018,126.018,0,0,1,.724-20.662c1.289-11.344,3.1-22.668,4.964-33.952l.416-2.507A254.6,254.6,0,0,1,14.3,57.718c3.419-10.758,8.752-21.95,16.091-28.752S48.2,16.252,58.948,12.632c.931-.314,19.43-3.891,20.676-3.37l.224-.155c3.688-2.572,8.949-7.09,14.366-5.667l.012-.018c.128-.208.628-1.6,1.319-3.421Z" transform="translate(1.683 16.264)"/><path d="M7.344,6.291c4.481-5.018,9.2-6.613,16.182-6.239a24.717,24.717,0,0,1,13.46,3.333,24.579,24.579,0,0,1,9.252,7.031c1.988,2.568.478,8.912,2.293,11.658q-.027.448-.027.817,0,3.563,5.615,7.953l.149.116V48.222q-9.439,2.564-23.374,2.564A107.726,107.726,0,0,1,2.34,46.714l-.45-.124L0,27.828l1.89-5.192V18.288l.73-1.945C3.914,12.923,5.894,7.914,7.344,6.291Z" transform="translate(94.582 0)" fill="#ffdbb4"/><path d="M0,0S16.616,4.274,27.959,4.274,51.511,0,51.511,0L49.53,140.7l-31.881.344Z" transform="translate(96.472 46.59)" fill="#e4e4e4"/><path d="M43.085,181.135a2.237,2.237,0,0,1-2.167-1.406l-.019-.056-.055.037a9.175,9.175,0,0,1-.143-3.8c.04-.412.078-.8.1-1.184l.813-14.546c.214-3.829.422-7.714.623-11.472.34-6.349.692-12.914,1.079-19.37l.21-3.426c.271-4.331.5-8.853.687-13.825l.058-1.537a36.781,36.781,0,0,0-.236-6.759,17.026,17.026,0,0,0-2.259-6.422.172.172,0,0,1,0-.194.243.243,0,0,1,.2-.1.248.248,0,0,1,.153.053,16.412,16.412,0,0,1,2.842,2.837,18.84,18.84,0,0,1,2.1,3.367,21.771,21.771,0,0,1,2.073,7.414,70.923,70.923,0,0,1-.206,11.758c-.1,1.365-.2,2.776-.273,4.147-.072,1.4-.144,2.818-.213,4.191v0c-.22,4.363-.447,8.874-.726,13.309-.125,1.977-.255,3.988-.381,5.932v.017c-.25,3.868-.509,7.867-.738,11.8l-.775,13.313c-.02.352-.025.718-.029,1.1v0a8.354,8.354,0,0,1-.491,3.381A2.4,2.4,0,0,1,43.085,181.135ZM155.4,176.979a2.713,2.713,0,0,1-1.042-.222,2.85,2.85,0,0,1-.894-.59,1.655,1.655,0,0,1-.549-1.383c1.1-8.363,2.677-16.815,4.2-24.989l.079-.422c1.319-7.066,2.858-14.377,4.574-21.728,1.63-6.981,3.476-14.235,5.486-21.562l.687-2.495a87.865,87.865,0,0,0,2.238-9.828,34.867,34.867,0,0,0,.247-9.981,23.884,23.884,0,0,0-2.554-8.074,19.244,19.244,0,0,0-2.472-3.588,16.912,16.912,0,0,0-3.352-2.942l-.155-.1a2.39,2.39,0,0,1-1.149-1.737,1.777,1.777,0,0,1,.674-1.516c.7-.611,1.457-1.261,2.235-1.932l4.475-3.859.9-.779c.721-.622,1.5-1.284,2.287-1.919.108-.087.257-.19.429-.31h0c.565-.393,1.339-.931,1.411-1.409.048-.323-.29-.846-.536-1.227-.063-.1-.122-.189-.167-.266l-1.01-1.8c-.464-.831-.924-1.681-1.369-2.5l-.32-.591c-.328-.6-.662-1.218-.986-1.812l0,0c-.821-1.506-1.67-3.064-2.485-4.607l-6.821-12.91c-.444-.84-.884-1.706-1.31-2.544v0a56.361,56.361,0,0,0-4.843-8.309l-.5-.656a7.248,7.248,0,0,1-1.041-1.761,6.825,6.825,0,0,0-1.032-1.919,5.925,5.925,0,0,0-2.213-1.543,11.245,11.245,0,0,0-2.7-.771c-.1-.016-.155-.075-.152-.16a.228.228,0,0,1,.208-.205c.275-.023.553-.035.824-.035a15.029,15.029,0,0,1,5.073,1.111l.475.162c.966.328,1.888.712,2.75,1.077a6.486,6.486,0,0,1,2.567,2.232l.374.485a60.481,60.481,0,0,1,5.574,9.346l0,0c.491.949,1,1.93,1.51,2.881.623,1.156,1.257,2.33,1.871,3.466l0,0c1.936,3.583,3.937,7.288,5.86,10.952l1.25,2.378c.59,1.123,1.224,2.333,1.861,3.572l1.06,2.077a11.8,11.8,0,0,1,1.219,3.229,4.248,4.248,0,0,1-.718,3.279A19.474,19.474,0,0,1,173,62.287c-.509.378-.989.735-1.451,1.1l-4.96,3.91a23.772,23.772,0,0,1,4.307,5.06,26.285,26.285,0,0,1,2.755,5.855,21.55,21.55,0,0,1,4.655-.932c.552-.07,1.074-.135,1.583-.214a2.851,2.851,0,0,1,.432-.034,1.873,1.873,0,0,1,1.352.511,1.682,1.682,0,0,1,.5,1.125,1.527,1.527,0,0,1-.477,1.2,1.821,1.821,0,0,1-1.26.435h-.047c-.177,0-.365,0-.575,0-.358,0-.718,0-1.1.009h-.017c-.372,0-.757.009-1.149.009a19.086,19.086,0,0,1-3.346-.232,30.691,30.691,0,0,1,.754,4.07,38.3,38.3,0,0,1-.419,10.73,105.016,105.016,0,0,1-2.468,10.555l-.156.569c-2.3,8.371-4.19,15.754-5.769,22.572-1.746,7.54-3.337,15.216-4.731,22.814-1.209,6.592-2.134,13.327-3.029,19.84l-.008.055c-.157,1.145-.32,2.33-.482,3.494a2.639,2.639,0,0,1-.749,1.541A2.439,2.439,0,0,1,155.4,176.979Zm-58.65-.344a2.214,2.214,0,0,1-1.117-.285,1.73,1.73,0,0,1-.764-.911c-2.443-6.526-4.77-13.2-7.02-19.662-.791-2.271-1.61-4.619-2.424-6.934a479.546,479.546,0,0,1-13.775-48.023c-1.907-7.97-3.674-16.077-5.253-24.1-.3-1.532-.6-3.073-.883-4.58L65.1,69.9c-.288-1.6-.452-3.27.957-4.537a6.485,6.485,0,0,1,1.978-1.142c.749-.3,1.553-.525,2.331-.746.436-.124.847-.241,1.24-.367l.132-.043c.658-.217,1.323-.431,1.966-.637.467-.15,1-.32,1.5-.486-.874-.607-1.756-1.232-2.609-1.836l-.009-.006,0,0c-.806-.571-1.64-1.161-2.463-1.734-.451-.314-.911-.631-1.356-.937-.91-.626-1.85-1.274-2.757-1.93a6.427,6.427,0,0,1-1.443-1.386,3.51,3.51,0,0,1-.695-1.764,6.93,6.93,0,0,1,.849-3.335c.064-.147.138-.313.206-.474l.05-.119c.467-1.113,1.011-2.407,1.559-3.673L69.8,37.181c.655-1.513,1.309-3.048,1.941-4.533l0,0c1.384-3.249,2.816-6.609,4.316-9.878a48.072,48.072,0,0,1,2.923-5.527c.571-.914,1.14-1.736,1.74-2.513A5.528,5.528,0,0,1,81.8,13.645a7.217,7.217,0,0,1,1.357-.775,16.417,16.417,0,0,0,2.451-1.5A17.053,17.053,0,0,1,88,9.893a12.692,12.692,0,0,1,5.422-1.265.118.118,0,0,1,.126.1.115.115,0,0,1-.091.131,17.981,17.981,0,0,0-3.049,1.1,13.858,13.858,0,0,0-2.7,1.658,8.205,8.205,0,0,0-2.058,2.167,3.343,3.343,0,0,0-.363,1.011l-.024.117a3.339,3.339,0,0,1-.668,1.5l-.063.086a33.05,33.05,0,0,0-2.719,4.459c-.859,1.669-1.6,3.388-2.158,4.7l-2.907,6.89-2.9,6.891-1.872,4.441-.936,2.22c-.5,1.19-1.026,2.4-1.534,3.561l-.006.014-.04.093c-.073.167-.148.335-.22.5-.159.357-.323.724-.467,1.091-.01.024-.026.088-.047.169a2.327,2.327,0,0,1-.143.452l.023.037a7.05,7.05,0,0,0,2.1,1.633c.345.209.67.407.937.6l3.05,2.178c.635.454,1.286.911,1.916,1.354l.013.009c1.522,1.07,3.1,2.177,4.585,3.322a1.672,1.672,0,0,1,.583.78,1.585,1.585,0,0,1,.038.874,2.107,2.107,0,0,1-.555.988,2.377,2.377,0,0,1-1.043.627c-1.868.537-3.737,1.165-5.545,1.772-.558.187-1.19.4-1.8.6-.369.122-.749.24-1.117.354-.618.192-1.258.39-1.868.614l-.593.226c-.159.063-.156.083-.136.212a1.788,1.788,0,0,1,.025.257,4.4,4.4,0,0,0,.134.843v0c.026.116.053.237.075.353.815,4.352,1.694,8.773,2.611,13.14,1.6,7.609,3.4,15.384,5.34,23.108,1.9,7.547,3.993,15.264,6.224,22.935,1.318,4.532,2.716,9.127,4.068,13.57v.007c.942,3.1,1.915,6.3,2.854,9.449,1.978,6.643,4.531,13.291,7,19.72l.02.052c.37.964.753,1.961,1.127,2.94a1.353,1.353,0,0,1-.186,1.394A2.228,2.228,0,0,1,96.752,176.634Zm49.03-2.821a2.233,2.233,0,0,1-1.248-.359,2.394,2.394,0,0,1-.862-1.044,1.647,1.647,0,0,1-.065-1.006c-.007-.214-.028-.446-.048-.67v0a8.586,8.586,0,0,1-.049-.908l.047-1.979c0-.186.012-.376.018-.559v0c0-.11.009-.235.013-.354l-.041,0c-2.193.094-4.542.136-7.619.136-1.282,0-2.586-.007-3.846-.014h-.02c-1.2-.007-2.439-.013-3.664-.014l-2.243,0h-.326c-1.582,0-3.448-.008-5.29-.071l-.7-.026c-.429-.018-.874-.032-1.3-.046h-.018c-.983-.032-2-.064-3-.141.2,1.433.369,2.725.512,3.949a1.783,1.783,0,0,1-.6,1.474,3,3,0,0,1-2.018.837,2.553,2.553,0,0,1-1.818-.692,2.832,2.832,0,0,1-.8-1.62c-.454-3.032-.774-6.13-1.083-9.125-.286-2.771-.582-5.635-.983-8.441-.673-4.7-1.274-9.5-1.856-14.13l-.035-.283-.163-1.3-.22-1.747c-2.584-20.431-4.872-39.153-6.994-57.235l-1.043-8.923-.109-.931c-1-8.538-2.034-17.366-2.9-26.062-.484-4.877-.95-9.931-1.425-15.453-.3-3.5-.517-7.2-.662-11.331a1.778,1.778,0,0,1-.555-1.891c.119-.368.265-.766.46-1.252l-.007-.272c-.008-.3-.016-.63-.023-.955a.457.457,0,0,1,.158-.357.79.79,0,0,1,.635-.166c.245-.524.5-1.054.753-1.567l0-.005c.409-.839.831-1.707,1.2-2.559.245-.564.483-1.149.712-1.715A27.87,27.87,0,0,1,99.068.056a.136.136,0,0,1,.245.059,26.26,26.26,0,0,1-.657,5.368h0c-.115.6-.234,1.217-.335,1.819-.151.9-.265,1.836-.375,2.741v0a38.491,38.491,0,0,1-.723,4.472,1.646,1.646,0,0,1-.07.323l-.028.08a2.308,2.308,0,0,1-1.646,1.387c.285,1.4.5,2.533.665,3.581.314,1.956.6,3.888.93,6.187l.356,2.477c.292,2.031.605,4.257.985,7.005a24.585,24.585,0,0,0,2.517.77,37.7,37.7,0,0,0,6.039.879c3.464.3,7.005.469,10.43.631h.018l2.055.1.893.044c2.353.119,4.473.177,6.48.177,2.719,0,5.2-.105,7.588-.322a54.85,54.85,0,0,0,6.876-1.065c.564-.125,1.129-.283,1.675-.435.567-.158,1.152-.321,1.735-.448a4.04,4.04,0,0,0,1.025-.436l.075-.04a1.239,1.239,0,0,1,.716-.387l.084-.013L146.7,35l.029-.011,0,.008a2.974,2.974,0,0,1,.35-.021A2.677,2.677,0,0,1,147.4,35c.069-1.51.165-3.5.288-5.462.064-1.03.154-2.089.241-3.113v0c.329-3.882.669-7.9-.218-11.722a.117.117,0,0,1,.027-.111.156.156,0,0,1,.113-.046.146.146,0,0,1,.139.089c1.922,4.474,1.981,9.346,2.037,14.057.008.685.017,1.393.031,2.085.09,4.375.06,8.825.031,13.129-.006.888-.012,1.806-.017,2.72a3.014,3.014,0,0,1,1.113.686,1.764,1.764,0,0,1,.516,1.335,1.273,1.273,0,0,1-.516.932,3.616,3.616,0,0,1-1.132.57c-.021,4.575-.059,9.207-.111,13.768a1.817,1.817,0,0,1,.77,1.562,1.642,1.642,0,0,1-.807,1.378c-.13,10.359-.321,20.891-.505,31.076v.011c-.08,4.419-.163,8.988-.24,13.5l-.531,31.176c-.027,1.591-.061,3.2-.095,4.764-.054,2.522-.109,5.131-.135,7.7l.033.012.118.048c.209.087.494.218.554.351a.159.159,0,0,1,.018.078,1.777,1.777,0,0,1,.923.408,1.211,1.211,0,0,1,.462,1.011A1.635,1.635,0,0,1,150.04,158l-.146.157a1.728,1.728,0,0,1-1.235.451,2.03,2.03,0,0,1-.281-.019c0,.84,0,1.695.008,2.521v.008c.006,1.718.013,3.495.007,5.247,0,.82-.017,1.626-.032,2.375l-.037,1.9a5.651,5.651,0,0,1-.233,1.7,1.924,1.924,0,0,1-1.156,1.25A3.193,3.193,0,0,1,145.782,173.813Zm-31.66-16.18.476,3.044c.265,1.7.485,3.123.7,4.568,1.082-.131,2.187-.208,3.255-.282h0c.422-.029.858-.06,1.284-.093,2.63-.206,5.333-.3,7.717-.391h0c1.508-.055,3.036-.122,4.515-.187,3.588-.158,7.3-.321,10.943-.321h.532c.058,0,.112,0,.158.007l.264-6.005-3.741-.005c-3.174,0-6.394-.029-9.509-.052l-2.34-.015h-.015c-2.036-.012-4.14-.024-6.21-.063l-1.223-.026c-.685-.016-1.378-.017-2.112-.017h0a46.26,46.26,0,0,1-4.694-.162Zm-1.221-8.579c.3,2.3.555,4.182.815,5.922a33.53,33.53,0,0,1,3.883-.184c.532,0,1.052.005,1.555.011h0c.5.005,1.015.011,1.524.011l.5,0,.31,0c1.157-.017,2.39-.026,3.879-.026,1.064,0,2.145,0,3.191.008h.008c.885,0,1.8.007,2.71.008,3.861,0,7.06.016,10.068.037l2.757.02.005-.123c.071-1.7.126-3.547.174-5.816-.185.019-.331.03-.473.035-.363.013-.721.015-.991.015H141.58c-1.377.011-3,.021-4.631.021h-.168c-3.108,0-6.274.017-9.412.05l-2.415.028h-.071c-2.381.028-4.842.057-7.264.062h-.162C115.872,149.128,114.225,149.087,112.9,149.055Zm-1.213-9.593c.235,1.8.463,3.624.684,5.392l0,.012,0,.033q.1.784.2,1.569c.2-.027.4-.05.592-.068,1.754-.162,3.3-.279,4.734-.357,3.241-.178,6.468-.268,9.471-.339,3.237-.077,6.518-.136,9.751-.177.816-.01,1.672-.015,2.618-.015.64,0,1.333,0,2.119.007h1c.37,0,.805,0,1.233.029.083.005.163.012.256.022l.056-3.508c.009-.572.02-1.162.03-1.753-1.486.081-2.952.092-4.191.092-.522,0-1.052,0-1.565,0h-.148c-.457,0-.929,0-1.4,0h-.623l-1.2,0c-2.35,0-4.89-.027-7.992-.083-3.717-.068-6.727-.173-9.473-.328-1.291-.073-2.577-.171-3.82-.292l-.636-.064c-.265-.028-.538-.053-.8-.078C112.287,139.521,111.987,139.493,111.688,139.461Zm-1.2-9.153.266,2.041c.208,1.592.443,3.4.671,5.131.425-.017.853-.025,1.267-.033h.01c.314-.006.639-.012.953-.022,1.572-.05,3.135-.059,4.456-.062h1.139c1.19,0,2.432,0,3.528.007,1.341,0,2.458.007,3.607.007h.92c3.248-.006,6.461-.055,9.474-.105,1.076-.018,2.172-.059,3.231-.1,1.425-.053,2.9-.108,4.345-.108h.139l.183-7.5c-5.364.376-10.964.578-17.622.635l-.885.007c-1.726.012-3.485.041-5.185.069-2.216.037-4.507.074-6.765.074C112.878,130.349,111.657,130.335,110.492,130.308Zm-1.356-10.439c.4,3.067.812,6.265,1.234,9.5,2.485-.269,5.018-.494,7.469-.711,2.677-.237,5.444-.482,8.154-.786l4.693-.529c4.5-.507,9.3-1.04,14.085-1.485l.159-6.5a9.062,9.062,0,0,1-2.121.239h-.031l-.215.008-2.276.1c-.873.038-2.022.086-3.165.123-3.525.114-7.076.221-10.552.319-2.713.076-4.9.111-6.893.111-1.4,0-2.685-.017-3.94-.052-1.884-.053-3.61-.138-5.278-.261-.278-.021-.561-.037-.835-.052h-.018Zm-1.35-10.481c.311,2.429.637,4.957.925,7.187l.234,1.809c.27-.038.543-.072.808-.105h.011c.321-.04.653-.082.969-.129,1.324-.2,2.738-.374,4.449-.555,2.83-.3,5.919-.552,9.721-.8,1.847-.118,3.726-.228,5.544-.334h.022l.037,0c1.441-.084,2.93-.171,4.394-.262l2.36-.147c.924-.057,1.674-.1,2.36-.137.424-.023.861-.03,1.323-.038a17.285,17.285,0,0,0,2.916-.211,2.112,2.112,0,0,1,.733-.128,2.329,2.329,0,0,1,.431.041l.159-6.529a13.953,13.953,0,0,1-2.4.23c-.244.009-.473.018-.7.031l-.178.011c-1.581.106-3.267.175-5.465.223-3.2.07-6.711.114-10.722.136l-2.149.012c-.97,0-2.119.01-3.29.01-2.032,0-3.718-.015-5.3-.048-1.77-.036-3.543-.111-5.51-.2-.268-.012-.545-.022-.812-.032h-.024C108.352,109.412,108.068,109.4,107.786,109.389ZM106.5,99.172c.379,3.049.725,5.8,1.058,8.412.346-.033.693-.062,1.028-.09.274-.023.585-.049.879-.077,2.036-.19,3.734-.345,5.51-.469,3.266-.227,6.59-.372,9.805-.512h0l.66-.029c1.962-.086,3.95-.157,5.872-.226h.014c1.586-.057,3.225-.115,4.837-.182,2.1-.087,3.7-.179,5.193-.3.4-.032.814-.093,1.254-.156h0a14.7,14.7,0,0,1,2.067-.2,5.606,5.606,0,0,1,.587.029c.052-2.129.109-4.34.158-6.291l.013-.528q.02-.786.04-1.573a2.248,2.248,0,0,1-1.478.662c-2.336.268-4.751.373-7.086.476-.869.038-1.767.077-2.648.124l-.57.032c-3.04.177-6.129.322-9.116.461l-.91.043c-3.335.156-6.8.29-10.3.4-.925.028-1.882.042-2.926.042-.467,0-.958,0-1.461-.009l-.626-.008-.642-.007C107.318,99.187,106.907,99.184,106.5,99.172ZM105.186,88.52c.382,3.128.766,6.246,1.141,9.265.527-.088,1.056-.16,1.568-.23l.479-.066.085-.012c1.608-.223,3.269-.454,4.912-.621,3.557-.362,6.836-.671,10.026-.944l.875-.075.263-.023h.012c2.436-.209,4.955-.425,7.435-.619l1.719-.131c1.067-.079,2.158-.176,3.213-.27h0c2.326-.207,4.732-.421,7.087-.464h.031a1.97,1.97,0,0,1,1.5.69c.076-2.977.154-5.888.233-8.857a1.286,1.286,0,0,1-.2.215c-1.216,1.061-2.69,1.139-4.252,1.222-.252.013-.512.027-.773.045l-.115.008c-2.035.151-3.836.277-5.506.383-3.891.248-7.757.414-11.025.544-3.581.142-6.319.206-8.877.206-.833,0-1.653-.007-2.438-.021-.475-.009-.964-.015-1.436-.022C109.187,88.715,107.161,88.687,105.186,88.52Zm-1.309-10.7,1.065,8.717c1.8-.229,3.647-.354,5.438-.475h0c.644-.043,1.31-.088,1.958-.137l.519-.04c2.867-.231,5.791-.4,8.619-.567l.073,0,2.071-.122c3.786-.226,7.523-.5,11.026-.76l.091-.007c1.774-.132,3.608-.268,5.416-.415l.227-.02c.233-.022.467-.047.693-.071a16.564,16.564,0,0,1,1.757-.127,4.642,4.642,0,0,1,2.448.6,1.49,1.49,0,0,1,.521.506q.024-.9.048-1.806l0-.073c.049-1.835.1-3.732.153-5.608a13.774,13.774,0,0,1-1.446.058h-.586c-.164,0-.379,0-.586.007-2.218.064-4.429.122-6.108.166l-12.217.319c-2.917.076-6.366.154-9.831.154-.913,0-1.809-.005-2.663-.016l-1.048-.012h-.005c-1.458-.015-2.966-.031-4.445-.1l-.61-.033c-.279-.016-.58-.028-.9-.039C105.012,77.889,104.446,77.868,103.877,77.817Zm-1.3-10.561c.37,2.968.743,5.993,1.111,8.993.619-.1,1.245-.164,1.851-.224h0c.248-.025.5-.05.742-.077l.177-.021c1.682-.2,3.4-.337,5.07-.465l.052,0,.709-.055c4.038-.314,8.021-.5,11.384-.646,2.586-.11,5.209-.21,7.746-.307l.153-.006,3.763-.145,3.887-.154,1.943-.074,1.567-.057.095,0,1.115-.041c.148-.005.3-.015.45-.024h.008c.235-.015.478-.03.715-.03.076,0,.146,0,.215,0l.13-.015.162-.017a1.908,1.908,0,0,1,.4-.206l.086-.029.181-6.419c-8.2.292-15.506.473-22.327.553-1.292.015-2.641.023-4.008.023-2.633,0-5.433-.028-8.56-.086-1.844-.034-3.682-.113-5.465-.233l-.68-.048c-.347-.026-.709-.049-1.059-.072h0C103.66,67.338,103.115,67.3,102.574,67.256Zm-1.22-9.663c.348,2.719.693,5.443,1.024,8.1.7-.07,1.4-.12,2.082-.168h.011c.349-.025.71-.05,1.055-.078,2.422-.192,4.375-.315,6.145-.387l4.1-.168c2.624-.107,5.432-.218,8.192-.307,8.22-.265,15.556-.544,22.428-.854.05-1.735.1-3.531.163-5.492A2.2,2.2,0,0,1,145,58.8h-.007c-2.141-.005-4.318-.006-6.424-.006H138.5c-5.588,0-11.366,0-17.045-.086-6.191-.09-9.543-.218-11.771-.319-1.8-.082-3.685-.244-5.753-.5-.328-.04-.661-.075-1.014-.112h0C102.4,57.722,101.872,57.667,101.354,57.593ZM100.1,47.979c.36,2.7.725,5.486,1.087,8.294.648-.1,1.31-.173,1.95-.241h0c.326-.035.634-.067.938-.1,2.165-.26,4.09-.43,5.885-.52,4.075-.2,8.1-.3,11.491-.359,5.7-.107,11.488-.136,17.089-.164h.023c2.107-.011,4.286-.022,6.429-.037h.022a2.148,2.148,0,0,1,1.622.637c.051-1.62.107-3.314.171-5.178-.282-.026-.567-.057-.842-.087-.477-.051-.927-.1-1.363-.127-2.151-.133-4.309-.254-6.413-.36-4.164-.211-8.545-.4-13.4-.591-4.274-.164-8.857-.337-13.4-.486l-1.954-.063C106.4,48.494,103.184,48.364,100.1,47.979Zm-1.4-10.409c.385,2.81.759,5.576,1.139,8.4l.115.866a88.178,88.178,0,0,1,11.444-.971c4.3-.162,8.527-.243,12.578-.243h.826c4.326.011,8.833.1,13.4.268,2.225.081,4.477.176,6.691.283.394.019.83.019,1.29.019h.013c.25,0,.508,0,.768,0q.009-.251.018-.5v-.02c.009-.261.018-.531.029-.8l.057-1.5v-.025c.045-1.187.1-2.533.146-3.822a18.565,18.565,0,0,1-4.2,1.107c-.26.047-.529.1-.781.145l-.173.034a65,65,0,0,1-7.612,1.015c-1.967.152-4.06.228-6.221.228-2.723,0-5.626-.118-8.875-.361l-.878-.066A93.531,93.531,0,0,1,105.23,39.9a25.636,25.636,0,0,1-5.954-2.029C99.067,37.769,98.877,37.669,98.694,37.569ZM2.737,172.773a1.939,1.939,0,0,1-2.06-1.715,216.055,216.055,0,0,1-.614-22.844c.144-6.7.533-13.957,1.223-22.836.544-7,1.292-13.858,2.221-20.373C4.5,98.071,5.728,91.272,7.166,84.8l.259-1.161c1.251-5.575,2.818-12.144,4.951-18.587a87.689,87.689,0,0,1,7.907-17.71A59.556,59.556,0,0,1,31.032,34.26a73.224,73.224,0,0,1,14.217-10.2,78.815,78.815,0,0,1,15.46-6.583,58.767,58.767,0,0,1,16.836-2.607c.594,0,1.192.011,1.779.032a.246.246,0,0,1,.244.216.2.2,0,0,1-.178.217c-3.609.712-6.75,1.417-9.6,2.155a96.847,96.847,0,0,0-9.346,2.887,75.872,75.872,0,0,0-8.858,3.933,72.459,72.459,0,0,0-8.159,4.974,69.114,69.114,0,0,0-12.618,11.46,66.6,66.6,0,0,0-9.138,13.8,82.345,82.345,0,0,0-3.709,8.842c-.951,2.657-1.866,5.544-2.88,9.084-.9,3.142-1.753,6.407-2.533,9.706-.749,3.164-1.454,6.457-2.1,9.788-1.2,6.226-2.215,12.784-3.009,19.491C6.7,117.7,6.124,124.3,5.724,131.077c-.438,7.416-.534,14.957-.626,22.251v0c-.074,5.81-.15,11.819-.4,17.727a1.671,1.671,0,0,1-.637,1.288A2.149,2.149,0,0,1,2.737,172.773Zm191.862-1.7a3.1,3.1,0,0,1-1.615-.454,1.98,1.98,0,0,1-.936-1.218c-1.267-5.686-2.393-11.7-3.546-18.938-.889-5.582-1.672-11.234-2.328-16.8-.661-5.606-1.21-11.279-1.634-16.863-.424-5.6-.693-11.312-.8-16.976-.045-2.468.016-5.05.187-7.892l.038-.606c.028-.427.051-.865.074-1.288v-.012a21.269,21.269,0,0,1,1.1-6.753.158.158,0,0,1,.151-.1.16.16,0,0,1,.153.1,24.683,24.683,0,0,1,1.334,7.235c.05.595.1,1.209.161,1.8l.024.23c.3,2.824.524,5.61.718,8.2l.076,1.026c.964,13.083,2.045,23.7,3.4,33.411,1.694,12.132,4.037,24.011,5.889,33.005a2.418,2.418,0,0,1-.267,1.733A2.389,2.389,0,0,1,195.235,171,2.7,2.7,0,0,1,194.6,171.071Zm-134.645-.879a2.448,2.448,0,0,1-1.321-.408,2.293,2.293,0,0,1-.858-.986,1.482,1.482,0,0,1-.091-.949,1.682,1.682,0,0,1,.637-.909c1.849-1.44,3.782-2.859,5.651-4.23h0l.005,0c1.077-.79,2.19-1.607,3.275-2.418l1.3-.972a47.332,47.332,0,0,1,7.732-4.952.171.171,0,0,1,.075-.017.175.175,0,0,1,.146.076.115.115,0,0,1,0,.132,47.8,47.8,0,0,1-6.8,7.277l-.341.318c-.977.911-1.961,1.849-2.913,2.755h0c-1.646,1.567-3.348,3.187-5.072,4.733A2.1,2.1,0,0,1,59.954,170.193Zm127.1-.153a3.128,3.128,0,0,1-1.977-.713c-1.03-.814-2.033-1.7-3-2.56h0l0,0c-.363-.321-.738-.652-1.108-.975l-.409-.354c-1.623-1.394-3.008-2.672-4.234-3.906L175.1,160.3a40.65,40.65,0,0,1-6.167-7.345.2.2,0,0,1,0-.228.281.281,0,0,1,.232-.113.311.311,0,0,1,.182.059c.928.667,1.813,1.421,2.669,2.15h0c.595.507,1.209,1.03,1.832,1.519,1.358,1.066,2.841,2.133,4.669,3.358,1.669,1.119,3.333,2.16,4.945,3.1,1.305.757,2.62,1.361,4.013,2l.048.022.252.116a2.8,2.8,0,0,1,1.813.93,2.489,2.489,0,0,1,.582,1.947,1.943,1.943,0,0,1-.805,1.369l-.2.137A3.728,3.728,0,0,1,187.053,170.039Zm26.358-2.327a2.657,2.657,0,0,1-1.779-.625,1.525,1.525,0,0,1-.5-1.243,11.067,11.067,0,0,1-.094-2.241c-.02-.1-.041-.2-.063-.3a1.084,1.084,0,0,1,.119-.79c.019-.329.039-.711.046-1.077.029-1.556.022-2.968-.02-4.319-.091-2.918-.216-5.735-.37-9.115-.3-6.609-.7-12.561-1.217-18.2-.489-5.32-1.117-10.641-1.867-15.813-.771-5.318-1.691-10.621-2.734-15.761-1.072-5.282-2.3-10.535-3.659-15.611-1.393-5.214-2.955-10.383-4.643-15.363-.82-2.418-1.705-4.778-2.632-7.015-.983-2.372-2.043-4.681-3.151-6.863-1.168-2.3-2.424-4.527-3.736-6.623a76.549,76.549,0,0,0-4.386-6.3c-1.385-1.785-2.889-3.54-4.47-5.216-1.559-1.652-3.241-3.277-5-4.829-1.979-1.749-3.794-3.247-5.549-4.581a59.925,59.925,0,0,0-6.024-4.069.258.258,0,0,1,.127-.482.33.33,0,0,1,.1.015l.592.181a43.629,43.629,0,0,1,7.272,2.773,48.424,48.424,0,0,1,6.777,4.362,51.454,51.454,0,0,1,6.134,5.488A67,67,0,0,1,187.9,40.3a68.7,68.7,0,0,1,4.368,6.629c1.258,2.166,2.472,4.514,3.609,6.979a131.527,131.527,0,0,1,5.574,14.545,278.163,278.163,0,0,1,8.171,31.836c1.094,5.473,2.064,10.986,2.881,16.387.834,5.513,1.533,11.058,2.077,16.481s.91,10.894,1.092,16.288c.1,2.944.089,5.9.065,8.4-.006.624,0,1.29.008,2.159l.031,2.159c0,.316.017.643.03.959v0a10.393,10.393,0,0,1-.2,3.173,1.783,1.783,0,0,1-.837,1.073A2.714,2.714,0,0,1,213.411,167.712ZM145.932,20.307a1.947,1.947,0,0,1-1.857-1.193,37.717,37.717,0,0,1-2.5-7.573A26.651,26.651,0,0,1,141,7.713c-.012-.194-.026-.387-.041-.591a8.142,8.142,0,0,1,.109-2.819.211.211,0,0,1,.209-.134.2.2,0,0,1,.176.09,9.726,9.726,0,0,1,.841,2.111c.118.38.24.773.383,1.143.123.319.246.644.365.959l0,.008h0c.307.811.624,1.65.976,2.463a44.416,44.416,0,0,0,3.66,6.827,1.437,1.437,0,0,1,.081,1.643,1.893,1.893,0,0,1-.771.651A2.446,2.446,0,0,1,145.932,20.307Z" transform="translate(0 10.653)"/></g><g transform="translate(68.117)"><path d="M101.144,29.691c-.094-2.963-4.962-4.193-6.368-1.259-.087.079-.182.154-.271.222.44-.334-.48.219-.63.287-.128.058-.259.111-.39.166-.9-7.505-3.975-15.6-11.91-19.363-11.067-4.751-23.855-5.678-36-5.206-6.151.323-13.253,1.194-18.717-1.561-1.7-.858-3.068-2.209-4.992-2.74-6.074-1.455-8.829,4.067-8,8.607A7.184,7.184,0,0,0,7.59,12.223c-.657,1.237-.645,2.572-1.211,3.814-1.737,3.149-4.223,5.412-2.817,9.23-2.471,2.49-1.062,6.259.932,8.642a25.517,25.517,0,0,1,2.879,3.818c.7,1.329-.357,2.9-.945,4.164-4.349,9.129-4.1,19.183-1.76,28.705A6.947,6.947,0,0,0,1.624,81.588c1.054,1.255,2.339,1.721,3.8,2.493,1.845.9.338,4.5.929,6.238.8,4.245,5.169,6.859,9.485,4.1,2.739-.367,4.949,6.689,6.938,8.46a30.04,30.04,0,0,0,4.066,3.891C31.247,116.812,53.833,121.9,65,121.322c11.694-1.084,19.583-9.875,26.152-17.678a29.064,29.064,0,0,0,6.365-13.886,58.473,58.473,0,0,0-.091-15.317c-1.138-10.85-2.934-26.482-4.093-37.449,4.19-.305,7.938-3.463,7.811-7.3Z" transform="translate(3.919 2.23)" fill="#ffdbb4"/><path d="M11.757,72.01a.168.168,0,0,1-.142-.072c-.029-.042-.038-.068-.028-.083s.024-.016.054-.016a1.285,1.285,0,0,1,.145.015l.067.009.08.009A.167.167,0,0,1,11.757,72.01Zm.436-.123a2.481,2.481,0,0,1-.259-.014.14.14,0,0,0-.006-.051A7.959,7.959,0,0,0,9.64,68.283a9.188,9.188,0,0,0-3.876-2.045,2.545,2.545,0,0,0-.563-2l-.188-.774-.173-.724a43.261,43.261,0,0,1-.946-5.113,43.26,43.26,0,0,1-.109-7.834,39.45,39.45,0,0,1,.725-5.064c.358-1.753.806-3.5,1.2-4.968L5.8,39.4l.69-2.567a31.647,31.647,0,0,0,5.212.844c.955.075,1.941.114,2.934.114.976,0,1.991-.037,3.016-.11l.065.158a1.126,1.126,0,0,0,.05.856,5.35,5.35,0,0,0,.589,1.065,16.233,16.233,0,0,0-.639-1.921.817.817,0,0,1,.333-.362c1.705-1.053,5.726-2.484,10.242-3.645,2.372-.61,4.779-1.118,6.962-1.469a41.292,41.292,0,0,1,6.408-.6c.251,0,.5,0,.735.012.876.03,1.812.1,2.782.21-.379.059-.773.124-1.172.2l-.376.069-.375.071c-3.115.6-6.276,1.413-9.334,2.2A98.473,98.473,0,0,1,18.641,37.6a17.79,17.79,0,0,1,2.7,12.2,16.094,16.094,0,0,1-1.219,4.1,33.659,33.659,0,0,1-2.045,3.835l-.293.484-.177.3A19.631,19.631,0,0,0,16,61.766a10.3,10.3,0,0,0-.659,3.52l0,.078a2.029,2.029,0,0,1-.451,1.215c0-.208,0-.416,0-.637v-.006a34.592,34.592,0,0,1,.137-3.761,6.049,6.049,0,0,1,.959-2.994l.107-.143c1.436-1.968,1.839-4.6,2.266-7.388a22.58,22.58,0,0,1,2.093-7.606c.445-.807-.491-2.076-1.4-3.3-.24-.325-.487-.66-.7-.976a15.175,15.175,0,0,1-1.181,10.976,31.639,31.639,0,0,1-2.969,4.323c-2.563,3.339-5.213,6.793-4.031,10.843a2.17,2.17,0,0,0,.95,1.254,2.841,2.841,0,0,0,1.5.4,3.273,3.273,0,0,0,1.264-.252,2.543,2.543,0,0,0,1-.732,10.651,10.651,0,0,1-.266,2.973C14.06,71.1,13.242,71.887,12.193,71.887Zm78-35.527-.062-.233-.065-.236.025,0,.054,0,.049.462ZM4.136,36.278h0L4.095,36.2l-.06-.109.2.07-.094.117Zm62.137-.235c-.564,0-1.157-.016-1.765-.049a46.645,46.645,0,0,1-7.623-1.578,88.013,88.013,0,0,0-11.7-2.424,41.023,41.023,0,0,1,6.24-.513A27.847,27.847,0,0,1,56.96,32a20.16,20.16,0,0,1,5.194,1.791.105.105,0,0,0,.048.012.087.087,0,0,0,.081-.057.078.078,0,0,0-.037-.1,22.452,22.452,0,0,0-3.529-1.829,25.444,25.444,0,0,0-3.754-1.2,30.755,30.755,0,0,0-3.917-.663,38.585,38.585,0,0,0-4.019-.2,63.042,63.042,0,0,0-12.093,1.337l-.524.1-.515.1c-1.116.228-2.261.475-3.368.714C25.556,33.087,20.416,34.2,15.321,34.2a28.65,28.65,0,0,1-7.265-.874,19.268,19.268,0,0,1-3.261-1.154,14.629,14.629,0,0,1-2.9-1.752L1.752,30.3A4.163,4.163,0,0,1,.024,28.045.848.848,0,0,1,.2,27.263a.934.934,0,0,1,.341-.232c.065-.03.107-.049.107-.071s-.021-.031-.066-.05a2.734,2.734,0,0,0,1.076.228,2.431,2.431,0,0,0,1.426-.456A2.209,2.209,0,0,0,3.9,25.6,1.63,1.63,0,0,0,3.88,24.47a2.019,2.019,0,0,0-.931-.989l-.171-.093A3.244,3.244,0,0,1,1.3,21.816a2.619,2.619,0,0,1-.053-1.823,3.185,3.185,0,0,1,1.226-1.6,3.98,3.98,0,0,1,2.279-.673H4.78l.182,0h.008A2.238,2.238,0,0,0,6.1,17.44a1.841,1.841,0,0,0,.7-.706,2.01,2.01,0,0,0,.23-1.183,2.1,2.1,0,0,0-.515-1.162l-.1-.115A2.287,2.287,0,0,1,5.807,13a2.053,2.053,0,0,1,.261-1.2A3.043,3.043,0,0,1,7.247,10.65,3.529,3.529,0,0,1,8.966,10.2a3.209,3.209,0,0,1,1.429.33l.144.073a2.187,2.187,0,0,0,.968.23,2.291,2.291,0,0,0,2.057-1.375,7.658,7.658,0,0,0,.6-2.692,22.274,22.274,0,0,0-.077-2.735c-.038-.543-.076-1.1-.09-1.656l0-.156,0-.26V1.751l0-.136a1.891,1.891,0,0,1,.4-1.32A1.225,1.225,0,0,1,15.219,0a4.619,4.619,0,0,1,2.2.884l.195.128.559.376c.37.253.739.516,1.1.77a27.244,27.244,0,0,0,2.726,1.783,27.44,27.44,0,0,0,4.765,2A32.45,32.45,0,0,0,31.7,7.094a45.906,45.906,0,0,0,5.083.489c.614.027,1.257.04,1.911.04a107.735,107.735,0,0,0,12.367-.99l.089-.011a108.78,108.78,0,0,1,12.621-1,36.556,36.556,0,0,1,8.062.807A26.209,26.209,0,0,1,75.678,7.6a23.728,23.728,0,0,1,3.684,1.832,14.48,14.48,0,0,1,3.772,3.313,14.275,14.275,0,0,1,2.331,4.233,23.653,23.653,0,0,1,1,5.607,27.1,27.1,0,0,0,.766,4.853,1.526,1.526,0,0,0,.753.9,2.523,2.523,0,0,0,1.231.313,2.066,2.066,0,0,0,1.087-.28,1.3,1.3,0,0,0,.613-.872l.021-.128.257-.142.1-.053a.419.419,0,0,1,.1-.045l0,0s-.014.022-.047.049l-.02.016.04-.031.091-.074.089-.077a2.828,2.828,0,0,1,1.188-1.277,3.336,3.336,0,0,1,1.622-.4c.129,0,.26.007.39.02l-.036.077-.378.862-.12.27a8.745,8.745,0,0,1-1.778,2.767,11.871,11.871,0,0,1-4.359,2.773.3.3,0,0,0-.227.324.321.321,0,0,0,.315.246c.266.023.539.035.813.035a10.584,10.584,0,0,0,2.648-.347,11.564,11.564,0,0,0,2.513-.976,10.5,10.5,0,0,0,2.159-1.507,8.158,8.158,0,0,0,1.585-1.94,2.59,2.59,0,0,1,.031.331,5.712,5.712,0,0,1-.069,1.094,2.143,2.143,0,0,0-.6.308,7.945,7.945,0,0,0-1.607,1.777A9.484,9.484,0,0,1,94.3,33.03a14.272,14.272,0,0,1-1.983,1.46,10.141,10.141,0,0,1-2.282,1.04.23.23,0,0,0-.064.031c-.141-.473-.266-.855-.393-1.2a.148.148,0,0,0-.144-.1.159.159,0,0,0-.164.136c0,.013-.012.019-.034.019a4.442,4.442,0,0,1-.876-.355c-.437-.2-.981-.448-1.612-.7A12.39,12.39,0,0,0,82.243,32.3a5.955,5.955,0,0,0-.776.049,22.736,22.736,0,0,0-5.974,1.739,28.473,28.473,0,0,1-3.862,1.34A21.759,21.759,0,0,1,66.273,36.042ZM58.941,22.9a.206.206,0,0,0-.2.153.141.141,0,0,0,.094.172,27.557,27.557,0,0,1,3.634,1.79,26.75,26.75,0,0,1,3.2,2.218,28,28,0,0,1,2.81,2.609,31.333,31.333,0,0,1,2.452,2.962,1.128,1.128,0,0,0,.964.46,1.934,1.934,0,0,0,.262-.019.784.784,0,0,0,.516-.285l.033-.037.1-.12a.849.849,0,0,0,0-.97A19.563,19.563,0,0,0,70.131,28.8a23.169,23.169,0,0,0-3.305-2.535,26.24,26.24,0,0,0-3.766-1.978,27.659,27.659,0,0,0-4.068-1.372.206.206,0,0,0-.051-.006Zm12.3-1.359a.259.259,0,0,0-.235.166.222.222,0,0,0,.061.271,18.823,18.823,0,0,1,3.972,3.806,10.2,10.2,0,0,1,1.244,2.256c.126.325.221.659.314.983a6.756,6.756,0,0,0,.611,1.6,1.429,1.429,0,0,0,1.28.725,1.769,1.769,0,0,0,1.788-1.461,5.063,5.063,0,0,0-1-3.082,13.974,13.974,0,0,0-2.259-2.6,10.743,10.743,0,0,0-2.557-1.743,9.89,9.89,0,0,0-3.036-.9l-.152-.019Zm-56.908-1.6a.7.7,0,0,0-.638.4.5.5,0,0,0,.15.611,15.037,15.037,0,0,0,4.685,2.6,25.911,25.911,0,0,0,5.391,1.227l.187.023a32.363,32.363,0,0,0,3.9.263,15.928,15.928,0,0,0,3.917-.43,7.12,7.12,0,0,0,3.2-1.652,1.011,1.011,0,0,0,.255-1.073.96.96,0,0,0-.759-.615,8.993,8.993,0,0,0-1.639-.138,19.041,19.041,0,0,0-2.026.131l-.349.039-.867.1a38.533,38.533,0,0,1-4.43.283c-.245,0-.49,0-.729-.009a42.294,42.294,0,0,1-8.442-1.366c-.538-.125-1.094-.254-1.643-.377a.749.749,0,0,0-.163-.018Zm60.006-7.316a.486.486,0,0,0-.4.242.322.322,0,0,0,.015.376c.556.682,1.18,1.329,1.784,1.955.531.551,1.081,1.12,1.581,1.71.321.379.63.768.929,1.145a19.722,19.722,0,0,0,2.31,2.578.958.958,0,0,0,.646.243,1.075,1.075,0,0,0,.792-.35.742.742,0,0,0,.163-.718,7.96,7.96,0,0,0-1.12-2.26A12.118,12.118,0,0,0,79.214,15.5a14.025,14.025,0,0,0-4.742-2.849A.4.4,0,0,0,74.344,12.626ZM20.02,14.02h0a.368.368,0,0,0-.334.217.318.318,0,0,0,.072.384A14.567,14.567,0,0,0,24.4,17.3a16.481,16.481,0,0,0,5.565,1.01,11.889,11.889,0,0,0,4.288-.745.726.726,0,0,0,.523-.853,1.179,1.179,0,0,0-1.06-.9c-.522-.028-1.075-.041-1.793-.041-.331,0-.667,0-.992.005H30.92c-.322,0-.655.005-.982.005a24.156,24.156,0,0,1-3.211-.172,40.368,40.368,0,0,1-6.586-1.566.406.406,0,0,0-.121-.019ZM25.88,9.844a.351.351,0,0,0-.335.242.429.429,0,0,0,.159.512,9.4,9.4,0,0,0,5.152,1.56,9.056,9.056,0,0,0,1.709-.163.594.594,0,0,0,.509-.675.653.653,0,0,0-.67-.58h-.031c-.307.011-.608.016-.9.016a15.281,15.281,0,0,1-5.43-.88A.487.487,0,0,0,25.88,9.844Zm13.109-5.8h-.207a40.608,40.608,0,0,1-7.037-.591c.689.037,1.4.055,2.183.055,2.057,0,4.135-.129,6.145-.254h0c.789-.049,1.534-.1,2.283-.135,1.874-.073,3.717-.11,5.477-.11,1.233,0,2.459.018,3.644.054l-1.356.159-.9.1A90.875,90.875,0,0,1,38.989,4.047Z" transform="translate(7.138 3.617)"/><path d="M.483.413A.085.085,0,0,0,.489.456s0-.007,0-.013L.483.413" transform="translate(13.237 24.985)" fill="#4f66af"/><path d="M.453.46A.469.469,0,0,0,.394.421h0L.453.46" transform="translate(13.266 25.095)" fill="#4f66af"/><path d="M65.872,126.273a26.811,26.811,0,0,1-8.576-1.361l-.233-.081c-5.123-1.791-8.091-4.1-8.821-6.851a2.255,2.255,0,0,1,.518-2.142,2.841,2.841,0,0,1,.979-.7,3.141,3.141,0,0,1,1.245-.258,3.212,3.212,0,0,1,1.363.3,11.89,11.89,0,0,1,2.6,1.681l.147.12a9.089,9.089,0,0,0,1.722,1.165,15.283,15.283,0,0,0,4.633,1.724,21.131,21.131,0,0,0,4.584.493,23.2,23.2,0,0,0,5.821-.748A26.9,26.9,0,0,0,77,117.693a33.8,33.8,0,0,0,4.611-2.782,47.549,47.549,0,0,0,4.155-3.352c1.168-1.047,2.4-2.237,3.776-3.639a50.623,50.623,0,0,0,7.012-8.585A19.519,19.519,0,0,0,98.765,94.3a19.173,19.173,0,0,0,.666-5.374,91.021,91.021,0,0,0-.762-9.156v0c-.132-1.121-.268-2.28-.384-3.416-.471-4.575-.863-8.752-1.2-12.768-.261-3.123-.339-6.31-.415-9.392h0c-.021-.86-.043-1.749-.068-2.623l-.023-.751c-.051-1.6-.091-3.211-.13-4.773q-.02-.806-.04-1.612c-.013-.5-.033-1.012-.053-1.506a31.351,31.351,0,0,1,.057-4.878.159.159,0,0,1,.164-.136.148.148,0,0,1,.145.1c.126.343.251.725.393,1.2a.235.235,0,0,1,.064-.031,10.143,10.143,0,0,0,2.282-1.04,14.272,14.272,0,0,0,1.983-1.46A9.483,9.483,0,0,0,102.79,35.1a7.946,7.946,0,0,1,1.608-1.778,2.167,2.167,0,0,1,1.294-.42,2,2,0,0,1,1.493.621,1.439,1.439,0,0,1,.292,1.385,4.514,4.514,0,0,1-1.769,2.3,12.565,12.565,0,0,1-2.75,1.5,12.01,12.01,0,0,1-4.763.852c-.3,0-.619-.007-.96-.021l-.025,0c.382,1.355.656,2.765.92,4.129h0v0c.127.651.257,1.325.4,1.979.541,2.526,1.087,5.114,1.621,7.69.177.854.374,1.722.564,2.562v0c.362,1.6.737,3.254,1,4.887.256,1.616.51,3.261.756,4.851v0l0,.026c.135.875.275,1.779.413,2.668.532,3.421.988,6.908,1.429,10.281.095.726.2,1.549.309,2.355l.265,1.994a59.938,59.938,0,0,1,.58,6.332,23.4,23.4,0,0,1-.63,6.317,24,24,0,0,1-2.3,5.692,38.382,38.382,0,0,1-3.5,5.2,73.325,73.325,0,0,1-8.469,9.112c-6.963,6.274-14.379,9.815-22.043,10.524C67.647,126.232,66.757,126.273,65.872,126.273ZM35.732,113.12c-1.478,0-3.1-1.336-4.288-2.311-.187-.154-.364-.3-.526-.428l-.11-.087a37.724,37.724,0,0,1-4.552-4.191,30.731,30.731,0,0,1-3.619-4.7A20.112,20.112,0,0,1,20.3,96.122,2.931,2.931,0,0,1,19.329,98a6.126,6.126,0,0,1-3.106,1.581,8.1,8.1,0,0,1-1.535.149,7.185,7.185,0,0,1-3-.633A6.445,6.445,0,0,1,9.319,97.26,7.13,7.13,0,0,1,7.96,94.437a9.575,9.575,0,0,1-.215-3.085l.021-.243c0-.04.006-.084.009-.131a5,5,0,0,1,.141-1.042l-.846-.411a13.988,13.988,0,0,1-2.86-1.832,12.07,12.07,0,0,1-2.25-2.416,11.115,11.115,0,0,1-1.453-2.86,8.93,8.93,0,0,1,.084-6.171,10.5,10.5,0,0,1,2.242-3.439,10.937,10.937,0,0,1,1.616-1.366A10.729,10.729,0,0,1,6.332,70.4a9.836,9.836,0,0,1-.707-2.631q-.028-.163-.055-.322l-.028-.158a38.565,38.565,0,0,1-.615-4.754,38.134,38.134,0,0,1,.564-8.9,36.308,36.308,0,0,1,2.042-7.2,25.9,25.9,0,0,1,3.837-6.625,17.224,17.224,0,0,1-6.523-3.885,7.7,7.7,0,0,1-2.019-3.2,4.658,4.658,0,0,1-.182-1.791,4.213,4.213,0,0,1,.611-1.782,5.176,5.176,0,0,1,1.379-1.487,6.683,6.683,0,0,1-.9-2.531,5.962,5.962,0,0,1,.239-2.684,7.521,7.521,0,0,1,4.859-4.56,5.873,5.873,0,0,1,1.59-5.861,6.612,6.612,0,0,1,2.414-1.506,8.464,8.464,0,0,1,2.879-.5,8.984,8.984,0,0,1,1.4.11,16.272,16.272,0,0,0-.128-2.608,10.717,10.717,0,0,1,.078-3.928,4.687,4.687,0,0,1,.768-1.583A4.626,4.626,0,0,1,19.047.889,6.086,6.086,0,0,1,22.328,0,7.725,7.725,0,0,1,25.91.889a19.61,19.61,0,0,1,2.655,1.785c.558.421,1.134.857,1.735,1.245A20.083,20.083,0,0,0,35.176,6.2,36.029,36.029,0,0,0,45.922,7.692h.2a106.757,106.757,0,0,0,12.43-.974h.006a106.733,106.733,0,0,1,12.431-.974c.475,0,.95.006,1.41.019a42.317,42.317,0,0,1,5.2.46,35.407,35.407,0,0,1,5.1,1.157,24.007,24.007,0,0,1,8.882,4.779,17.206,17.206,0,0,1,3.336,4.006,19.252,19.252,0,0,1,2.016,4.656,40.583,40.583,0,0,1,1.014,4.611l.062.387c.04.25.087.51.133.761a13.232,13.232,0,0,1,.261,2.013,8.631,8.631,0,0,1-.215,1.785v0c-.044.232-.09.473-.126.7a1.3,1.3,0,0,1-.6.917,2.076,2.076,0,0,1-1.11.295,2.523,2.523,0,0,1-1.231-.313,1.526,1.526,0,0,1-.752-.9,27.1,27.1,0,0,1-.766-4.854,23.656,23.656,0,0,0-1-5.606,14.279,14.279,0,0,0-2.331-4.233A14.479,14.479,0,0,0,86.5,13.079a23.727,23.727,0,0,0-3.684-1.832,26.213,26.213,0,0,0-3.847-1.173,36.555,36.555,0,0,0-8.062-.807,108.783,108.783,0,0,0-12.621,1l-.09.011a107.738,107.738,0,0,1-12.368.99c-.654,0-1.3-.013-1.911-.04a45.915,45.915,0,0,1-5.083-.489A32.451,32.451,0,0,1,33.9,9.586a27.456,27.456,0,0,1-4.765-2A27.268,27.268,0,0,1,26.405,5.8h0c-.356-.254-.725-.517-1.094-.769l-.559-.376a4.971,4.971,0,0,0-2.393-1.012,1.225,1.225,0,0,0-.831.294,2.287,2.287,0,0,0-.4,1.662l0,.26c.01.605.052,1.219.093,1.812a22.277,22.277,0,0,1,.077,2.735,7.66,7.66,0,0,1-.6,2.692,2.291,2.291,0,0,1-2.057,1.375,2.186,2.186,0,0,1-.968-.23l-.064-.033a3.2,3.2,0,0,0-1.509-.371,3.53,3.53,0,0,0-1.719.452,3.043,3.043,0,0,0-1.179,1.143,2.053,2.053,0,0,0-.261,1.2,2.287,2.287,0,0,0,.6,1.277l.063.07a2.1,2.1,0,0,1,.551,1.165,2.015,2.015,0,0,1-.212,1.2,1.84,1.84,0,0,1-.7.723,2.231,2.231,0,0,1-1.142.287h-.081l-.133,0a3.98,3.98,0,0,0-2.279.673,3.185,3.185,0,0,0-1.226,1.6,2.619,2.619,0,0,0,.053,1.823,3.245,3.245,0,0,0,1.473,1.571l.1.052a2.083,2.083,0,0,1,.989.988,1.621,1.621,0,0,1,.049,1.142,2.2,2.2,0,0,1-.814,1.1,2.429,2.429,0,0,1-1.439.466,2.732,2.732,0,0,1-1.076-.228c.045.019.066.035.066.05s-.042.042-.107.071a.934.934,0,0,0-.342.233.848.848,0,0,0-.176.783,2.641,2.641,0,0,0,.705,1.317,8.967,8.967,0,0,0,1.169,1.053,14.63,14.63,0,0,0,2.9,1.752,19.269,19.269,0,0,0,3.261,1.154,28.654,28.654,0,0,0,7.265.874c5.095,0,10.233-1.109,15.2-2.181,1.451-.313,2.951-.637,4.41-.923A63.041,63.041,0,0,1,54.165,33.4a38.591,38.591,0,0,1,4.019.2,30.75,30.75,0,0,1,3.917.662,25.442,25.442,0,0,1,3.754,1.2A22.456,22.456,0,0,1,69.385,37.3a.078.078,0,0,1,.036.1.087.087,0,0,1-.081.057.1.1,0,0,1-.048-.012A20.161,20.161,0,0,0,64.1,35.649a27.847,27.847,0,0,0-5.54-.525,43.5,43.5,0,0,0-8.162.848c-3.115.6-6.276,1.413-9.333,2.2A98.474,98.474,0,0,1,25.78,41.249a17.79,17.79,0,0,1,2.7,12.2,16.089,16.089,0,0,1-1.218,4.1,33.636,33.636,0,0,1-2.045,3.835l-.293.484a21.725,21.725,0,0,0-1.728,3.4,10.383,10.383,0,0,0-.715,3.671,2.494,2.494,0,0,1-2.714,2.277,2.84,2.84,0,0,1-1.5-.4,2.17,2.17,0,0,1-.95-1.254c-1.183-4.051,1.468-7.5,4.031-10.844a31.648,31.648,0,0,0,2.969-4.323,15.319,15.319,0,0,0,.477-13.055c-1.026.073-2.041.11-3.016.11-.992,0-1.979-.038-2.934-.114a31.642,31.642,0,0,1-5.212-.844l-.69,2.567a56.163,56.163,0,0,0-2.017,10.386,43.26,43.26,0,0,0,.109,7.834,52.387,52.387,0,0,0,1.307,6.61,2.546,2.546,0,0,1,.563,2.005,9.188,9.188,0,0,1,3.876,2.045,7.958,7.958,0,0,1,2.288,3.539.128.128,0,0,1-.025.126.2.2,0,0,1-.145.062.168.168,0,0,1-.142-.072A6.767,6.767,0,0,0,15.91,73.3a9.341,9.341,0,0,0-3.823-.816,7.572,7.572,0,0,0-3.878.99A7.332,7.332,0,0,0,6.22,75.2a6.652,6.652,0,0,0-1.168,2.189A5.824,5.824,0,0,0,5.6,82.147,8.4,8.4,0,0,0,9.722,85.6l.361.15a5.527,5.527,0,0,1,2.408,1.614,3.559,3.559,0,0,1,.69,1.587,7.242,7.242,0,0,1,.047,1.7l-.032.475a5.958,5.958,0,0,0,.2,2.351l.06.168a2.178,2.178,0,0,0,.27.535c.023.033.166.161.3.285l0,0c.083.075.161.145.2.188l.147.039.164.006h.009a1.486,1.486,0,0,0,.2-.018l.035-.005.011,0a.807.807,0,0,1,.089-.011c.007,0,.011,0,.012,0s0,.007-.015.014l.021-.011c.06-.033.122-.072.186-.114l.1-.07a2.763,2.763,0,0,1,.9-.747l.349-.138a1.744,1.744,0,0,1,1.217-.455,2.489,2.489,0,0,1,1.892.9,3.2,3.2,0,0,1,.74,1.833.254.254,0,0,1,.2-.109.183.183,0,0,1,.14.065l.616.7.608.689A88.14,88.14,0,0,0,28.61,104.3a47.689,47.689,0,0,0,4.722,3.757c.345.241.764.479,1.206.73,1.363.774,2.908,1.652,2.939,3.015a1.312,1.312,0,0,1-1.031,1.2A2.184,2.184,0,0,1,35.732,113.12Zm-15.9-26.456a3.26,3.26,0,0,1-1.312-.276,3.636,3.636,0,0,1-1.745-1.849c-.116-.208-.235-.423-.369-.637a8.185,8.185,0,0,0-1.6-1.781A15.727,15.727,0,0,0,10.3,79.4a.292.292,0,0,1-.18-.273.307.307,0,0,1,.18-.289,8.184,8.184,0,0,1,3.274-.651,9.992,9.992,0,0,1,3.762.753l.15.063a12.31,12.31,0,0,1,1.88,1.016,9.882,9.882,0,0,1,1.729,1.419,5.216,5.216,0,0,1,1.133,1.707,2.879,2.879,0,0,1,.094,1.88,2.159,2.159,0,0,1-.947,1.225A2.9,2.9,0,0,1,19.833,86.664Zm59.21-49.75a1.127,1.127,0,0,1-.964-.46,31.34,31.34,0,0,0-2.453-2.962,28,28,0,0,0-2.81-2.609,26.75,26.75,0,0,0-3.2-2.218,27.561,27.561,0,0,0-3.634-1.79.14.14,0,0,1-.094-.172.2.2,0,0,1,.246-.147A27.664,27.664,0,0,1,70.2,27.928a26.24,26.24,0,0,1,3.766,1.978,23.17,23.17,0,0,1,3.305,2.535,19.562,19.562,0,0,1,2.684,3.043.85.85,0,0,1,0,.97l-.1.12a.8.8,0,0,1-.549.322A1.933,1.933,0,0,1,79.043,36.914Zm17.083-.555c-.273,0-.547-.012-.813-.035A.321.321,0,0,1,95,36.078a.3.3,0,0,1,.227-.324,11.87,11.87,0,0,0,4.359-2.773,10.141,10.141,0,0,0,2.052-3.387c.073-.167.148-.34.225-.512a2.039,2.039,0,0,1,1.114-1.115,1.566,1.566,0,0,0,.177-.267,1.087,1.087,0,0,1,.918-.456,1.066,1.066,0,0,1,1.048.683l.036.069c.063.127.083.208.06.24a.045.045,0,0,1-.039.016.469.469,0,0,1-.2-.084,1.685,1.685,0,0,1,.71,1.847,8.026,8.026,0,0,1-3.586,4.546,11.434,11.434,0,0,1-2.867,1.322A10.7,10.7,0,0,1,96.126,36.359ZM85.632,35a1.429,1.429,0,0,1-1.281-.725,6.75,6.75,0,0,1-.611-1.6c-.092-.324-.188-.658-.314-.983a10.174,10.174,0,0,0-1.244-2.256,18.818,18.818,0,0,0-3.972-3.806.223.223,0,0,1-.061-.272.259.259,0,0,1,.235-.166l.03,0a9.892,9.892,0,0,1,3.122.892,10.724,10.724,0,0,1,2.623,1.774,13.977,13.977,0,0,1,2.259,2.6,5.063,5.063,0,0,1,1,3.082A1.769,1.769,0,0,1,85.632,35ZM35.149,28.712a32.362,32.362,0,0,1-3.9-.263,26.282,26.282,0,0,1-5.49-1.22A15.1,15.1,0,0,1,20.988,24.6a.5.5,0,0,1-.15-.611.7.7,0,0,1,.638-.4.748.748,0,0,1,.163.018c.548.123,1.1.252,1.642.377h0a42.291,42.291,0,0,0,8.442,1.366c.239.006.484.009.729.009a38.537,38.537,0,0,0,4.43-.283l.867-.1a20.49,20.49,0,0,1,2.375-.17,8.989,8.989,0,0,1,1.639.138.96.96,0,0,1,.759.615,1.011,1.011,0,0,1-.255,1.073,7.121,7.121,0,0,1-3.2,1.652A15.929,15.929,0,0,1,35.149,28.712Zm53.194-4.19a.958.958,0,0,1-.646-.243A19.708,19.708,0,0,1,85.388,21.7h0c-.3-.377-.609-.767-.929-1.145-.5-.59-1.049-1.159-1.579-1.709-.6-.627-1.23-1.274-1.785-1.956a.322.322,0,0,1-.015-.376.486.486,0,0,1,.4-.242.4.4,0,0,1,.129.022,14.024,14.024,0,0,1,4.742,2.849,12.118,12.118,0,0,1,1.824,2.052,7.961,7.961,0,0,1,1.12,2.26.742.742,0,0,1-.163.718A1.075,1.075,0,0,1,88.342,24.522ZM37.1,21.951a16.477,16.477,0,0,1-5.565-1.009A14.566,14.566,0,0,1,26.9,18.267a.318.318,0,0,1-.072-.384.368.368,0,0,1,.334-.217.406.406,0,0,1,.121.019,40.365,40.365,0,0,0,6.586,1.566,24.1,24.1,0,0,0,3.205.172c.331,0,.667,0,.992-.005h.017c.318,0,.647,0,.971,0,.722,0,1.277.013,1.8.041a1.179,1.179,0,0,1,1.06.9.726.726,0,0,1-.523.853A11.89,11.89,0,0,1,37.1,21.951ZM38,15.8a9.4,9.4,0,0,1-5.153-1.56.429.429,0,0,1-.159-.512.351.351,0,0,1,.335-.242.487.487,0,0,1,.168.032,15.28,15.28,0,0,0,5.43.88c.287,0,.589-.005.9-.016h.031a.654.654,0,0,1,.67.58.594.594,0,0,1-.509.675A9.056,9.056,0,0,1,38,15.8Z" transform="translate(0 0)"/></g><g transform="translate(97.319 42.364)"><path d="M30.3,47.52a12.044,12.044,0,0,1-6.7-2.057,10.69,10.69,0,0,1-2.153-1.918A1.8,1.8,0,0,1,21,42.024a2.174,2.174,0,0,1,.966-1.374,2.588,2.588,0,0,1,1.417-.436,2.322,2.322,0,0,1,.316.022,2.225,2.225,0,0,1,1.464.855l.087.105a7.415,7.415,0,0,0,2.77,2.053,6.98,6.98,0,0,0,2.747.566c.226,0,.455-.011.681-.034a7.79,7.79,0,0,0,3.024-.939,13.93,13.93,0,0,0,2.562-1.889c.183-.165.378-.345.63-.582a.99.99,0,0,1,.522-.355,1.2,1.2,0,0,1,.34-.048,1.291,1.291,0,0,1,.381.057,1.138,1.138,0,0,1,.567.38.852.852,0,0,1,.179.614A5.173,5.173,0,0,1,38.9,43.2a7.494,7.494,0,0,1-1.619,1.837,10.529,10.529,0,0,1-2.452,1.51,11.153,11.153,0,0,1-2.722.824A11.312,11.312,0,0,1,30.3,47.52ZM33.15,33.254h0a10.926,10.926,0,0,1-3.491-.622,18.382,18.382,0,0,1-4.106-2.058,1.384,1.384,0,0,1-.573-.8,1.484,1.484,0,0,1,.081-.9,2.072,2.072,0,0,1,.691-.883,1.814,1.814,0,0,1,1.077-.371,1.675,1.675,0,0,1,.833.226l.278.189,0,0a22.5,22.5,0,0,0,2.57,1.579,6.94,6.94,0,0,0,3.081.868,3.711,3.711,0,0,0,1.3-.226,3.671,3.671,0,0,0,1.212-.759,3,3,0,0,0,.705-2.644,4.869,4.869,0,0,0-1.5-2.345,10.8,10.8,0,0,0-2.271-1.619.576.576,0,0,1-.191-.715.942.942,0,0,1,.35-.445,1.17,1.17,0,0,1,.671-.2,1.613,1.613,0,0,1,.241.019,8.279,8.279,0,0,1,2.678.855,5.859,5.859,0,0,1,1.8,1.467,5.328,5.328,0,0,1,1.15,3.894,5.823,5.823,0,0,1-.589,2.044,5.973,5.973,0,0,1-1.328,1.756A6.793,6.793,0,0,1,33.15,33.254ZM10.433,19.324a2.466,2.466,0,0,1-1.486-.514,1.979,1.979,0,0,1-.779-1.322,13.172,13.172,0,0,1,.09-3.878c.053-.377.108-.766.146-1.186a2.268,2.268,0,0,1,1-1.659,3.331,3.331,0,0,1,1.887-.586,2.54,2.54,0,0,1,1.427.4,1.831,1.831,0,0,1,.788,1.239,9.355,9.355,0,0,1-1.229,6.411,2.158,2.158,0,0,1-.821.839A2.082,2.082,0,0,1,10.433,19.324Zm33.346-.879a2.132,2.132,0,0,1-1.57-.594,5.325,5.325,0,0,1-.959-1.437,5.673,5.673,0,0,1-.488-1.731,3.414,3.414,0,0,1,1.133-3.15,2.074,2.074,0,0,1,.181-.244,2.644,2.644,0,0,1,1.974-1,2.4,2.4,0,0,1,.6.078,2.8,2.8,0,0,1,1.929,1.487,4.682,4.682,0,0,1,.239,2.876,8.853,8.853,0,0,1-.987,2.713,1.9,1.9,0,0,1-.853.744A2.862,2.862,0,0,1,43.779,18.444ZM.369,9.206a.372.372,0,0,1-.3-.165.323.323,0,0,1-.024-.352,12.585,12.585,0,0,1,3.1-3.468A19.463,19.463,0,0,1,7.295,2.716,19.483,19.483,0,0,1,12.225,1.2l.527-.081A14.46,14.46,0,0,1,14.9.91a3.572,3.572,0,0,1,2.655.874A1.848,1.848,0,0,1,18.091,3.2a1.255,1.255,0,0,1-.533.925,4.48,4.48,0,0,1-2.8.726c-.221,0-.449-.005-.67-.01h-.008c-.212,0-.453-.01-.692-.01-.22,0-.416,0-.6.014a21.246,21.246,0,0,0-4.173.628A29.868,29.868,0,0,0,.563,9.15.378.378,0,0,1,.369,9.206ZM51.141,7.33h0l-.222-.049a13.589,13.589,0,0,1-2.434-.839L47.694,6.1a23.6,23.6,0,0,0-2.823-1.063A37.122,37.122,0,0,0,38.44,3.78a2.841,2.841,0,0,1-1.29-.433,1.709,1.709,0,0,1-.722-.971A1.566,1.566,0,0,1,36.65.922,2.047,2.047,0,0,1,37.669.146,2.557,2.557,0,0,1,38.537,0a2.884,2.884,0,0,1,.5.044l.4.073A31.518,31.518,0,0,1,46.387,2.11a14.328,14.328,0,0,1,3.055,1.774A8.084,8.084,0,0,1,51.6,6.35c.076.515.006.642-.073.729l-.022.025-.02.024a.561.561,0,0,1-.345.2Z" transform="translate(14.864 12.883)"/></g></g><g transform="translate(-1837.801 334.566)"><path d="M86.228,15.781C85.773,8.552,78.5,5.49,74.87,4.582,62.8,1.028,52.53,10.146,38.137,10.333A31.813,31.813,0,0,1,30.6,9.415C20.8,6.626,11.006,3.659,1.389,0-.025.415-.444,2.726.527,4.043c9.211,4.091,23.3,7.755,30.745,8.172-.143,12.041-5.218,24.149-12.226,30.808C30.192,58.462,56.188,63.54,71.486,55.436c7.526-2.829,15.467-28.152,14.742-39.654" transform="translate(0.833 0.975)" fill="#fff"/><path d="M59.132,64.343h0L55.321,64c-6.462-.6-13.293-1.376-19.529-3.733a35.783,35.783,0,0,1-4.549-2.083,30.9,30.9,0,0,1-4.249-2.805,29.765,29.765,0,0,1-3.867-3.658,32.378,32.378,0,0,1-3.4-4.641l-.065.07a2.8,2.8,0,0,1-.923-2.04,3.434,3.434,0,0,1,.8-2.453l.032.062c.015-.031.032-.061.048-.09l.017-.03-.013-.053a19.2,19.2,0,0,1,1.3-1.492l0,.009a34.957,34.957,0,0,0,4.28-5.5,40.2,40.2,0,0,0,3.3-6.482A42.648,42.648,0,0,0,30.678,21.9a42.043,42.043,0,0,0,.876-7.592,1.253,1.253,0,0,1-.372.04c-1.969,0-9.723-1.772-16.933-3.871C10.28,9.319,6.895,8.189,4.46,7.206,1.577,6.043.077,5.114,0,4.447c-.033-.293.217-.536.742-.723A128.6,128.6,0,0,0,14.283,8.681a.165.165,0,0,1,.094-.031.144.144,0,0,1,.135.1,109.106,109.106,0,0,0,17.049,3.515c-.006-.325-.016-.671-.03-1.029-4.6-1.122-9.555-2.588-15.139-4.481-5.017-1.7-9.934-3.531-14.949-5.414-.124-.006-.2-.149-.2-.374C1.254.576,1.506,0,2.027,0A.788.788,0,0,1,2.2.021c3.261.955,6.69,2.128,10.322,3.37,4.817,1.647,9.8,3.35,14.717,4.647,2.659.7,5.043,1.217,7.287,1.578a43.738,43.738,0,0,0,6.973.605h.136a27.2,27.2,0,0,0,6.505-1.157c2.131-.621,4.269-1.433,6.337-2.218,2.183-.829,4.441-1.686,6.694-2.32a25.752,25.752,0,0,1,6.891-1.071,45.229,45.229,0,0,1,4.853.353,28.057,28.057,0,0,1,5,1.1,18.471,18.471,0,0,1,4.651,2.23,14.619,14.619,0,0,1,3.814,3.751,50.607,50.607,0,0,1,.694,19.885,56.912,56.912,0,0,1-2.419,9.8,50.266,50.266,0,0,1-4.023,8.872,39.67,39.67,0,0,1-4.242,6,29.975,29.975,0,0,1-5.058,4.694,22.852,22.852,0,0,1-5.783,3.073A19.785,19.785,0,0,1,59.132,64.343ZM32.437,11.434a32.224,32.224,0,0,1,.3,8.935,39.26,39.26,0,0,1-1.941,8.724,43.345,43.345,0,0,1-3.666,7.957,39.389,39.389,0,0,1-4.879,6.633,78.619,78.619,0,0,0,6.86,6.745,30.135,30.135,0,0,0,6.066,4.093c4.065,2.032,8.525,2.912,15.333,3.825l1.764.263a64.664,64.664,0,0,0,7.992.818A19.473,19.473,0,0,0,69.9,55.635a28.89,28.89,0,0,0,4.182-3.709,37.7,37.7,0,0,0,3.672-4.63,46.329,46.329,0,0,0,3.1-5.335,52.33,52.33,0,0,0,2.46-5.824,53.69,53.69,0,0,0,1.757-6.1,49.888,49.888,0,0,0,.99-6.155l.008-.45a54,54,0,0,0-.2-6.282,23.065,23.065,0,0,0-1.347-6.022,1.256,1.256,0,0,1-.641-.628A36.127,36.127,0,0,0,79.9,8.306,28.3,28.3,0,0,0,76.156,6.86a23.439,23.439,0,0,0-6.913-1.04,25.679,25.679,0,0,0-3.692.273,34.061,34.061,0,0,0-3.569.721c-2.349.6-4.7,1.414-6.974,2.2l-.261.091c-2.192.761-4.675,1.623-7.249,2.26a32.328,32.328,0,0,1-7.83,1.027,27.754,27.754,0,0,1-7.231-.961ZM45.954,27.047a13.664,13.664,0,0,1-3-.337,15.538,15.538,0,0,1-2.946-.994.224.224,0,0,1-.1-.233c.009-.063.045-.131.118-.131h.019a15.641,15.641,0,0,0,2.3.169A16.876,16.876,0,0,0,47.8,24.6a13.592,13.592,0,0,0,4.041-2.043,18.4,18.4,0,0,1,2.966-1.686A.716.716,0,0,1,55,20.845a.991.991,0,0,1,.852.639,1.2,1.2,0,0,1-.035,1.034,7.139,7.139,0,0,1-3.341,3.039,15.519,15.519,0,0,1-4.111,1.274A13.854,13.854,0,0,1,45.954,27.047ZM83.479,24.8a8.005,8.005,0,0,1-2.6-.473A11.633,11.633,0,0,1,78.3,23.042a12.41,12.41,0,0,1-2.252-1.889,9.672,9.672,0,0,1-1.62-2.292.1.1,0,0,1,.117-.111,7.5,7.5,0,0,1,2,1.13c.129.089.231.159.285.193a10.283,10.283,0,0,0,2.976,1.521,28.008,28.008,0,0,0,3.142.786c.717.15,1.457.3,2.176.5a.956.956,0,0,1,0,1.67A5.2,5.2,0,0,1,83.479,24.8Z" transform="translate(0)"/></g></g></g></svg>