<svg xmlns="http://www.w3.org/2000/svg" xmlns:xlink="http://www.w3.org/1999/xlink" width="300" height="300" viewBox="0 0 300 300"><defs><clipPath id="b"><rect width="300" height="300"/></clipPath></defs><g id="a" clip-path="url(#b)"><circle cx="150" cy="150" r="150" fill="#fff" opacity="0"/><g transform="translate(1956.521 -570.781)"><g transform="translate(-1931.521 599.781)"><g transform="translate(0 107.884)"><path d="M240,224.622c5.96-.28,3.563-10.41,3.135-14.131-4.719-13.589-3.609-28.414-5.465-42.657-1.156-13.3-2.642-26.551-3.891-39.837-2.454-26.969-20.077-81.872-40.189-90.7-2.533-10.8-13-20.886-26.236-20.886-9.029-10.387-19.9-17.7-33.838-16.22-5.761.255-11.347,6.192-16.867,7.339-3.091.414-30.518-.652-36.012,2.519-3.827,1.91-7.282,5.438-6.157,9.931,1.8,5.443-3.784-.447-15.423,5.363C35.32,39.193,49.5,57.724,50.131,58.3,35.32,78.323,22.375,94.57,16.385,119.047c-3.882,18.172-3.445,36.932-6.7,55.2a157.974,157.974,0,0,1-4.817,18.6C2.8,200.893,1.8,220.955.661,221.134c-2.074.5,1.2,4.64,3.4,4.643,60.944,9.824,122.848.407,184.119-1.132C205.445,224.062,222.731,223.928,240,224.622Z" transform="translate(3.239)" fill="#ffdbb4"/><path d="M116.723,19.316c0,6.3,22.521,29.723,30.294,28.178q7.772-1.545,23.486-20.153V19.316l-2.263-8.736c12.816.439,22.87,10.312,25.346,20.871,19.91,8.741,37.382,62.639,40.11,89.884l.078.817c1.25,13.286,2.735,26.541,3.891,39.837,1.856,14.243.747,29.069,5.465,42.657l.028.231c.492,3.891,2.678,13.626-3.163,13.9-17.266-.694-34.552-.56-51.819.024C126.906,220.339,65,229.756,4.058,219.932c-2.2,0-5.472-4.143-3.4-4.643C1.8,215.11,2.8,195.048,4.871,187l.392-1.272A150.987,150.987,0,0,0,9.688,168.4c3.253-18.265,2.816-37.025,6.7-55.2,5.99-24.477,18.935-40.723,33.746-60.749C49.5,51.879,35.32,33.347,59.054,19.5c11.639-5.809,17.219.08,15.423-5.363C73.353,9.64,76.807,6.111,80.634,4.2c5.494-3.171,32.922-2.1,36.012-2.519A16.81,16.81,0,0,0,120.969,0l-.251.812Q116.723,13.824,116.723,19.316Z" transform="translate(3.239 5.845)" fill="#9fd8e5"/><path d="M151.083,226.743a.7.7,0,0,1-.723-.678c-.9-12.629-1.478-25.205-2.042-37.368v-.012c-.4-8.644-.655-17.512-.779-27.113l-.5,0h-.024l-.744.005c-6.664.028-13.555.057-20.33.057-5.8,0-10.96-.021-15.772-.065l0,0a.292.292,0,0,1,.05.074,16.971,16.971,0,0,1,.933,6.692,32.186,32.186,0,0,1-.948,7.28,37.483,37.483,0,0,1-2.145,6.251,46.408,46.408,0,0,1-3.142,5.875,64.744,64.744,0,0,1-8.322,10.459l-.2.206c-.214.219-.436.443-.652.66l-.01.01a15.852,15.852,0,0,0-3.334,4.2,21.665,21.665,0,0,0-1.406,4.975c-.085.427-.173.869-.264,1.294l-.052.239-1.751,7.859c-.119.533-.218,1.112-.324,1.726-.386,2.248-.824,4.8-2.424,6.212a3.287,3.287,0,0,1-2.189.88,3.445,3.445,0,0,1-3.114-2.24c-.593-1.435-.184-2.974.211-4.462v0c.067-.253.137-.515.2-.767l3.235-13.216a22.719,22.719,0,0,1,2.26-6.261,19.569,19.569,0,0,1,4.637-4.875l.019-.016a58.226,58.226,0,0,0,4.764-4.463,55.007,55.007,0,0,0,4.206-4.963,47.5,47.5,0,0,0,6.34-11.255,39.685,39.685,0,0,0,1.849-6.18,29.26,29.26,0,0,0,.407-2.912,26.994,26.994,0,0,1,.451-3.109.389.389,0,0,1,.284-.271.165.165,0,0,1,.018-.147.158.158,0,0,1,.125-.068l9.843-.615c8.4-.527,17.4-1.1,26.24-1.754l1.545-.108c-.11-11-.042-22.84.206-36.189.077-4.152.127-8.375.175-12.458v-.017c.08-6.791.162-13.813.373-20.717.174-5.657.552-11.248.935-16.447.323-4.385.807-8.817,1.275-13.1.13-1.189.264-2.418.394-3.643a.217.217,0,0,1,.434,0l.43,4.036c.476,4.483,1.016,9.693,1.393,14.8.457,6.2.762,12.436.907,18.541.531,22.39.618,45.132.657,64.691,2.923-.2,5.953-.393,9-.585,1.806-.113,3.748-.231,6.112-.371l5.2-.306,2.139-.128c.2-.012.409-.03.61-.047h0c.386-.033.786-.066,1.172-.066a2.776,2.776,0,0,1,2.313.917,1.436,1.436,0,0,1,.23,1.736c-.813,1.274-2.021,1.316-3.421,1.365h-.017l-.28.01c-1.418.056-2.858.111-4.278.164-2.7.1-5.909.219-9.168.307-3.227.088-6.464.159-9.621.212-.032,9.088-.415,18.094-.839,27.288l-.19,4.092c-.573,12.358-1.106,22.732-1.848,33.193A.705.705,0,0,1,151.083,226.743ZM58.816,225.56a1.93,1.93,0,0,1-1.705-.934l.216.138a.351.351,0,0,0,.066.036c0-.01-.219-.175-.7-.519l-.519-.652a4.016,4.016,0,0,1-.715-1.747,9.87,9.87,0,0,1,.042-2.346c.026-.269.053-.545.07-.81l1.191-17.865c.342-5.13.71-10.319,1.066-15.337.611-8.626,1.243-17.545,1.759-26.33.337-5.756.657-12.568.466-19.446-.109-3.909-.251-6.907-.462-9.722-.267-3.556-.641-6.717-1.144-9.664a.594.594,0,0,1,.136-.5.6.6,0,0,1,.447-.208.56.56,0,0,1,.474.274,41.49,41.49,0,0,1,2.752,4.918,43.61,43.61,0,0,1,2.032,5.125,54.567,54.567,0,0,1,2.28,10.863,86.385,86.385,0,0,1,.5,10c-.009,3.609-.189,7.244-.345,10.009-.4,7.037-.859,14.074-1.337,21.266l-.724,10.867-1.818,27.243a8.125,8.125,0,0,1-.557,2.7,3.766,3.766,0,0,1-1.755,1.922,4.134,4.134,0,0,1-.712.474A2.186,2.186,0,0,1,58.816,225.56ZM4.71,225.118a2.994,2.994,0,0,1-1.826-.619,3.332,3.332,0,0,1-1.127-1.578,31.272,31.272,0,0,1-1.465-6.894A59.518,59.518,0,0,1,0,208.968a79.375,79.375,0,0,1,1.538-14.025c1.171-6.23,2.8-12.474,4.384-18.512v0l0-.01c.729-2.786,1.482-5.666,2.18-8.507.968-3.943,1.792-7.957,2.447-11.931s1.163-8.026,1.514-12.076c.18-2.074.345-4.184.5-6.225v-.017c.488-6.25.994-12.714,2-19.02a83.973,83.973,0,0,1,2.86-12.12,81.635,81.635,0,0,1,4.676-11.573,148.435,148.435,0,0,1,12.1-19.578c2.784-3.917,5.652-7.648,8.524-11.091,3.063-3.672,6.242-7.149,9.447-10.333a3.741,3.741,0,0,1-1.769-.553,5.254,5.254,0,0,1-1.935-2.163,8.674,8.674,0,0,1-.831-2.778,36.994,36.994,0,0,1-.29-6.614A30.759,30.759,0,0,1,48.361,35.3a24.113,24.113,0,0,1,4.912-9.368,21.4,21.4,0,0,1,3.937-3.583,20.062,20.062,0,0,1,4.824-2.492,18.033,18.033,0,0,1,5.619-.915c.168,0,.346-.006.546-.006.295,0,.591,0,.877.008h0c.29,0,.59.008.891.008a10.723,10.723,0,0,0,3.217-.383,5.787,5.787,0,0,0,3-2.432,21.005,21.005,0,0,0,1.8-3.561c.072-.168.14-.327.209-.487l.048-.111a22.135,22.135,0,0,1,2.336-4.245,13.449,13.449,0,0,1,3.506-3.38C87.353,2.194,91.476,1.307,94.7.775l.233-.038A55.373,55.373,0,0,1,103.717,0a35.238,35.238,0,0,1,16.206,3.544.065.065,0,0,1,.033.077.069.069,0,0,1-.066.054h0l-2.449-.095c-2.957-.113-5.437-.187-7.931-.187-2.814,0-5.3.1-7.612.307a54.659,54.659,0,0,0-7.56,1.181l-.78.183a34.151,34.151,0,0,0-4.111,1.188,13.352,13.352,0,0,0-3.706,2.021A10.157,10.157,0,0,0,83.3,11.235a31.864,31.864,0,0,0-1.638,3.485l-.1.226-.135.316a18.6,18.6,0,0,1-1.824,3.372,9.6,9.6,0,0,1-6.523,4.153,30.926,30.926,0,0,1-4.064.382h0c-.619.031-1.26.063-1.883.111a14.053,14.053,0,0,0-4.179.99,15.5,15.5,0,0,0-3.652,2.11,17.458,17.458,0,0,0-3,2.972,18.4,18.4,0,0,0-2.221,3.576A25.145,25.145,0,0,0,51.9,42.771a30.214,30.214,0,0,0,.162,5.17,7.966,7.966,0,0,0,.446,1.434c.156.386.448,1.033.656,1.033h.013a1.886,1.886,0,0,1,.251-.017,1.576,1.576,0,0,1,1.486.914c1.975-1.854,3.98-3.624,5.959-5.263A114.64,114.64,0,0,1,77.264,34.7a108.117,108.117,0,0,1,13.9-6.878h-.055a2.351,2.351,0,0,0-1.07.251.169.169,0,0,1-.077.019.164.164,0,0,1-.148-.1.145.145,0,0,1,.033-.164,5.127,5.127,0,0,1,1.739-1.19,5.021,5.021,0,0,1,1.892-.354,7.051,7.051,0,0,1,1.545.183c.422-.13.807-.245,1.177-.35a.192.192,0,0,1,.052-.008.16.16,0,0,1,.153.118.17.17,0,0,1-.072.2l-.451.28a24.7,24.7,0,0,1,5.5,2.925l.029.019A100.978,100.978,0,0,1,112.7,38.62l.016.014,1.091.955.726.631a84.825,84.825,0,0,0,11.1,8.452,39.652,39.652,0,0,0,6.583,3.343c.448.171.955.327,1.491.492,1.83.562,3.9,1.2,4.619,2.766a1.8,1.8,0,0,1,.445,1.445,2.1,2.1,0,0,1-.929,1.415,3.232,3.232,0,0,1-2.471.92,13.027,13.027,0,0,1-4.332-1.029,46.554,46.554,0,0,1-6.743-3.147,71.25,71.25,0,0,1-11.628-8.506c-2.49-2.187-4.926-4.5-7.282-6.743-1.192-1.134-2.425-2.305-3.655-3.451-.765-.713-1.535-1.446-2.279-2.155-.792-.755-1.611-1.535-2.429-2.295l-.8-.732c-.121-.11-.249-.229-.385-.355a15.83,15.83,0,0,0-2.805-2.224c-.89.516-1.8,1.03-2.672,1.527-1.417.8-2.881,1.634-4.3,2.485-2.874,1.724-5.944,3.726-9.386,6.119A142.751,142.751,0,0,0,60,52.17c-2.329,2.209-4.644,4.566-6.882,7-2.159,2.352-4.308,4.849-6.389,7.422A187.876,187.876,0,0,0,35.283,82.44l-.538.832c-2.361,3.665-4.193,6.7-5.765,9.56a84.9,84.9,0,0,0-4.77,10.052,72.763,72.763,0,0,0-3.42,11.656,109.988,109.988,0,0,0-1.78,12.007c-.358,3.681-.611,7.43-.856,11.057-.288,4.269-.586,8.682-1.057,13.009-.417,3.835-1.042,7.825-1.911,12.2-.71,3.573-1.581,7.4-2.742,12.05l-.477,1.9-.286,1.133-.018.07v0a173.291,173.291,0,0,0-4.3,20.491,82.814,82.814,0,0,0-.728,11.855,81.192,81.192,0,0,0,.939,9.658l0,.018c.1.7.2,1.418.289,2.129a2.357,2.357,0,0,1-.76,1.974,3.576,3.576,0,0,1-1.934.993A3.184,3.184,0,0,1,4.71,225.118ZM247.349,221.1a3.577,3.577,0,0,1-2.294-.795,3.183,3.183,0,0,1-1.122-2.379,158.721,158.721,0,0,0-1.745-16.828c-.846-5.566-1.909-11.2-2.937-16.64v0c-.825-4.369-1.677-8.886-2.416-13.356-.894-5.414-1.6-11.369-2.17-18.2-.5-6.094-.85-12.31-1.184-18.321v0c-.427-7.683-.869-15.628-1.646-23.4-.418-4.181-.9-7.98-1.466-11.614-.637-4.078-1.369-7.844-2.237-11.514a118.859,118.859,0,0,0-4.865-15.718,104.342,104.342,0,0,0-7.161-14.858c-1.445-2.466-2.944-4.789-4.456-6.9a70.187,70.187,0,0,0-5.16-6.42,87.622,87.622,0,0,0-10.208-9.8,2.241,2.241,0,0,1-1.581.6,2.952,2.952,0,0,1-1.553-.452,2.536,2.536,0,0,1-1.05-1.268,8.263,8.263,0,0,1-.371-2.149,11.692,11.692,0,0,0-.2-1.579,18.13,18.13,0,0,0-1.07-3.3,21.647,21.647,0,0,0-3.868-5.856,24.052,24.052,0,0,0-2.74-2.545,25.939,25.939,0,0,0-3.1-2.11,20.232,20.232,0,0,0-4.293-1.7c-.869-.268-1.769-.545-2.643-.9a.092.092,0,0,1-.062-.086.083.083,0,0,1,.062-.076,7.779,7.779,0,0,1,2.48-.369,20.322,20.322,0,0,1,5.6,1.028,19.12,19.12,0,0,1,3.914,1.7,24.167,24.167,0,0,1,3.489,2.43,22.112,22.112,0,0,1,3.1,3.153,21.48,21.48,0,0,1,2.39,3.692l.127.252a24.248,24.248,0,0,1,1.678,4.117,8.716,8.716,0,0,1,.308,4.3c-.018.076-.038.15-.06.219a57.946,57.946,0,0,1,7.134,4.036,48.783,48.783,0,0,1,6.405,5.082,69.206,69.206,0,0,1,6.451,7.012,77.764,77.764,0,0,1,5.463,7.767,86.194,86.194,0,0,1,4.469,8.227c1.294,2.72,2.493,5.6,3.566,8.565,1.016,2.807,1.952,5.781,2.782,8.837.778,2.867,1.49,5.91,2.116,9.044,1.109,5.551,2,11.585,2.711,18.446.663,6.364,1.1,12.645,1.474,18.485l.39,6.2c.472,7.451.919,13.709,1.561,20.032.75,7.378,1.685,13.885,2.859,19.893l.188.953c.578,2.9,1.219,5.846,1.839,8.7v0c1.172,5.4,2.385,10.979,3.242,16.51.462,2.979.786,5.7.991,8.322a78.181,78.181,0,0,1,.229,8.374,3.135,3.135,0,0,1-1.078,2.382A3.5,3.5,0,0,1,247.349,221.1Zm-38.106-2.487a2.542,2.542,0,0,1-1.883-.8c-1.741-1.824-1.864-4.777-1.973-7.383v0c-.031-.736-.06-1.432-.123-2.083-.238-2.469-.512-4.968-.813-7.428l-.155-1.236c-.058-.455-.115-.92-.17-1.37a64,64,0,0,0-1.14-7.076,11.827,11.827,0,0,0-3.521-6.035c-.53-.512-1.074-1.022-1.6-1.515l-.006-.006c-1.295-1.213-2.633-2.467-3.839-3.826a53.19,53.19,0,0,1-4.886-6.475,43.163,43.163,0,0,1-3.173-6.166l-.152-.352c-.158-.367-.333-.75-.518-1.155-.854-1.87-1.822-3.988-1.765-5.851a.13.13,0,0,1,.132-.124.133.133,0,0,1,.09.035,8.761,8.761,0,0,1,1.532,2.045c.168.276.341.562.521.83.753,1.124,1.542,2.222,2.346,3.263,1.657,2.146,3.533,4.2,5.314,6.094a74.991,74.991,0,0,0,5.436,5.224c.715.623,1.473,1.231,2.205,1.82a39.272,39.272,0,0,1,4.014,3.539c3.638,3.858,4.423,9.048,5.183,14.067l0,.012c.052.34.1.692.158,1.036l.09.576c.484,3.055.94,6.249,1.354,9.494v0c.182,1.424.388,3.039.553,4.628l.049.49a10.944,10.944,0,0,1,.033,2.257,4.612,4.612,0,0,1-.746,2.114,3.136,3.136,0,0,1-2.546,1.353Zm18.868-1.065a3.356,3.356,0,0,1-2.7-1.5c-1.017-1.417-1.1-3.661-1.165-5.641-.025-.706-.048-1.374-.111-1.971-.29-2.738-.546-4.957-.8-6.985-.587-4.6-1.373-9.235-2.135-13.559-.9-5.082-2.029-10.215-3.124-15.179-.926-4.194-1.883-8.531-2.693-12.817a159.44,159.44,0,0,1-3.155-29.02c-.037-6.7.455-13.493.931-20.067v0c.224-3.092.455-6.289.629-9.439.506-9.181,1.109-18.971,1.845-29.93a.229.229,0,0,1,.237-.217.215.215,0,0,1,.225.217c.052,2.3.1,4.629.161,7.408.1,4.546.159,9.172.219,13.645v0c.1,7.552.206,15.361.482,23.037.309,8.608.8,16.128,1.516,22.99.457,4.409,1.11,8.967,2,13.935.742,4.156,1.665,8.671,2.82,13.8.514,2.284,1.047,4.595,1.563,6.83l0,.022c.546,2.366,1.11,4.812,1.65,7.221.189.845.385,1.706.574,2.538l.022.1c.829,3.65,1.687,7.424,2.345,11.157a134.1,134.1,0,0,1,1.838,13.71l.04.6c.026.422.071.879.118,1.362a24.127,24.127,0,0,1,.169,3.229,5.7,5.7,0,0,1-.749,2.885A3.287,3.287,0,0,1,228.111,217.548ZM150.07,51.662a8.614,8.614,0,0,1-3.659-.865,20.087,20.087,0,0,1-3.268-2.008l-.238-.175c-2.42-1.78-4.591-3.48-6.636-5.2A102.988,102.988,0,0,1,124.01,31.457a83.216,83.216,0,0,1-5.208-6.679,43.645,43.645,0,0,1-4.172-7.322.339.339,0,0,1,.029-.328.307.307,0,0,1,.251-.14.323.323,0,0,1,.219.094c1.158,1.071,2.246,2.184,3.158,3.132.012-.651-.033-1.315-.076-1.958a16.343,16.343,0,0,1-.028-2.8c.061-.577.1-1.184.136-1.771a18.267,18.267,0,0,1,.577-4.145,3.636,3.636,0,0,1,3.462-2.54,3.575,3.575,0,0,1,.922.121,3.8,3.8,0,0,1,2.285,1.884,2.854,2.854,0,0,1,.2,2.376,20.319,20.319,0,0,1-2.21,3.884v0c-.3.453-.618.921-.912,1.389a18.781,18.781,0,0,1-1.8,2.3,19.781,19.781,0,0,0-1.7,2.147l1.13,1.184c.5.523,1.1,1.141,1.707,1.756l1.972,1.985c1.464,1.47,3.043,3.041,4.67,4.566,2.792,2.617,4.986,4.6,7.116,6.419,2.64,2.26,5.105,4.205,7.536,5.947,1.082.775,2.345,1.672,3.626,2.5l.46.3a5.017,5.017,0,0,0,2.581.987c.078,0,.156,0,.233-.01,2.119-.189,4.077-2.094,5.649-3.625.276-.269.537-.522.79-.759l.089-.083A94.05,94.05,0,0,0,168.28,29.473c.733-.985,1.457-2,2.215-3.114-1.339-1.52-1.337-4.221-1.336-6.391v0c0-.515,0-1-.017-1.437-.06-1.505-.069-3.035-.077-4.515l0-.3,0-.324,0-.116a3.923,3.923,0,0,1,.628-2.773.121.121,0,0,1,.1-.04.179.179,0,0,1,.078.018,3.446,3.446,0,0,1,1.553,1.987l.014.031.082.185.042.094c.383.847.76,1.715,1.124,2.553v0l.013.029.305.7c.434,1,.842,2.018,1.237,3.007l.187.469c.194.484.4,1.017.625,1.629.118.334.243.675.381,1.041l.031.027a3.152,3.152,0,0,1,.445.448,2.187,2.187,0,0,1,1.149,1.417c.41,1.431-.379,2.609-1.142,3.749l-.113.169a94.672,94.672,0,0,1-10.99,13.644c-2.008,2.057-4.158,4.059-6.389,5.95l-.389.327a23.164,23.164,0,0,1-3.165,2.3,10.2,10.2,0,0,1-3.668,1.34A7.807,7.807,0,0,1,150.07,51.662Z" transform="translate(0 3.853)"/></g><g transform="translate(82.617)"><path d="M106.8,45.018A59.18,59.18,0,0,0,88.181,14.344C58.845-13.9,4.973,1.431,5.217,43.992A55.077,55.077,0,0,0,4.086,59.144c.144,2.163,1.105,5.182-.186,7.128C.986,69.914-.707,72.6.285,77.444c.828,4.23,3.784,7.227,7.774,8.82,2.393.669,4.663,2.125,5.549,4.345,5.326,9.5,9.271,17.393,17.667,23.864,2.166,1.666,24.386,11.658,31.708,11.658,21.434,0,48.448-7.561,48.9-30.876.078-5.121-.845-10.3-1.424-15.382C109.046,68.278,109.543,56.264,106.8,45.018Z" transform="translate(3.077 2.697)" fill="#ffdbb4"/><path d="M73.589,131.312a25.657,25.657,0,0,1-7.42-1.006,18.6,18.6,0,0,1-3.424-1.414,16.809,16.809,0,0,1-3.111-2.159,2.526,2.526,0,0,1-.853-1.464,2.9,2.9,0,0,1,.179-1.585,3.679,3.679,0,0,1,1.147-1.531,2.832,2.832,0,0,1,1.736-.637,2.533,2.533,0,0,1,1.515.518,16.035,16.035,0,0,0,2.546,1.52,16.655,16.655,0,0,0,2.683,1,20.739,20.739,0,0,0,5.644.72,34.269,34.269,0,0,0,5.75-.531c1.66-.281,3.455-.676,5.652-1.241l.224-.058a60.051,60.051,0,0,0,9.585-3.285,41.512,41.512,0,0,0,4.483-2.338,33.33,33.33,0,0,0,4.1-2.912,23.906,23.906,0,0,0,6.431-8.369,27.159,27.159,0,0,0,2.4-10.232,81.65,81.65,0,0,0-.627-12.177l-.047-.449c-.182-1.746-.37-3.517-.552-5.229-.3-2.833-.612-5.761-.9-8.646-.514-5.089-.818-9.006-.988-12.7l-.091-2.138c-.024-.548-.05-1.115-.073-1.615-.17-3.737-.347-7.6-.18-11.356a.132.132,0,0,1,.135-.124.121.121,0,0,1,.12.09c.536,1.851.922,3.758,1.3,5.6.182.9.371,1.832.576,2.749.72,3.232,1.226,5.733,1.638,8.109.774,4.46,1.517,9.359,2.337,15.42l.173,1.288c.2,1.5.427,3.039.645,4.527,1.12,7.619,2.278,15.5.818,23.107a26.461,26.461,0,0,1-4.617,10.52,35.771,35.771,0,0,1-8.336,8.133,49.17,49.17,0,0,1-9.97,5.405,65.7,65.7,0,0,1-10.9,3.331c-1.667.36-3.279.639-4.791.829A39.75,39.75,0,0,1,73.589,131.312ZM33.8,117.444a1.606,1.606,0,0,1-.611-.123,7.834,7.834,0,0,1-2.514-1.775,27.678,27.678,0,0,1-2.085-2.428l0-.006c-.26-.327-.505-.636-.753-.936l-.1-.119a50.189,50.189,0,0,1-4.288-6.01l-.424-.693a65.468,65.468,0,0,1-6.13-11.974,2.268,2.268,0,0,1-.312.264,4.3,4.3,0,0,1-2.5.713,8.93,8.93,0,0,1-2.556-.431,19.432,19.432,0,0,1-2.34-.9A15.634,15.634,0,0,1,3.875,89.1a16.536,16.536,0,0,1-2.024-2.871A15.055,15.055,0,0,1,.537,83.059,13.993,13.993,0,0,1,.007,79.69a13.767,13.767,0,0,1,.331-3.471A14.979,14.979,0,0,1,2.977,70.6a14.812,14.812,0,0,1,4.731-4.154c-1.746-1.957-2.43-4.625-2.868-6.976a41.422,41.422,0,0,1-.554-9.729,49.013,49.013,0,0,1,1.468-9.585A57.109,57.109,0,0,1,8.96,30.985a50.892,50.892,0,0,1,4.2-7.593,51.394,51.394,0,0,1,19.413-17.2,57.134,57.134,0,0,1,12.66-4.625,58.019,58.019,0,0,1,22.112-.9A49.929,49.929,0,0,1,75.7,2.694,51.82,51.82,0,0,1,83.537,6.08a53.36,53.36,0,0,1,13.5,10.273,54.869,54.869,0,0,1,5.308,6.464,41.1,41.1,0,0,1,4.068,7.258,38.845,38.845,0,0,1,1.419,3.855,31.066,31.066,0,0,1,.948,3.989,31.993,31.993,0,0,1,.5,4.231,11.319,11.319,0,0,1-.153,1.9A11.314,11.314,0,0,0,108.978,46a.16.16,0,0,1-.046.121.2.2,0,0,1-.145.057.173.173,0,0,1-.177-.13,10.332,10.332,0,0,0-1.037-2.39,15.441,15.441,0,0,1-.787-1.6c-.437-1.094-.94-2.167-1.377-3.087l-.415-.873c-1.166-2.454-2.572-4.843-3.931-7.155l-.141-.24A52.757,52.757,0,0,0,90.054,17.631,48.489,48.489,0,0,0,77.3,9.661a47.512,47.512,0,0,0-7.178-2.4,45.519,45.519,0,0,0-7.5-1.208c-1.289-.1-2.6-.146-3.895-.146A51.926,51.926,0,0,0,45.076,7.727,49.966,49.966,0,0,0,32.437,13.11,45.8,45.8,0,0,0,13.125,36.619a50.772,50.772,0,0,0-2.992,15.158,67.582,67.582,0,0,0,.181,7.88l.094,1.247a19.543,19.543,0,0,1-.044,4.446,12.288,12.288,0,0,1,3.562-.556,10.386,10.386,0,0,1,1.463.1,6.165,6.165,0,0,1,5.185,3.579.126.126,0,0,1,0,.128.131.131,0,0,1-.11.06.145.145,0,0,1-.064-.015,5.007,5.007,0,0,0-2.169-.4,14.088,14.088,0,0,0-3.249.441,13.781,13.781,0,0,0-4.467,1.989,12.614,12.614,0,0,0-3.3,3.18,9.992,9.992,0,0,0-1.75,4.172,8.013,8.013,0,0,0-.05,2.181,8.947,8.947,0,0,0,.508,2.11,10.456,10.456,0,0,0,2.363,3.672,12.688,12.688,0,0,0,1.744,1.48,10.331,10.331,0,0,0,2.014,1.108,14.085,14.085,0,0,0,1.9.58,7.9,7.9,0,0,1,3.066,1.266,1.553,1.553,0,0,1,.632,1.344,2.464,2.464,0,0,1-.557,1.4c1.627,1.738,3.188,3.589,4.7,5.379l0,0c1.481,1.757,3.013,3.574,4.609,5.285,1.355,1.453,2.925,3.146,4.409,4.859l.535.622c.4.467.854.935,1.336,1.43a11.447,11.447,0,0,1,3.021,4.139,2.106,2.106,0,0,1-1.889,2.558ZM20.163,84.923a1.94,1.94,0,0,1-1.08-.313,2.123,2.123,0,0,1-.791-1.039l-.033-.09a7.509,7.509,0,0,0-1.526-2.471,2.07,2.07,0,0,1-.8.73.872.872,0,0,1-.375.082.672.672,0,0,1-.706-.51,2.263,2.263,0,0,1,.33-1.649l.044-.062a13.361,13.361,0,0,0-2.5-1.544,10.267,10.267,0,0,0-2.583-.846.155.155,0,0,1-.124-.161.158.158,0,0,1,.124-.165,15.9,15.9,0,0,1,2.874-.3,9,9,0,0,1,3.606.713,11.493,11.493,0,0,1,3.063,1.943,19.34,19.34,0,0,1,2.456,2.644,1.568,1.568,0,0,1,.225,1.752A2.558,2.558,0,0,1,20.163,84.923Z" transform="translate(0)"/></g><g transform="translate(117.802 36.261)"><path d="M33.316,57.482a12.044,12.044,0,0,1-4.455-.864,12.681,12.681,0,0,1-2.908-1.623,12.212,12.212,0,0,1-2.367-2.32,2.327,2.327,0,0,1-.493-1.84,2.729,2.729,0,0,1,2.62-2.189,2.325,2.325,0,0,1,.348.026,2.411,2.411,0,0,1,1.61,1.035l.1.128a8.259,8.259,0,0,0,3.046,2.483,7.08,7.08,0,0,0,3.02.685,6.885,6.885,0,0,0,.748-.041,8.016,8.016,0,0,0,3.325-1.136,15.483,15.483,0,0,0,2.817-2.285c.2-.2.415-.417.692-.7a1.092,1.092,0,0,1,.575-.43,1.209,1.209,0,0,1,.374-.058,1.3,1.3,0,0,1,.419.069,1.253,1.253,0,0,1,.623.459,1.105,1.105,0,0,1,.2.743,6.683,6.683,0,0,1-.833,2.643,8.86,8.86,0,0,1-1.78,2.222A11.747,11.747,0,0,1,35.3,57.307,11.334,11.334,0,0,1,33.316,57.482Zm3.135-17.256h0a11.039,11.039,0,0,1-3.839-.752A19.548,19.548,0,0,1,28.1,36.984a1.68,1.68,0,0,1-.63-.974,1.963,1.963,0,0,1,.089-1.093,2.487,2.487,0,0,1,.76-1.068A1.881,1.881,0,0,1,29.5,33.4a1.716,1.716,0,0,1,.916.273l.305.229,0,0a24.467,24.467,0,0,0,2.826,1.91,7.106,7.106,0,0,0,3.387,1.05,3.75,3.75,0,0,0,1.431-.273,4,4,0,0,0,1.333-.918,3.886,3.886,0,0,0,.776-3.2,6,6,0,0,0-1.65-2.836,11.971,11.971,0,0,0-2.5-1.959.739.739,0,0,1-.21-.865,1.129,1.129,0,0,1,.385-.538,1.2,1.2,0,0,1,.737-.237,1.615,1.615,0,0,1,.265.023A8.531,8.531,0,0,1,40.455,27.1a6.612,6.612,0,0,1,1.981,1.775,6.9,6.9,0,0,1,1.265,4.71,7.585,7.585,0,0,1-.648,2.472,7.2,7.2,0,0,1-1.46,2.124A7.081,7.081,0,0,1,36.451,40.225ZM11.472,23.374a2.559,2.559,0,0,1-1.634-.622,2.451,2.451,0,0,1-.857-1.6,17.507,17.507,0,0,1,.1-4.69c.058-.456.118-.927.16-1.435a2.788,2.788,0,0,1,1.095-2.007,3.435,3.435,0,0,1,2.075-.709,2.608,2.608,0,0,1,1.569.48,2.246,2.246,0,0,1,.867,1.5,12.274,12.274,0,0,1-1.352,7.755,2.511,2.511,0,0,1-.9,1.015A2.128,2.128,0,0,1,11.472,23.374Zm36.666-1.064a2.232,2.232,0,0,1-1.726-.719,6.518,6.518,0,0,1-1.054-1.738,7.4,7.4,0,0,1-.537-2.094,4.362,4.362,0,0,1,1.246-3.81,2.508,2.508,0,0,1,.2-.3,2.837,2.837,0,0,1,2.171-1.214,2.415,2.415,0,0,1,.659.094,3.148,3.148,0,0,1,2.121,1.8,6.19,6.19,0,0,1,.262,3.479,11.412,11.412,0,0,1-1.085,3.281,2.162,2.162,0,0,1-.938.9A2.909,2.909,0,0,1,48.139,22.311ZM.406,11.136a.4.4,0,0,1-.334-.2.424.424,0,0,1-.027-.426,14.854,14.854,0,0,1,3.411-4.2,21.124,21.124,0,0,1,4.565-3.03,20.016,20.016,0,0,1,5.421-1.838l.579-.1A14.5,14.5,0,0,1,16.387,1.1a3.713,3.713,0,0,1,2.919,1.058,2.367,2.367,0,0,1,.586,1.712,1.554,1.554,0,0,1-.586,1.119,4.59,4.59,0,0,1-3.083.879c-.243,0-.494-.006-.737-.012h-.009c-.234-.006-.5-.012-.761-.012-.242,0-.458.005-.66.017a21.4,21.4,0,0,0-4.588.76A31.514,31.514,0,0,0,.619,11.068.388.388,0,0,1,.406,11.136ZM56.234,8.866h0c-.083-.019-.165-.039-.244-.059a14.051,14.051,0,0,1-2.677-1.015l-.869-.416a24.525,24.525,0,0,0-3.1-1.285,37.548,37.548,0,0,0-7.072-1.518,2.939,2.939,0,0,1-1.419-.523,2.063,2.063,0,0,1-.793-1.174,2.051,2.051,0,0,1,.245-1.76A2.29,2.29,0,0,1,41.42.177,2.583,2.583,0,0,1,42.374,0a2.891,2.891,0,0,1,.551.054l.443.088a32.3,32.3,0,0,1,7.638,2.411A15.489,15.489,0,0,1,54.365,4.7a9.567,9.567,0,0,1,2.375,2.982c.083.623.006.777-.08.882l-.025.03-.022.029a.614.614,0,0,1-.379.245Z" transform="translate(16.344 15.583)" stroke="rgba(0,0,0,0)" stroke-width="1"/></g></g><g transform="translate(-1830.806 665.71)"><path d="M99.729,16.657C99.2,9.027,90.785,5.794,86.592,4.836c-13.96-3.751-25.837,5.873-42.484,6.07a40.152,40.152,0,0,1-8.719-.968C24.053,6.993,12.729,3.862,1.606,0-.029.438-.513,2.878.609,4.268c10.653,4.318,26.952,8.185,35.559,8.626C36,25.6,30.134,38.381,22.028,45.41,34.919,61.7,64.985,67.063,82.679,58.51c8.7-2.986,17.889-29.713,17.05-41.853" transform="translate(0.963 1.029)" fill="#fff"/><path d="M68.39,67.912h0l-4.408-.365c-7.474-.629-15.374-1.452-22.586-3.94a43.383,43.383,0,0,1-5.261-2.2,36.21,36.21,0,0,1-4.915-2.961,33.343,33.343,0,0,1-4.472-3.861,34.53,34.53,0,0,1-3.933-4.9l-.075.074a2.849,2.849,0,0,1-1.067-2.153A3.426,3.426,0,0,1,22.6,45.02l.036.066c.018-.032.037-.064.055-.1l.019-.032L22.7,44.9a20.94,20.94,0,0,1,1.5-1.575l0,.01a37.57,37.57,0,0,0,4.95-5.809,41.158,41.158,0,0,0,3.821-6.841,42.13,42.13,0,0,0,2.509-7.576A40.672,40.672,0,0,0,36.495,15.1a1.582,1.582,0,0,1-.431.042c-2.277,0-11.246-1.871-19.584-4.086C11.889,9.836,7.974,8.643,5.159,7.606,1.823,6.378.089,5.4,0,4.694c-.038-.309.251-.566.859-.763A158.18,158.18,0,0,0,16.52,9.163a.2.2,0,0,1,.109-.032.166.166,0,0,1,.156.1A136.847,136.847,0,0,0,36.5,12.943c-.007-.343-.018-.708-.035-1.086-5.324-1.185-11.051-2.732-17.51-4.729C13.156,5.333,7.469,3.4,1.669,1.413c-.143-.006-.23-.158-.226-.394A.991.991,0,0,1,2.344,0a1,1,0,0,1,.2.022C6.32,1.03,10.287,2.268,14.487,3.579c5.572,1.739,11.333,3.536,17.021,4.905,3.075.74,5.832,1.285,8.428,1.666A55.315,55.315,0,0,0,48,10.788h.157a34.188,34.188,0,0,0,7.524-1.221c2.465-.656,4.938-1.512,7.329-2.341,2.525-.875,5.136-1.779,7.742-2.449a32.426,32.426,0,0,1,7.97-1.13c2.069.045,3.9.167,5.613.373a35.134,35.134,0,0,1,5.78,1.158,22.3,22.3,0,0,1,5.379,2.354A16.286,16.286,0,0,1,99.9,11.491a48.859,48.859,0,0,1,.8,20.988,55.789,55.789,0,0,1-2.8,10.342,50.944,50.944,0,0,1-4.653,9.364,42.121,42.121,0,0,1-4.906,6.332,33.672,33.672,0,0,1-5.85,4.955,27.367,27.367,0,0,1-6.689,3.243A24.858,24.858,0,0,1,68.39,67.912ZM37.516,12.068a31.078,31.078,0,0,1,.342,9.431,38.373,38.373,0,0,1-2.245,9.208,43.982,43.982,0,0,1-4.24,8.4,42.032,42.032,0,0,1-5.643,7,87.662,87.662,0,0,0,7.934,7.119,35.241,35.241,0,0,0,7.016,4.32c4.7,2.145,9.86,3.074,17.734,4.038l2.041.278a81.726,81.726,0,0,0,9.243.863,23.81,23.81,0,0,0,11.143-4,32.65,32.65,0,0,0,4.837-3.915,40.623,40.623,0,0,0,4.247-4.887,48.065,48.065,0,0,0,3.584-5.631A53.034,53.034,0,0,0,98.386,31.7a48.426,48.426,0,0,0,1.145-6.5l.01-.475a52.031,52.031,0,0,0-.229-6.63,22.561,22.561,0,0,0-1.558-6.356,1.4,1.4,0,0,1-.741-.663,43.134,43.134,0,0,0-4.6-2.316A34.694,34.694,0,0,0,88.08,7.24a29.514,29.514,0,0,0-8-1.1,32.494,32.494,0,0,0-4.27.288c-1.316.173-2.667.422-4.128.761-2.717.631-5.436,1.492-8.066,2.325l-.3.1c-2.535.8-5.407,1.713-8.384,2.385a40.777,40.777,0,0,1-9.056,1.084,35,35,0,0,1-8.363-1.014ZM53.149,28.547a17.255,17.255,0,0,1-3.468-.355,19.184,19.184,0,0,1-3.408-1.049.228.228,0,0,1-.114-.246.144.144,0,0,1,.137-.138l.022,0a19.792,19.792,0,0,0,2.658.178,21.216,21.216,0,0,0,6.31-.973,16.342,16.342,0,0,0,4.674-2.156,21.9,21.9,0,0,1,3.43-1.779A.9.9,0,0,1,63.615,22a1.141,1.141,0,0,1,.985.674,1.169,1.169,0,0,1-.041,1.092,8.02,8.02,0,0,1-3.864,3.208A19.216,19.216,0,0,1,55.94,28.32,17.517,17.517,0,0,1,53.149,28.547Zm43.4-2.374a10.056,10.056,0,0,1-3.007-.5A14.013,14.013,0,0,1,90.56,24.32a14.124,14.124,0,0,1-2.6-1.994,10.265,10.265,0,0,1-1.873-2.419.113.113,0,0,1,.023-.078.141.141,0,0,1,.112-.039,8.938,8.938,0,0,1,2.312,1.192c.149.094.267.168.329.2A12.348,12.348,0,0,0,92.3,22.791a34.969,34.969,0,0,0,3.633.829c.829.158,1.685.322,2.517.525a.968.968,0,0,1,0,1.762A6.54,6.54,0,0,1,96.549,26.173Z" transform="translate(0)"/></g></g><path d="M13.442.347l.579-.1c1.791-.3,4.018-.59,5.285.809a1.992,1.992,0,0,1,0,2.831c-1.589,1.25-3.345.765-5.249.871a21.44,21.44,0,0,0-4.588.76A31.521,31.521,0,0,0,.619,9.968c-.372.242-.751-.22-.574-.557A18.084,18.084,0,0,1,8.021,2.185,20.115,20.115,0,0,1,13.442.347Z" transform="translate(159.146 79.86)" fill="#e4e4e4"/><path d="M2.963.054l.443.088c4.822.98,11.087,2.936,13.371,7.539.087.651,0,.79-.08.881l-.025.03a.622.622,0,0,1-.4.274l-.244-.059a14.09,14.09,0,0,1-2.677-1.015l-.869-.416a24.335,24.335,0,0,0-3.1-1.286A37.476,37.476,0,0,0,2.306,4.573,2.953,2.953,0,0,1,.887,4.05,2.068,2.068,0,0,1,.094,2.875a2.055,2.055,0,0,1,.245-1.76A2.278,2.278,0,0,1,1.458.177,2.7,2.7,0,0,1,2.963.054Z" transform="translate(199.108 78.759)" fill="#e4e4e4"/></g></svg>