<svg xmlns="http://www.w3.org/2000/svg" xmlns:xlink="http://www.w3.org/1999/xlink" width="300" height="300" viewBox="0 0 300 300"><defs><clipPath id="b"><rect width="300" height="300"/></clipPath></defs><g id="a" clip-path="url(#b)"><rect width="300" height="300" fill="#fce21e"/><circle cx="150" cy="150" r="150" fill="#fff" opacity="0"/><g transform="translate(-23.5 -22.311)"><g transform="translate(41.926 182.155)"><path d="M205.23,206.332h0c-1.425,0-2.865-.068-4.258-.135-.947-.045-1.841-.088-2.691-.107-5.448-.729-11.008-1.246-17-1.581-5.359-.3-10.928-.446-17.027-.446-11.972,0-24.152.579-35.932,1.14h-.009c-3.983.19-8.1.385-12.151.556-2.836.186-5.744.277-8.892.277-7.812,0-15.732-.58-23.392-1.14h-.008c-7.654-.56-15.568-1.14-23.363-1.14-3.494,0-6.709.112-9.826.343a207.712,207.712,0,0,1-22.452,1.628,84.718,84.718,0,0,1-10.045-.559c-1.486-.236-3.041-.383-4.544-.525h0c-1.776-.168-3.613-.342-5.378-.664a20.066,20.066,0,0,1-5.1-1.572,6.14,6.14,0,0,1-2.245-2.192,6.739,6.739,0,0,1-.854-2.749,22.72,22.72,0,0,1,.58-6.265,35.783,35.783,0,0,0,.544-3.615c1.158-5.586,2.2-11.95,3.2-19.457.889-6.714,1.665-13.775,2.415-20.6v0c2-18.205,4.067-37.03,8.673-54.361,1.19-4.478,2.526-8.749,3.97-12.694a112.017,112.017,0,0,1,5.156-11.961A90.406,90.406,0,0,1,31.17,57.467,78.7,78.7,0,0,1,39.4,47.534a79.2,79.2,0,0,1,8.983-6.667,52.983,52.983,0,0,1,8.426-4.31c5.761-2.322,11.937-3.675,20.032-5.333a63.793,63.793,0,0,0,7.925-2.256c2.74-.961,6.334-2.422,7.895-3.924a35.069,35.069,0,0,0,3.99-5.117l.145-.211A39.066,39.066,0,0,0,99.9,13.6a42.746,42.746,0,0,1,2.771-5.585,16.194,16.194,0,0,1,1.854-2.449,12.645,12.645,0,0,1,2.417-2.039C110.743,1.352,116.625,0,122.3,0a29.308,29.308,0,0,1,7.43.884,15.667,15.667,0,0,1,5.97,2.852,15.268,15.268,0,0,1,2.784,3.222,19.094,19.094,0,0,1,1.831,3.674,51.352,51.352,0,0,1,2.079,8.134c.393,1.977.8,4.021,1.359,5.973a23.752,23.752,0,0,0,2.317,5.6c1.968,2.087,5.01,3.934,9.3,5.646a123.527,123.527,0,0,0,11.788,3.79c2.994.854,5.822,1.661,8.125,2.518,1.663.695,7.955,5.879,9.671,7.444a23.55,23.55,0,0,1,2.9,3.461,33.069,33.069,0,0,1,2.425,4.148,56.974,56.974,0,0,1,3.67,9.868,197.416,197.416,0,0,1,4.437,22.617c.983,6.279,1.912,12.209,3.193,17.111,2.971,17.191,5.31,31.413,7.358,44.756,2.484,16.177,4.51,30.873,6.193,44.929a11.875,11.875,0,0,1,.328,4.182,5.292,5.292,0,0,1-2.774,4.175,8.912,8.912,0,0,1-2.169.833A21.621,21.621,0,0,1,205.23,206.332ZM6.6,196.525c-.069.013-.14.049-.137.081s.03.048.2.048h.057l-.074-.077Z" transform="translate(9.412 -10.262)"/><path d="M217.432,203.34a3.305,3.305,0,0,1-2.186-.773,3.387,3.387,0,0,1-1.085-2.383,2.238,2.238,0,0,1,.662-1.842l-.006-.068c0-.032-.007-.057-.009-.072l0-.011c-.1-.54-.151-1.106-.2-1.654-.024-.265-.049-.538-.079-.8-.137-1.19-.274-2.393-.406-3.557l-.016-.137q-.084-.745-.169-1.491c-.36-3.128-.749-6.491-1.158-9.883-.809-6.743-1.666-13.477-2.547-20.014l-.89-6.59c-1.338-9.872-2.939-21.5-4.668-32.925-1.83-12.1-3.628-22.822-5.5-32.794-1.09-5.815-2.244-11.8-3.428-17.776-.668-3.368-1.233-5.951-1.831-8.374-.747-3.027-1.531-5.718-2.4-8.228a53.779,53.779,0,0,0-6.252-12.6,45.3,45.3,0,0,0-9.512-10.324c.066.642.122,1.3.177,1.928v0c.04.459.081.934.125,1.4.281,2.952.586,5.955.85,8.537.588,5.731,1.226,10.777,1.949,15.425.856,5.5,1.834,10.488,2.991,15.253a129.544,129.544,0,0,0,4.489,14.738c.91,2.434,1.891,4.792,2.915,7.01.3.642.65,1.284,1.023,1.964a12.706,12.706,0,0,1,1.977,5.268,1.906,1.906,0,0,1-.569,1.394,2.215,2.215,0,0,1-1.552.7,1.715,1.715,0,0,1-.188-.01c.486,4.28.782,8.65,1.068,12.877l.078,1.151c.163,2.383.318,4.808.467,7.153l0,.027v.008c.272,4.274.553,8.694.9,13.033,1.012,12.66,2.307,25.372,3.44,36.137.219,2.084.459,4.2.691,6.249v.006l.005.048.1.849.226,2,.021.174,0,.028a6.085,6.085,0,0,1-.331,3.8,19.7,19.7,0,0,1,1.284,4.6,4.223,4.223,0,0,1-.075,1.673,3.569,3.569,0,0,1-.728,1.445,2.809,2.809,0,0,1-2.2.994l-.129,0c-.232-.008-.482-.027-.787-.06a29.532,29.532,0,0,1-6.5.946c-.393,0-.811,0-1.242,0-1.507,0-3.04-.017-4.522-.034-.9-.01-1.835-.021-2.764-.027h-.035c-5.065-.034-10.806-.073-16.453-.119-6.743-.054-13.6-.09-20.233-.124H142.2c-12.925-.067-26.29-.136-39.435-.347l-7.959-.126c-6.635-.107-14.345-.243-21.888-.518-5.6-.2-10.3-.378-15.065-.57l-1.022-.039-1.515-.053h-.028a98.967,98.967,0,0,1-11.7-.868.16.16,0,0,1-.106-.066.226.226,0,0,1-.035-.166l.006-.027-.191-.043a.09.09,0,0,1-.1.072,2.522,2.522,0,0,1-1.1-.774,5.768,5.768,0,0,1-.833-1.057,2.2,2.2,0,0,1-.372-1.112c-.788-1.024-.627-2.533-.486-3.864.031-.287.059-.558.078-.814.064-.9.14-1.823.214-2.71l0-.03c.04-.485.081-.986.12-1.478.109-1.383.213-2.789.313-4.149v-.019c.117-1.587.237-3.227.368-4.84,1.125-13.917,1.878-25.473,2.37-36.368.228-5.037.422-10.16.61-15.115v0q.061-1.615.123-3.229c.128-3.385.29-5.958.525-8.341l.071-.692c.072-.672.125-1.369.177-2.044v0a22.418,22.418,0,0,1,1.128-6.433.041.041,0,0,1,.077,0,24.434,24.434,0,0,1,1.29,7.447c.022.314.045.638.068.954.027-.008.054-.014.083-.019l.032-.006c.312-.148.63-.3.937-.438a31.087,31.087,0,0,0,3.338-1.717c.122-.075.243-.153.36-.229h0l.186-.12c1.358-4.152,2.877-8.33,4.346-12.371.861-2.367,1.751-4.816,2.6-7.233,1.835-5.231,3.5-10.648,4.943-16.1,1.427-5.384,2.675-10.927,3.709-16.474a235.469,235.469,0,0,0,3.769-33.508A143.911,143.911,0,0,1,58.328,29.4c-1.29.642-2.625,1.306-3.931,1.971l-.561.286a68.567,68.567,0,0,0-8.514,5,34.906,34.906,0,0,0-7.239,6.666,42.493,42.493,0,0,0-4.681,7.43c-1.325,2.605-2.465,5.283-3.613,8.026C27.51,64.239,25.3,70.13,23.235,76.3c-1.953,5.82-3.763,11.935-5.38,18.175-1.534,5.922-2.943,12.143-4.186,18.49-1.176,6-2.219,12.2-3.1,18.428-.854,6.037-1.58,12.282-2.16,18.561-.64,6.927-1.152,13.149-1.566,19.022-.209,2.94-.411,6.1-.619,9.646-.037.633-.07,1.268-.1,1.882-.048.92-.1,1.871-.16,2.807-.009.136-.018.275-.026.41v.008a8.466,8.466,0,0,1-.344,2.266,7.33,7.33,0,0,1-.9,1.64c-.065.1-.132.2-.2.3a2.058,2.058,0,0,1-.777.695,2.17,2.17,0,0,1-1,.246,1.718,1.718,0,0,1-1.576-.941l-.305-.588a6.262,6.262,0,0,1-.827-2.474,14.71,14.71,0,0,1,.057-1.926c.016-.224.033-.454.046-.679.1-1.789.211-3.607.311-5.211.236-3.775.494-7.46.767-10.952.578-7.447,1.324-14.806,2.216-21.873.871-6.883,1.766-13.138,2.736-19.121,1.091-6.725,2.248-12.931,3.537-18.974,1.386-6.5,2.934-12.8,4.6-18.73,1.786-6.354,3.78-12.541,5.927-18.388,1.133-3.083,2.31-6.091,3.5-8.938,1.266-3.027,2.588-5.974,3.929-8.758A52.079,52.079,0,0,1,32.3,43.345a35.824,35.824,0,0,1,2.92-3.552,30.1,30.1,0,0,1,3.418-3.123,46.851,46.851,0,0,1,7.253-4.553c2.5-1.3,5.106-2.456,7.78-3.627l.654-.286c1.011-.441,2.03-.893,3.016-1.329a139.225,139.225,0,0,1,14.832-5.9,2.01,2.01,0,0,0-.388.074.136.136,0,0,1-.041.007.121.121,0,0,1-.11-.076.145.145,0,0,1,.02-.155,4.17,4.17,0,0,0,.381-.514,3.482,3.482,0,0,1,.511-.646c.259-.246.54-.491.858-.749l.425-.338A6.674,6.674,0,0,1,76.4,17.117a1.907,1.907,0,0,1,.405-.046,1.316,1.316,0,0,1,1.125.574,1.535,1.535,0,0,1,.144,1.411.436.436,0,0,1,.353-.153.556.556,0,0,1,.522.327c1.518,3.912,2.885,7.968,4.206,11.891s2.688,7.978,4.207,11.894a93.359,93.359,0,0,0,5.254,11.454c5.129,9.286,11.4,16.25,18.647,20.7a38.546,38.546,0,0,0,6.9,3.385,26.851,26.851,0,0,0,7.491,1.634c.455.029.916.043,1.369.043a21.493,21.493,0,0,0,5.992-.852,22.579,22.579,0,0,0,5.554-2.478,30,30,0,0,0,5.2-4.1,39.467,39.467,0,0,0,4.332-5.07,63.873,63.873,0,0,0,6.5-11.626,114.446,114.446,0,0,0,4.978-13.484,119.692,119.692,0,0,0,3.29-14.01l-.229,0a18.82,18.82,0,0,1-7.532-1.639,18.376,18.376,0,0,1-6.252-4.468,17.2,17.2,0,0,1-3.827-7.087,11.515,11.515,0,0,1-.382-3.71,13.607,13.607,0,0,1,.792-3.625.147.147,0,0,1,.139-.1.115.115,0,0,1,.117.1,35.343,35.343,0,0,0,2.193,6.374,18.129,18.129,0,0,0,3.631,5.385,15.487,15.487,0,0,0,5.437,3.6,17.633,17.633,0,0,0,6.425,1.154l.109,0c.013-.094.027-.191.041-.283v0l.025-.169.031-.228a2.848,2.848,0,0,1,.9-1.817,2.4,2.4,0,0,1,1.582-.582,2.552,2.552,0,0,1,1.436.444,2.39,2.39,0,0,1,.933,1.28c.411.13.753.239,1.1.356l.073.026c.135.052.344.143.586.249a8.814,8.814,0,0,0,2.3.792.339.339,0,0,0,.2-.046,1.155,1.155,0,0,1,.683-.23,1.708,1.708,0,0,1,1.439,1.091,12.86,12.86,0,0,1,.692,3.439c.029.263.056.512.087.762l.023.178.026.214c5.444,1.414,10.217,4.789,14.187,10.031a44.505,44.505,0,0,1,4.612,7.688,61.867,61.867,0,0,1,3.2,8.25,176.085,176.085,0,0,1,4.207,17.851l.066.331c.768,3.852,1.512,7.774,2.232,11.567v.007l0,.01c.5,2.626,1.014,5.342,1.532,8.011,2.9,14.889,5.1,27.186,6.925,38.7l.6,3.758c2.1,13.3,3.805,24.465,5.262,35.748.761,5.889,1.535,12.22,2.367,19.353.133,1.136.268,2.3.4,3.456l.2,1.729c.019.163.039.328.058.487v0a13.428,13.428,0,0,1,.146,2.054,4.49,4.49,0,0,1-.5,1.99,4.242,4.242,0,0,1-3.714,2.25ZM82.985,21.09a5.365,5.365,0,0,1-2.944-.7.136.136,0,0,1-.065-.114.141.141,0,0,1,.065-.117,6.943,6.943,0,0,1,2.47-.9h0c.323-.073.658-.149.971-.239a30.832,30.832,0,0,0,3.662-1.269,28.913,28.913,0,0,0,6.563-3.906,28.292,28.292,0,0,0,2.884-2.6,18.408,18.408,0,0,0,2.387-3.051,35.813,35.813,0,0,0,1.8-3.4,16.439,16.439,0,0,0,.63-1.589,12.9,12.9,0,0,1,.831-1.977,2.351,2.351,0,0,1,.928-.915A2.592,2.592,0,0,1,104.4,0a2.653,2.653,0,0,1,.992.19A2.252,2.252,0,0,1,106.666,1.4a3.255,3.255,0,0,1,.19,1.766,12.8,12.8,0,0,1-1.768,4.121l-.109.19a22.535,22.535,0,0,1-2.767,3.712,31.833,31.833,0,0,1-6.4,5.716,25.325,25.325,0,0,1-7.974,3.44l-.669.156A19.639,19.639,0,0,1,82.985,21.09Z" transform="translate(6.275 0.57)"/></g><g transform="translate(106.099 51.311)"><path d="M112.358,102.552c-4.808-21.833-5.745-45.81-18.437-64.874C88.375,29.9,79.464,19.769,69.054,22.963q.643-6.9,1.208-13.816C70.477,6.512,71.462,3,69.235.974,65.558-2,59.471,2.551,56.629,5.093c-6.157,5.9-8.588,11.64-16.7,15.583-3.251-2.32-6.419-4.755-9.719-7.013-3.362-2.3-8.171-6.037-11.66-1.79-2.957,3.6-1.068,9.274.1,13.235.6,2.026,1.2,4.237,2.029,6.32q.105,2.375.372,4.74c-6.008,1.071-12.19,1.971-17.93,4.073C0,41.939.274,45.8,2.494,48.1a34.6,34.6,0,0,0,12.119,7.436,12.489,12.489,0,0,1-5.344,6.942,3.289,3.289,0,0,0-1.487,2.157,16.839,16.839,0,0,1-4.123,1.4,3.438,3.438,0,0,0-2.371,4.183c1.3,4.1,5.9,1.757,8.889,1.468.09,2.865.137,5.849,1.435,8.5C4.67,82.02-1.343,88.672.262,96.168c1.458,7.165,9.18,9.355,15.293,10.983.463.273.462.541.609,1.218,1.009,4.645.159,9.755-1.431,14.165a3.235,3.235,0,0,0,1.166,3.427c4.978,3.175,6.629-6.493,12.3-.34-.424-.064-1.477-.591-1.423.173,7.362,12.941,29.1,13.736,42.419,14.054,1.6.779,3.439.337,5.267-.16,1.744-.095,3.487-.225,5.225-.4,3.173-.574,8.755.106,8.954-4.37a42.28,42.28,0,0,0,20.047-16.243c3.564-4.918,4.972-10.124,3.667-16.12Z" transform="translate(11.384 1.995)"/><path d="M16.8,122.916a2.187,2.187,0,0,1-1.46-.556,1.776,1.776,0,0,1-.573-1.274,7.774,7.774,0,0,1,.082-1.544c.027-.224.053-.436.067-.632l.026-.4.06-.836.022-.339a9.758,9.758,0,0,0-.2-3.175.652.652,0,0,0-.287-.392c.037-.264.07-.529.1-.787l.016-.151a19.51,19.51,0,0,0,3.905,8.935c.114.145.237.3.364.453l-.142.077-.145.076A4.092,4.092,0,0,1,16.8,122.916ZM4.6,68.826a5.629,5.629,0,0,1-1.33-.135,5.858,5.858,0,0,1-1.643-.659,2.361,2.361,0,0,1-.283-.22,2.343,2.343,0,0,0-.383-.287A4.037,4.037,0,0,0,1.9,66.51a6.228,6.228,0,0,1,.46-.572c.562-.572,1.158-1.132,1.773-1.664.208-.18.485-.378.779-.588.825-.589,1.852-1.322,1.967-2.132a.142.142,0,0,0-.061-.151,1.266,1.266,0,0,0-.444-.151,3.286,3.286,0,0,1,.981-1.035l.1-.065A52.669,52.669,0,0,0,5.874,68.79c-.164,0-.33.01-.491.016C5.127,68.816,4.863,68.826,4.6,68.826ZM10.36,52.217h0c-.481-.215-.965-.444-1.438-.68a3.278,3.278,0,0,0,1.167-.446l.1-.058.184-.107a1.3,1.3,0,0,0,.608-.992,1.116,1.116,0,0,0-.356-.959c-.125-.111-.231-.213-.334-.313a2.574,2.574,0,0,0-1.112-.733c-.343-.111-.7-.188-1.049-.263-.271-.058-.55-.119-.819-.194a12.839,12.839,0,0,1-3.634-1.685A11.584,11.584,0,0,1,1,43.336l-.189-.243-.187-.236c-.395-.507-.77-1.089-.562-1.566.188-.429.938-.872,1.485-1.194h0c.1-.06.2-.116.277-.166l.278-.174A20.182,20.182,0,0,1,5,38.283a27.048,27.048,0,0,1,3.026-1.04c2.052-.582,4.2-.978,6.282-1.362,1.262-.233,2.567-.474,3.84-.754a.157.157,0,0,0,.134-.169.211.211,0,0,0-.184-.2c-1-.1-2.025-.163-3.042-.189l1.683-.293.015,0h0c.818-.142,1.663-.289,2.49-.436-.09-.792-.167-1.6-.23-2.4a1.861,1.861,0,0,0,1.234.464,3.074,3.074,0,0,0,1.386-.389,1.889,1.889,0,0,0,.926-1.155,2.219,2.219,0,0,0-.064-1.482,2.044,2.044,0,0,0-.521-.744l-.065-.055-.681-3.088-1.5-6.859-.045-.2-.05-.209-.306-1.2a14.309,14.309,0,0,1-.542-3.58,4.16,4.16,0,0,1,.307-1.594,2.314,2.314,0,0,1,1.011-1.12,1.671,1.671,0,0,1,.818-.2,5.8,5.8,0,0,1,2.405.831L23.6,11l.135.067.662.319c1.355.66,2.669,1.367,3.663,1.91,3.006,1.64,5.943,3.325,8.731,5.007a.248.248,0,0,0,.13.036.317.317,0,0,0,.27-.168.234.234,0,0,0-.017-.253c-.12-.172-.244-.345-.378-.53l.066.048a1.241,1.241,0,0,1,.612.961,1.554,1.554,0,0,1-.8,1.125,66.443,66.443,0,0,0-9.039,8.1A68.339,68.339,0,0,0,16.486,42.787,37.116,37.116,0,0,0,10.36,52.217ZM60.68,23.47a7.73,7.73,0,0,1-2.562-.482,24.8,24.8,0,0,1-2.448-1.062,15.561,15.561,0,0,0-3.892-1.451l-.211-.035a11.731,11.731,0,0,1-1.844-.576,4.6,4.6,0,0,1-2.093-1.427,1.112,1.112,0,0,1-.146-.916l.02-.065a1.459,1.459,0,0,0-.378-1.43,2.309,2.309,0,0,0-.567-.4A41.484,41.484,0,0,1,49.122,11.6,35.223,35.223,0,0,1,52.14,7.956a31.3,31.3,0,0,1,3.517-3.178,29.7,29.7,0,0,1,4.06-2.637l.8-.421.434-.226A12.192,12.192,0,0,1,65.158.005C65.2,0,65.237,0,65.274,0a.693.693,0,0,1,.609.286,1.935,1.935,0,0,1,.25.681l.047.214.109.473a30.047,30.047,0,0,1,.5,3.189,43.12,43.12,0,0,1,.166,7.482c-.07,1.083-.189,2.28-.364,3.662-.071.555-.18,1.115-.286,1.657a18.932,18.932,0,0,0-.344,2.225c-.133.17-.265.348-.392.52a12.211,12.211,0,0,1-.764.964,5.485,5.485,0,0,1-4.053,2.117Z" transform="translate(13.206 4.333)"/><path d="M69.728,145.041a23.676,23.676,0,0,1-5.2-.545,17.9,17.9,0,0,1-4.907-1.876,2.034,2.034,0,0,1-1.063-2.371,2.542,2.542,0,0,1,.823-1.286,2.268,2.268,0,0,1,1.469-.549,2.44,2.44,0,0,1,1.074.26,16.285,16.285,0,0,0,3.879,1.307,20.169,20.169,0,0,0,4.02.386,36.729,36.729,0,0,0,9.195-1.375,69.569,69.569,0,0,0,8.215-2.637,51.3,51.3,0,0,0,7.739-3.8,37.929,37.929,0,0,0,6.008-4.508,34.3,34.3,0,0,0,4.985-5.69,28.28,28.28,0,0,0,3.442-6.656,23.833,23.833,0,0,0,1.38-7.407,25.331,25.331,0,0,0-.6-5.769c-.4-1.9-.95-3.815-1.484-5.665-.517-1.789-1.05-3.637-1.439-5.459-1.048-4.919-1.693-9.859-2.314-14.908l-.455-3.709a145.754,145.754,0,0,0-2.665-15.957A55.377,55.377,0,0,0,96.061,41.8a36.533,36.533,0,0,0-4.228-5.856,36,36,0,0,0-5.323-4.924,33.169,33.169,0,0,0-6.21-3.7,29.734,29.734,0,0,0-6.888-2.175.171.171,0,0,1-.118-.073,4.813,4.813,0,0,1-1.26,2.225,16.693,16.693,0,0,1-1.873,1.723,10.548,10.548,0,0,1-2.524,1.559,7.352,7.352,0,0,1-2.886.616h-.134a10.5,10.5,0,0,1-5.549-1.945,33.522,33.522,0,0,1-4.607-3.832.337.337,0,0,1-.1-.381.455.455,0,0,1,.412-.272.422.422,0,0,1,.063,0,14.868,14.868,0,0,1,4.071,1.48,24.81,24.81,0,0,0,2.448,1.062,7.731,7.731,0,0,0,2.562.482h.072a5.485,5.485,0,0,0,4.053-2.117,12.2,12.2,0,0,0,.763-.963v0c.127-.172.259-.349.391-.519a18.934,18.934,0,0,1,.343-2.223c.106-.543.216-1.1.286-1.659.176-1.38.295-2.578.364-3.662a43.118,43.118,0,0,0-.166-7.482,30.036,30.036,0,0,0-.5-3.189l-.109-.473L69.4,5.422c-.129-.589-.24-1.1-.888-1.1-.037,0-.076,0-.117.005a14.513,14.513,0,0,0-5.012,1.909l-.011.006-.194.1a29.68,29.68,0,0,0-4.138,2.644,31.209,31.209,0,0,0-3.579,3.2A35.122,35.122,0,0,0,52.4,15.872a41.441,41.441,0,0,0-2.6,4.076,2.315,2.315,0,0,1,.567.4,1.473,1.473,0,0,1,.384.664,1.317,1.317,0,0,1-.007.766c-.458,1.342-1.776,1.745-3.051,2.134a11.594,11.594,0,0,0-1.417.5,28.7,28.7,0,0,0-4.882,2.921,72.619,72.619,0,0,0-8.438,7.4c-3.7,3.694-7.437,7.853-11.747,13.089L20.414,49.6c-.758,1.7-1.552,3.514-2.208,5.4a79.054,79.054,0,0,0-2.589,9.19,60.177,60.177,0,0,0-1.284,9.533,46.569,46.569,0,0,0,.09,4.9c.064,1.2.13,2.431.124,3.644a2.245,2.245,0,0,1,.226,1.555,8.323,8.323,0,0,1,2.3,1.046.186.186,0,0,1,.079.215.18.18,0,0,1-.173.134.21.21,0,0,1-.05-.006,7.986,7.986,0,0,0-1.912-.23c-.273,0-.552.014-.829.041a2.584,2.584,0,0,1-1.955.951h-.048l-.32-.007a2.748,2.748,0,0,1-.693-.107A11.771,11.771,0,0,0,7.745,88.3a11.635,11.635,0,0,0-2.629,4.127,12.157,12.157,0,0,0-.723,4.853,9.491,9.491,0,0,0,4.887,7.961,9.164,9.164,0,0,0,2.065.818,9.388,9.388,0,0,0,2.2.3h.127c.318,0,.649-.019,1-.039H14.7c.331-.019.706-.04,1.071-.04a3.611,3.611,0,0,1,2.277.606.86.86,0,0,1,.274.4c.091-.384.178-.724.265-1.041a.306.306,0,0,1,.3-.21.253.253,0,0,1,.265.21l.069.385c.148.838.284,1.691.415,2.515a50.381,50.381,0,0,0,1.456,7,19.288,19.288,0,0,0,1.332,3.271,15.178,15.178,0,0,0,2.06,3.008A35.982,35.982,0,0,0,30.8,128l.376.263a9.081,9.081,0,0,0,3.176,1.566c.374.078.729.128,1.072.176a6.01,6.01,0,0,1,2.46.728,1.533,1.533,0,0,1,.692,1.705,3.441,3.441,0,0,1-1.4,1.931,3.909,3.909,0,0,1-2.132.55,11.68,11.68,0,0,1-5.558-1.846,28.545,28.545,0,0,1-4.17-3.183,10.2,10.2,0,0,1-3.666,1.322,7.533,7.533,0,0,1-1.113.083,6.876,6.876,0,0,1-2.129-.329,5.884,5.884,0,0,1-1.9-1.023,4.82,4.82,0,0,1-1.554-2.209,5.878,5.878,0,0,1-.224-2.712,19.725,19.725,0,0,1,.637-2.784l.218-.748c.049-.167.1-.336.142-.5a9.025,9.025,0,0,1,1.066-2.666.74.74,0,0,1,.614-.326.649.649,0,0,1,.645.491,11.7,11.7,0,0,1,.148,3.929q-.015.212-.03.421l-.021.327c-.013.215-.041.451-.072.7A7.775,7.775,0,0,0,18,125.411a1.777,1.777,0,0,0,.573,1.274,2.187,2.187,0,0,0,1.46.556,4.7,4.7,0,0,0,2.12-.7c-.14-.171-.259-.32-.364-.453a19.436,19.436,0,0,1-3.769-8.2,24.011,24.011,0,0,1-.038-9.008,3.767,3.767,0,0,1-2.028,1.2,9.283,9.283,0,0,1-2.451.327c-.194,0-.379-.006-.551-.019a13.564,13.564,0,0,1-6.206-2,12.825,12.825,0,0,1-2.6-2.162,13.192,13.192,0,0,1-1.924-2.708A14.336,14.336,0,0,1,.557,97.061a14.547,14.547,0,0,1,1.37-6.46,12.919,12.919,0,0,1,4.184-5.067A11.288,11.288,0,0,1,9.278,83.97a23.4,23.4,0,0,1-.485-6.916,6.916,6.916,0,0,1-.93.061A9.443,9.443,0,0,1,4.881,76.6L4.7,76.532a10.258,10.258,0,0,1-2.8-1.487A4.146,4.146,0,0,1,.214,72.509,3.092,3.092,0,0,1,1.4,69.65a14.286,14.286,0,0,1,2.841-1.868h0c.165-.09.321-.175.469-.258a23.3,23.3,0,0,1,2.6-1.277l.27-.107c.134-.052.27-.11.414-.172a3.747,3.747,0,0,1,1.407-.4,1.288,1.288,0,0,1,.649.165.142.142,0,0,1,.061.151C10,66.688,8.975,67.421,8.15,68.01c-.294.21-.571.408-.779.588C6.756,69.13,6.16,69.69,5.6,70.262a6.22,6.22,0,0,0-.46.572A4.037,4.037,0,0,1,4.2,71.851a2.337,2.337,0,0,1,.382.286,2.359,2.359,0,0,0,.283.22,5.866,5.866,0,0,0,1.643.659,5.63,5.63,0,0,0,1.33.135c.259,0,.523-.01.779-.02.162-.006.328-.012.492-.016a51.594,51.594,0,0,1,2.02-10.159,49.412,49.412,0,0,1,3.43-8.36,35.549,35.549,0,0,1,5.162-7.485A68.346,68.346,0,0,1,30.874,31.949a68.265,68.265,0,0,1,9.039-8.1A28.674,28.674,0,0,1,44.52,21.1l.539-.248.233-.108h0A10.738,10.738,0,0,1,48.1,19.738a26.6,26.6,0,0,1,3.343-7.588A27.968,27.968,0,0,1,59.211,4.07a28.682,28.682,0,0,1,4.869-2.736l.478-.209A10.871,10.871,0,0,1,68.727,0a5.152,5.152,0,0,1,1.089.114A4.4,4.4,0,0,1,72.3,1.648a6.91,6.91,0,0,1,1.312,2.661,38.417,38.417,0,0,1,1.026,6.99,49.07,49.07,0,0,1-.077,7.217,22.5,22.5,0,0,1-1.211,6.291.2.2,0,0,1,.116-.054,24.388,24.388,0,0,1,2.508-.135,18.309,18.309,0,0,1,5.954.958,31.234,31.234,0,0,1,3.843,1.589,29.158,29.158,0,0,1,3.588,2.1A31.048,31.048,0,0,1,95.9,35.445a42.685,42.685,0,0,1,4.838,7.609,54.3,54.3,0,0,1,3.078,7.557,75.837,75.837,0,0,1,2.08,7.869c1.127,5.321,1.817,10.828,2.484,16.154l0,.017c.126,1.008.257,2.051.388,3.072l.046.356a126.551,126.551,0,0,0,3.622,18.576l.3,1.04a47.469,47.469,0,0,1,1.706,8.317,26.607,26.607,0,0,1-.436,8.465,30.3,30.3,0,0,1-2.922,7.85,34.426,34.426,0,0,1-4.788,6.746,40.966,40.966,0,0,1-6.2,5.564,46.975,46.975,0,0,1-7.163,4.305,64.8,64.8,0,0,1-16.192,5.375A37.5,37.5,0,0,1,69.728,145.041ZM15.292,101.624a2.208,2.208,0,0,1-2.031-1.189,3.222,3.222,0,0,1-.246-2.405,4.635,4.635,0,0,1,1.332-2.057,4.984,4.984,0,0,1,1.308-.881c-.618-.056-1.262-.085-1.915-.085a26.022,26.022,0,0,0-3.379.232l-.022,0a.123.123,0,0,1-.122-.095.189.189,0,0,1,.063-.206,12.831,12.831,0,0,1,3.649-1.682,14.509,14.509,0,0,1,3.984-.548c.421,0,.848.018,1.27.053A16.426,16.426,0,0,1,23.7,93.807l.6.236a7.479,7.479,0,0,1,1.955,1.036,2.41,2.41,0,0,1,.957,1.875,1.487,1.487,0,0,1-1.058,1.392,2.1,2.1,0,0,1-.692.119,4.368,4.368,0,0,1-2.26-.942c-.274-.178-.557-.363-.835-.512A16.929,16.929,0,0,0,18.576,95.6c-.121-.032-.244-.061-.364-.09l-.014,0a.85.85,0,0,1,.094.452,3.638,3.638,0,0,1-.193.843c-.02.063-.042.134-.064.206-.011.035-.025.125-.044.238a2.313,2.313,0,0,1-.153.636c.023.2.028.384.034.582,0,.033,0,.066,0,.1a3.282,3.282,0,0,1-.415,1.875,2.311,2.311,0,0,1-.931.885A2.66,2.66,0,0,1,15.292,101.624ZM11.806,55.885A4.612,4.612,0,0,1,11,55.8a11.923,11.923,0,0,1-2.47-.782,16.414,16.414,0,0,1-4.048-2.408L4.3,52.462a17.865,17.865,0,0,1-2.67-2.731,7.036,7.036,0,0,1-1.613-3.52,3.286,3.286,0,0,1,.8-2.493,10.9,10.9,0,0,1,4.44-2.894,26.8,26.8,0,0,1,5.185-1.37,40.8,40.8,0,0,1,6.829-.571c1.362,0,2.731.068,4.069.2a.211.211,0,0,1,.184.2.157.157,0,0,1-.134.169c-1.273.28-2.577.52-3.838.753-2.08.384-4.231.78-6.283,1.362A23.129,23.129,0,0,0,5.341,44.08l-.225.141c-.091.058-.2.124-.332.2-.548.323-1.3.765-1.486,1.195-.242.553.311,1.25.677,1.712.047.059.1.12.136.174a11.7,11.7,0,0,0,2.8,2.61A12.841,12.841,0,0,0,10.551,51.8c.27.076.549.136.819.194.347.075.706.152,1.05.263a2.574,2.574,0,0,1,1.112.734c.1.1.209.2.334.313a1.116,1.116,0,0,1,.356.959,1.3,1.3,0,0,1-.608.992l-.184.107A3.017,3.017,0,0,1,11.806,55.885Zm11.68-19.656a1.839,1.839,0,0,1-1.1-.361,3,3,0,0,1-.791-.92,9.977,9.977,0,0,1-.927-2.546c-.431-1.73-.866-3.457-1.275-5.077l-.706-2.8c-.07-.274-.144-.559-.209-.81a27.963,27.963,0,0,1-1.127-6.194,9.544,9.544,0,0,1,.365-3.011,7.682,7.682,0,0,1,1.513-2.778,5.925,5.925,0,0,1,2.018-1.585,5.2,5.2,0,0,1,2.2-.469c2.609,0,5.363,1.7,7.47,3.187a41.6,41.6,0,0,1,5.163,4.275,36.279,36.279,0,0,1,4.335,5.1.234.234,0,0,1,.017.252.317.317,0,0,1-.27.168.248.248,0,0,1-.13-.036c-2.782-1.68-5.719-3.365-8.731-5.008-1-.543-2.312-1.251-3.663-1.909l-.662-.319c-.129-.064-.261-.132-.4-.2a5.8,5.8,0,0,0-2.405-.831,1.671,1.671,0,0,0-.818.2,2.341,2.341,0,0,0-1.066,1.252,4.682,4.682,0,0,0-.251,1.79,18.045,18.045,0,0,0,.693,3.848v0c.075.291.146.566.2.808l.045.2,1.5,6.858.681,3.088a2.022,2.022,0,0,1,.586.8,2.22,2.22,0,0,1,.063,1.482,1.889,1.889,0,0,1-.926,1.155A3.075,3.075,0,0,1,23.486,36.229Z" transform="translate(9.961 0)"/></g><g transform="translate(151.447 104.333)"><path d="M30.812,54.678a10.869,10.869,0,0,1-4.12-.822A11.641,11.641,0,0,1,24,52.311,11.452,11.452,0,0,1,21.814,50.1a2.26,2.26,0,0,1-.456-1.75,2.523,2.523,0,0,1,.983-1.581,2.422,2.422,0,0,1,1.441-.5,2.092,2.092,0,0,1,.322.025,2.225,2.225,0,0,1,1.489.984l.088.121A7.686,7.686,0,0,0,28.5,49.764a6.4,6.4,0,0,0,2.793.652,6.193,6.193,0,0,0,.692-.039A7.278,7.278,0,0,0,35.057,49.3a14.4,14.4,0,0,0,2.605-2.173c.187-.19.384-.4.64-.669a1.013,1.013,0,0,1,.531-.409,1.089,1.089,0,0,1,.346-.055,1.177,1.177,0,0,1,.964.5,1.074,1.074,0,0,1,.182.707,6.487,6.487,0,0,1-.77,2.514,8.392,8.392,0,0,1-1.646,2.113,10.586,10.586,0,0,1-2.494,1.738,10.388,10.388,0,0,1-2.768.949A10.2,10.2,0,0,1,30.812,54.678Zm2.9-16.415h0a9.962,9.962,0,0,1-3.55-.715,17.934,17.934,0,0,1-4.175-2.368,1.6,1.6,0,0,1-.583-.926,1.918,1.918,0,0,1,.083-1.04,2.366,2.366,0,0,1,.7-1.016,1.712,1.712,0,0,1,1.1-.427,1.555,1.555,0,0,1,.847.26l.282.218,0,0a22.6,22.6,0,0,0,2.614,1.817,6.441,6.441,0,0,0,3.133,1,3.384,3.384,0,0,0,1.324-.26,3.7,3.7,0,0,0,1.233-.873,3.777,3.777,0,0,0,.717-3.042,5.745,5.745,0,0,0-1.526-2.7A11.124,11.124,0,0,0,33.6,26.33a.716.716,0,0,1-.194-.823A1.074,1.074,0,0,1,33.765,25a1.093,1.093,0,0,1,.682-.225,1.453,1.453,0,0,1,.245.022,7.748,7.748,0,0,1,2.724.983,6.177,6.177,0,0,1,1.832,1.688,6.7,6.7,0,0,1,1.17,4.481,7.379,7.379,0,0,1-.6,2.352,6.861,6.861,0,0,1-1.35,2.021A6.455,6.455,0,0,1,33.712,38.263ZM10.61,22.234a2.378,2.378,0,0,1-2.3-2.113A17.122,17.122,0,0,1,8.4,15.66c.054-.434.11-.882.148-1.365a2.67,2.67,0,0,1,1.013-1.909,3.121,3.121,0,0,1,1.919-.674,2.366,2.366,0,0,1,1.451.456,2.15,2.15,0,0,1,.8,1.426,11.963,11.963,0,0,1-1.25,7.377,2.367,2.367,0,0,1-.835.966A1.927,1.927,0,0,1,10.61,22.234Zm33.911-1.012a2.037,2.037,0,0,1-1.6-.684,6.235,6.235,0,0,1-.975-1.653,7.2,7.2,0,0,1-.5-1.992,4.221,4.221,0,0,1,1.152-3.624,2.39,2.39,0,0,1,.185-.281A2.61,2.61,0,0,1,44.8,11.833a2.176,2.176,0,0,1,.61.09,2.936,2.936,0,0,1,1.962,1.711,6.046,6.046,0,0,1,.243,3.309,11.071,11.071,0,0,1-1,3.121,2.026,2.026,0,0,1-.868.857A2.63,2.63,0,0,1,44.522,21.222ZM.375,10.593A.369.369,0,0,1,.067,10.4.413.413,0,0,1,.042,10,14.062,14.062,0,0,1,3.2,6.008,19.5,19.5,0,0,1,7.419,3.125a18.162,18.162,0,0,1,5.013-1.748l.535-.094a13.052,13.052,0,0,1,2.188-.237,3.382,3.382,0,0,1,2.7,1.006A2.292,2.292,0,0,1,18.4,3.681a1.492,1.492,0,0,1-.542,1.065A4.161,4.161,0,0,1,15,5.582c-.225,0-.457-.006-.682-.011h-.008c-.216-.005-.461-.012-.7-.012-.224,0-.423.005-.61.016A19.286,19.286,0,0,0,8.757,6.3,28.841,28.841,0,0,0,.572,10.529.352.352,0,0,1,.375,10.593ZM52.008,8.434h0l-.226-.056a12.776,12.776,0,0,1-2.476-.965l-.8-.4a22.336,22.336,0,0,0-2.871-1.223,33.9,33.9,0,0,0-6.54-1.444,2.673,2.673,0,0,1-1.312-.5,1.965,1.965,0,0,1-.734-1.117,2,2,0,0,1,.226-1.675A2.134,2.134,0,0,1,38.307.169,2.33,2.33,0,0,1,39.19,0a2.6,2.6,0,0,1,.51.051l.41.084a29.281,29.281,0,0,1,7.064,2.293A14.283,14.283,0,0,1,50.28,4.47a9.064,9.064,0,0,1,2.2,2.837c.077.592.006.739-.074.839l-.023.029-.02.027a.568.568,0,0,1-.351.233Z" transform="translate(15.116 14.823)"/></g><g transform="translate(141.18 147.662)"><path d="M54.3,3.342c-.38-1.135-2.336-1.036-2.216.3a3.92,3.92,0,0,1-1.848,3.97,3.322,3.322,0,0,1-4.191-1.253,22.721,22.721,0,0,0-2.4-3.425A8.887,8.887,0,0,0,40.28.842a6.93,6.93,0,0,0-3-.314,7.306,7.306,0,0,0-6.871,2.636c-.1.124-.191.251-.28.38-.153-.208-.312-.413-.481-.616a1.348,1.348,0,0,0-1.466-.492,8.941,8.941,0,0,0-9.847-.476c-2.533,1.5-4.629,3.7-7.744,3.873C8.124,5.97,5.437,4.562,5.263,1.852,5.172.437,3.242-.742,2.16.568A9.714,9.714,0,0,0,.688,10.313,13.155,13.155,0,0,0,8.151,17.76a29.128,29.128,0,0,0,12.041,1.994,12.484,12.484,0,0,0,10.026-4.921,10.8,10.8,0,0,0,.761-1.185c2.336,2.973,6,4.222,9.727,4.312,3.9.094,8.514-.591,11.273-3.619a11.291,11.291,0,0,0,2.324-11" transform="translate(29.662 5.986)"/></g></g><text transform="translate(123 163)" fill="#fff" font-size="97" font-family="Rubik-Bold, Rubik" font-weight="700"><tspan x="0" y="0">?</tspan></text></g></svg>